<svg xmlns="http://www.w3.org/2000/svg" xmlns:xlink="http://www.w3.org/1999/xlink" contentStyleType="text/css" height="1293px" preserveAspectRatio="none" style="width:1374px;height:1293px;background:#FFFFFF;" version="1.1" viewBox="0 0 1374 1293" width="1374px" zoomAndPan="magnify"><title>&#21629;&#20196;&#25191;&#34892;&#27969;&#31243;&#19982;&#20851;&#31995;</title><defs/><g><text fill="#000000" font-family="Microsoft YaHei" font-size="14" font-weight="bold" lengthAdjust="spacing" textLength="126" x="622.5996" y="32.9951">&#21629;&#20196;&#25191;&#34892;&#27969;&#31243;&#19982;&#20851;&#31995;</text><ellipse cx="670.7874" cy="57.2969" fill="#222222" rx="10" ry="10" style="stroke:#222222;stroke-width:1;"/><rect fill="#E0FFFF" height="367.2109" style="stroke:#000000;stroke-width:1.5;" width="645.3174" x="338.0344" y="77.2969"/><path d="M418.0344,77.2969 L418.0344,86.5938 L408.0344,96.5938 L338.0344,96.5938 " fill="none" style="stroke:#000000;stroke-width:1.5;"/><text fill="#000000" font-family="Microsoft YaHei" font-size="14" font-weight="bold" lengthAdjust="spacing" textLength="70" x="341.0344" y="91.292">&#21021;&#22987;&#21270;&#38454;&#27573;</text><path d="M748.7874,113.4453 L748.7874,129.5781 L728.7874,133.5781 L748.7874,137.5781 L748.7874,153.7109 A0,0 0 0 0 748.7874,153.7109 L875.7678,153.7109 A0,0 0 0 0 875.7678,153.7109 L875.7678,123.4453 L865.7678,113.4453 L748.7874,113.4453 A0,0 0 0 0 748.7874,113.4453 " fill="#FEFFDD" style="stroke:#181818;stroke-width:0.5;"/><path d="M865.7678,113.4453 L865.7678,123.4453 L875.7678,123.4453 L865.7678,113.4453 " fill="#FEFFDD" style="stroke:#181818;stroke-width:0.5;"/><text fill="#000000" font-family="Microsoft YaHei" font-size="13" lengthAdjust="spacing" textLength="105.9805" x="754.7874" y="130.5122">&#21019;&#24314; config.yaml</text><text fill="#000000" font-family="Microsoft YaHei" font-size="13" lengthAdjust="spacing" textLength="78" x="754.7874" y="145.645">&#23450;&#20041;&#20219;&#21153;&#21442;&#25968;</text><rect fill="#F1F1F1" height="33.9688" rx="12.5" ry="12.5" style="stroke:#181818;stroke-width:0.5;" width="116" x="612.7874" y="116.5938"/><text fill="#000000" font-family="Microsoft YaHei" font-size="12" lengthAdjust="spacing" textLength="96" x="622.7874" y="137.7324">&#29992;&#25143;&#20934;&#22791;&#37197;&#32622;&#25991;&#20214;</text><polygon fill="#F1F1F1" points="629.3682,173.7109,712.2065,173.7109,724.2065,185.7109,712.2065,197.7109,629.3682,197.7109,617.3682,185.7109,629.3682,173.7109" style="stroke:#181818;stroke-width:0.5;"/><text fill="#000000" font-family="Microsoft YaHei" font-size="11" lengthAdjust="spacing" textLength="82.8384" x="629.3682" y="189.519">&#38656;&#35201;&#21021;&#22987;&#21270;&#39033;&#30446;?</text><text fill="#000000" font-family="Microsoft YaHei" font-size="11" lengthAdjust="spacing" textLength="19.0083" x="598.3599" y="183.1167">yes</text><text fill="#000000" font-family="Microsoft YaHei" font-size="11" lengthAdjust="spacing" textLength="13.7017" x="724.2065" y="183.1167">no</text><path d="M542.9275,207.7109 L542.9275,231.4102 L522.9275,235.4102 L542.9275,239.4102 L542.9275,263.1094 A0,0 0 0 0 542.9275,263.1094 L805.9509,263.1094 A0,0 0 0 0 805.9509,263.1094 L805.9509,217.7109 L795.9509,207.7109 L542.9275,207.7109 A0,0 0 0 0 542.9275,207.7109 " fill="#FEFFDD" style="stroke:#181818;stroke-width:0.5;"/><path d="M795.9509,207.7109 L795.9509,217.7109 L805.9509,217.7109 L795.9509,207.7109 " fill="#FEFFDD" style="stroke:#181818;stroke-width:0.5;"/><text fill="#000000" font-family="Microsoft YaHei" font-size="13" lengthAdjust="spacing" textLength="242.0234" x="548.9275" y="224.7778">python cli.py --config config.yaml init</text><text fill="#000000" font-family="Microsoft YaHei" font-size="13" lengthAdjust="spacing" textLength="127.7847" x="548.9275" y="239.9106">- &#21019;&#24314; memory/ &#30446;&#24405;</text><text fill="#000000" font-family="Microsoft YaHei" font-size="13" lengthAdjust="spacing" textLength="86.8232" x="548.9275" y="255.0435">- &#20445;&#23384;&#37197;&#32622;&#21103;&#26412;</text><rect fill="#F1F1F1" height="33.9688" rx="12.5" ry="12.5" style="stroke:#181818;stroke-width:0.5;" width="94.6074" x="428.3201" y="218.4258"/><text fill="#000000" font-family="Microsoft YaHei" font-size="12" lengthAdjust="spacing" textLength="74.6074" x="438.3201" y="239.5645">&#25191;&#34892; init &#21629;&#20196;</text><rect fill="#F1F1F1" height="33.9688" rx="12.5" ry="12.5" style="stroke:#181818;stroke-width:0.5;" width="80" x="825.9509" y="207.7109"/><text fill="#000000" font-family="Microsoft YaHei" font-size="12" lengthAdjust="spacing" textLength="60" x="835.9509" y="228.8496">&#36339;&#36807;&#21021;&#22987;&#21270;</text><polygon fill="#F1F1F1" points="670.7874,269.1094,682.7874,281.1094,670.7874,293.1094,658.7874,281.1094,670.7874,269.1094" style="stroke:#181818;stroke-width:0.5;"/><polygon fill="#F1F1F1" points="634.8682,313.1094,706.7065,313.1094,718.7065,325.1094,706.7065,337.1094,634.8682,337.1094,622.8682,325.1094,634.8682,313.1094" style="stroke:#181818;stroke-width:0.5;"/><text fill="#000000" font-family="Microsoft YaHei" font-size="11" lengthAdjust="spacing" textLength="71.8384" x="634.8682" y="328.9175">&#38656;&#35201;&#35760;&#24518;&#27169;&#26495;?</text><text fill="#000000" font-family="Microsoft YaHei" font-size="11" lengthAdjust="spacing" textLength="19.0083" x="603.8599" y="322.5151">yes</text><text fill="#000000" font-family="Microsoft YaHei" font-size="11" lengthAdjust="spacing" textLength="13.7017" x="718.7065" y="322.5151">no</text><path d="M522.4114,347.1094 L522.4114,370.8086 L502.4114,374.8086 L522.4114,378.8086 L522.4114,402.5078 A0,0 0 0 0 522.4114,402.5078 L839.3518,402.5078 A0,0 0 0 0 839.3518,402.5078 L839.3518,357.1094 L829.3518,347.1094 L522.4114,347.1094 A0,0 0 0 0 522.4114,347.1094 " fill="#FEFFDD" style="stroke:#181818;stroke-width:0.5;"/><path d="M829.3518,347.1094 L829.3518,357.1094 L839.3518,357.1094 L829.3518,347.1094 " fill="#FEFFDD" style="stroke:#181818;stroke-width:0.5;"/><text fill="#000000" font-family="Microsoft YaHei" font-size="13" lengthAdjust="spacing" textLength="295.9404" x="528.4114" y="364.1763">python cli.py --config config.yaml init-context</text><text fill="#000000" font-family="Microsoft YaHei" font-size="13" lengthAdjust="spacing" textLength="121.856" x="528.4114" y="379.3091">- &#21019;&#24314; MEMORY.md</text><text fill="#000000" font-family="Microsoft YaHei" font-size="13" lengthAdjust="spacing" textLength="112.8232" x="528.4114" y="394.4419">- &#21019;&#24314;&#35760;&#24518;&#27169;&#26495;&#25991;&#20214;</text><rect fill="#F1F1F1" height="33.9688" rx="12.5" ry="12.5" style="stroke:#181818;stroke-width:0.5;" width="144.377" x="358.0344" y="357.8242"/><text fill="#000000" font-family="Microsoft YaHei" font-size="12" lengthAdjust="spacing" textLength="124.377" x="368.0344" y="378.9629">&#25191;&#34892; init-context &#21629;&#20196;</text><rect fill="#F1F1F1" height="33.9688" rx="12.5" ry="12.5" style="stroke:#181818;stroke-width:0.5;" width="104" x="859.3518" y="347.1094"/><text fill="#000000" font-family="Microsoft YaHei" font-size="12" lengthAdjust="spacing" textLength="84" x="869.3518" y="368.248">&#36339;&#36807;&#27169;&#26495;&#21021;&#22987;&#21270;</text><polygon fill="#F1F1F1" points="670.7874,408.5078,682.7874,420.5078,670.7874,432.5078,658.7874,420.5078,670.7874,408.5078" style="stroke:#181818;stroke-width:0.5;"/><rect fill="#90EE90" height="402.7578" style="stroke:#000000;stroke-width:1.5;" width="996.6509" x="366.5483" y="454.5078"/><path d="M432.5483,454.5078 L432.5483,463.8047 L422.5483,473.8047 L366.5483,473.8047 " fill="none" style="stroke:#000000;stroke-width:1.5;"/><text fill="#000000" font-family="Microsoft YaHei" font-size="14" font-weight="bold" lengthAdjust="spacing" textLength="56" x="369.5483" y="468.5029">&#25191;&#34892;&#38454;&#27573;</text><polygon fill="#F1F1F1" points="645.8682,490.8047,695.7065,490.8047,707.7065,502.8047,695.7065,514.8047,645.8682,514.8047,633.8682,502.8047,645.8682,490.8047" style="stroke:#181818;stroke-width:0.5;"/><text fill="#000000" font-family="Microsoft YaHei" font-size="11" lengthAdjust="spacing" textLength="49.8384" x="645.8682" y="506.6128">&#25191;&#34892;&#27169;&#24335;?</text><text fill="#000000" font-family="Microsoft YaHei" font-size="11" lengthAdjust="spacing" textLength="33" x="600.8682" y="500.2104">&#21333;&#39033;&#30446;</text><text fill="#000000" font-family="Microsoft YaHei" font-size="11" lengthAdjust="spacing" textLength="33" x="707.7065" y="500.2104">&#22810;&#39033;&#30446;</text><path d="M532.5195,524.8047 L532.5195,556.0703 L512.5195,560.0703 L532.5195,564.0703 L532.5195,595.3359 A0,0 0 0 0 532.5195,595.3359 L796.8062,595.3359 A0,0 0 0 0 796.8062,595.3359 L796.8062,534.8047 L786.8062,524.8047 L532.5195,524.8047 A0,0 0 0 0 532.5195,524.8047 " fill="#FEFFDD" style="stroke:#181818;stroke-width:0.5;"/><path d="M786.8062,524.8047 L786.8062,534.8047 L796.8062,534.8047 L786.8062,524.8047 " fill="#FEFFDD" style="stroke:#181818;stroke-width:0.5;"/><text fill="#000000" font-family="Microsoft YaHei" font-size="13" lengthAdjust="spacing" textLength="243.2866" x="538.5195" y="541.8716">python cli.py --config config.yaml run</text><text fill="#000000" font-family="Microsoft YaHei" font-size="13" lengthAdjust="spacing" textLength="60.8232" x="538.5195" y="557.0044">- &#21152;&#36733;&#37197;&#32622;</text><text fill="#000000" font-family="Microsoft YaHei" font-size="13" lengthAdjust="spacing" textLength="73.8232" x="538.5195" y="572.1372">- &#21551;&#21160;&#35843;&#24230;&#22120;</text><text fill="#000000" font-family="Microsoft YaHei" font-size="13" lengthAdjust="spacing" textLength="86.8232" x="538.5195" y="587.27">- &#24490;&#29615;&#25191;&#34892;&#20219;&#21153;</text><rect fill="#F1F1F1" height="33.9688" rx="12.5" ry="12.5" style="stroke:#181818;stroke-width:0.5;" width="95.7734" x="416.7461" y="543.0859"/><text fill="#000000" font-family="Microsoft YaHei" font-size="12" lengthAdjust="spacing" textLength="75.7734" x="426.7461" y="564.2246">&#25191;&#34892; run &#21629;&#20196;</text><path d="M957.0776,524.8047 L957.0776,548.5039 L937.0776,552.5039 L957.0776,556.5039 L957.0776,580.2031 A0,0 0 0 0 957.0776,580.2031 L1351.1992,580.2031 A0,0 0 0 0 1351.1992,580.2031 L1351.1992,534.8047 L1341.1992,524.8047 L957.0776,524.8047 A0,0 0 0 0 957.0776,524.8047 " fill="#FEFFDD" style="stroke:#181818;stroke-width:0.5;"/><path d="M1341.1992,524.8047 L1341.1992,534.8047 L1351.1992,534.8047 L1341.1992,524.8047 " fill="#FEFFDD" style="stroke:#181818;stroke-width:0.5;"/><text fill="#000000" font-family="Microsoft YaHei" font-size="13" lengthAdjust="spacing" textLength="373.1216" x="963.0776" y="541.8716">python cli.py parallel --configs config1.yaml config2.yaml</text><text fill="#000000" font-family="Microsoft YaHei" font-size="13" lengthAdjust="spacing" textLength="112.8232" x="963.0776" y="557.0044">- &#24182;&#34892;&#25191;&#34892;&#22810;&#20010;&#39033;&#30446;</text><text fill="#000000" font-family="Microsoft YaHei" font-size="13" lengthAdjust="spacing" textLength="86.8232" x="963.0776" y="572.1372">- &#29420;&#31435;&#35760;&#24518;&#31354;&#38388;</text><rect fill="#F1F1F1" height="33.9688" rx="12.5" ry="12.5" style="stroke:#181818;stroke-width:0.5;" width="120.2715" x="816.8062" y="535.5195"/><text fill="#000000" font-family="Microsoft YaHei" font-size="12" lengthAdjust="spacing" textLength="100.2715" x="826.8062" y="556.6582">&#25191;&#34892; parallel &#21629;&#20196;</text><polygon fill="#F1F1F1" points="670.7874,601.3359,682.7874,613.3359,670.7874,625.3359,658.7874,613.3359,670.7874,601.3359" style="stroke:#181818;stroke-width:0.5;"/><polygon fill="#F1F1F1" points="645.8682,645.3359,695.7065,645.3359,707.7065,657.3359,695.7065,669.3359,645.8682,669.3359,633.8682,657.3359,645.8682,645.3359" style="stroke:#181818;stroke-width:0.5;"/><text fill="#000000" font-family="Microsoft YaHei" font-size="11" lengthAdjust="spacing" textLength="49.8384" x="645.8682" y="661.144">&#25191;&#34892;&#20013;&#26029;?</text><text fill="#000000" font-family="Microsoft YaHei" font-size="11" lengthAdjust="spacing" textLength="19.0083" x="614.8599" y="654.7417">yes</text><text fill="#000000" font-family="Microsoft YaHei" font-size="11" lengthAdjust="spacing" textLength="13.7017" x="707.7065" y="654.7417">no</text><path d="M549.1089,679.3359 L549.1089,710.6016 L529.1089,714.6016 L549.1089,718.6016 L549.1089,749.8672 A0,0 0 0 0 549.1089,749.8672 L635.1089,749.8672 A0,0 0 0 0 635.1089,749.8672 L635.1089,689.3359 L625.1089,679.3359 L549.1089,679.3359 A0,0 0 0 0 549.1089,679.3359 " fill="#FEFFDD" style="stroke:#181818;stroke-width:0.5;"/><path d="M625.1089,679.3359 L625.1089,689.3359 L635.1089,689.3359 L625.1089,679.3359 " fill="#FEFFDD" style="stroke:#181818;stroke-width:0.5;"/><text fill="#000000" font-family="Microsoft YaHei" font-size="13" lengthAdjust="spacing" textLength="65" x="555.1089" y="696.4028">&#33258;&#21160;&#20445;&#23384;&#65306;</text><text fill="#000000" font-family="Microsoft YaHei" font-size="13" lengthAdjust="spacing" textLength="60.8232" x="555.1089" y="711.5356">- &#24403;&#21069;&#36718;&#27425;</text><text fill="#000000" font-family="Microsoft YaHei" font-size="13" lengthAdjust="spacing" textLength="60.8232" x="555.1089" y="726.6685">- &#20219;&#21153;&#38431;&#21015;</text><text fill="#000000" font-family="Microsoft YaHei" font-size="13" lengthAdjust="spacing" textLength="60.8232" x="555.1089" y="741.8013">- &#25191;&#34892;&#21382;&#21490;</text><rect fill="#F1F1F1" height="33.9688" rx="12.5" ry="12.5" style="stroke:#181818;stroke-width:0.5;" width="142.5605" x="386.5483" y="697.6172"/><text fill="#000000" font-family="Microsoft YaHei" font-size="12" lengthAdjust="spacing" textLength="122.5605" x="396.5483" y="718.7559">&#20445;&#23384;&#29366;&#24577;&#21040; state.json</text><path d="M538.2661,759.8672 L538.2661,783.5664 L518.2661,787.5664 L538.2661,791.5664 L538.2661,815.2656 A0,0 0 0 0 538.2661,815.2656 L829.7461,815.2656 A0,0 0 0 0 829.7461,815.2656 L829.7461,769.8672 L819.7461,759.8672 L538.2661,759.8672 A0,0 0 0 0 538.2661,759.8672 " fill="#FEFFDD" style="stroke:#181818;stroke-width:0.5;"/><path d="M819.7461,759.8672 L819.7461,769.8672 L829.7461,769.8672 L819.7461,759.8672 " fill="#FEFFDD" style="stroke:#181818;stroke-width:0.5;"/><text fill="#000000" font-family="Microsoft YaHei" font-size="13" lengthAdjust="spacing" textLength="270.48" x="544.2661" y="776.9341">python cli.py --config config.yaml resume</text><text fill="#000000" font-family="Microsoft YaHei" font-size="13" lengthAdjust="spacing" textLength="119.7295" x="544.2661" y="792.0669">- &#20174; state.json &#24674;&#22797;</text><text fill="#000000" font-family="Microsoft YaHei" font-size="13" lengthAdjust="spacing" textLength="60.8232" x="544.2661" y="807.1997">- &#32487;&#32493;&#25191;&#34892;</text><rect fill="#F1F1F1" height="33.9688" rx="12.5" ry="12.5" style="stroke:#181818;stroke-width:0.5;" width="120.875" x="397.3911" y="770.582"/><text fill="#000000" font-family="Microsoft YaHei" font-size="12" lengthAdjust="spacing" textLength="100.875" x="407.3911" y="791.7207">&#25191;&#34892; resume &#21629;&#20196;</text><rect fill="#F1F1F1" height="33.9688" rx="12.5" ry="12.5" style="stroke:#181818;stroke-width:0.5;" width="68" x="849.7461" y="679.3359"/><text fill="#000000" font-family="Microsoft YaHei" font-size="12" lengthAdjust="spacing" textLength="48" x="859.7461" y="700.4746">&#27491;&#24120;&#23436;&#25104;</text><polygon fill="#F1F1F1" points="670.7874,821.2656,682.7874,833.2656,670.7874,845.2656,658.7874,833.2656,670.7874,821.2656" style="stroke:#181818;stroke-width:0.5;"/><rect fill="#FFFFE0" height="145.6953" style="stroke:#000000;stroke-width:1.5;" width="1321.5747" x="11" y="867.2656"/><path d="M77,867.2656 L77,876.5625 L67,886.5625 L11,886.5625 " fill="none" style="stroke:#000000;stroke-width:1.5;"/><text fill="#000000" font-family="Microsoft YaHei" font-size="14" font-weight="bold" lengthAdjust="spacing" textLength="56" x="14" y="881.2607">&#31649;&#29702;&#38454;&#27573;</text><rect fill="#555555" height="6" rx="2.5" ry="2.5" style="stroke:#555555;stroke-width:1;" width="1301.5747" x="21" y="903.5625"/><path d="M165.502,919.5625 L165.502,943.2617 L145.502,947.2617 L165.502,951.2617 L165.502,974.9609 A0,0 0 0 0 165.502,974.9609 L447.9111,974.9609 A0,0 0 0 0 447.9111,974.9609 L447.9111,929.5625 L437.9111,919.5625 L165.502,919.5625 A0,0 0 0 0 165.502,919.5625 " fill="#FEFFDD" style="stroke:#181818;stroke-width:0.5;"/><path d="M437.9111,919.5625 L437.9111,929.5625 L447.9111,929.5625 L437.9111,919.5625 " fill="#FEFFDD" style="stroke:#181818;stroke-width:0.5;"/><text fill="#000000" font-family="Microsoft YaHei" font-size="13" lengthAdjust="spacing" textLength="261.4092" x="171.502" y="936.6294">python cli.py --config config.yaml status</text><text fill="#000000" font-family="Microsoft YaHei" font-size="13" lengthAdjust="spacing" textLength="86.8232" x="171.502" y="951.7622">- &#26597;&#30475;&#24403;&#21069;&#29366;&#24577;</text><text fill="#000000" font-family="Microsoft YaHei" font-size="13" lengthAdjust="spacing" textLength="86.8232" x="171.502" y="966.895">- &#26174;&#31034;&#25191;&#34892;&#36827;&#24230;</text><rect fill="#F1F1F1" height="33.9688" rx="12.5" ry="12.5" style="stroke:#181818;stroke-width:0.5;" width="112.502" x="33" y="930.2773"/><text fill="#000000" font-family="Microsoft YaHei" font-size="12" lengthAdjust="spacing" textLength="92.502" x="43" y="951.416">&#25191;&#34892; status &#21629;&#20196;</text><path d="M602.5537,919.5625 L602.5537,943.2617 L582.5537,947.2617 L602.5537,951.2617 L602.5537,974.9609 A0,0 0 0 0 602.5537,974.9609 L878.6152,974.9609 A0,0 0 0 0 878.6152,974.9609 L878.6152,929.5625 L868.6152,919.5625 L602.5537,919.5625 A0,0 0 0 0 602.5537,919.5625 " fill="#FEFFDD" style="stroke:#181818;stroke-width:0.5;"/><path d="M868.6152,919.5625 L868.6152,929.5625 L878.6152,929.5625 L868.6152,919.5625 " fill="#FEFFDD" style="stroke:#181818;stroke-width:0.5;"/><text fill="#000000" font-family="Microsoft YaHei" font-size="13" lengthAdjust="spacing" textLength="255.0615" x="608.5537" y="936.6294">python cli.py --config config.yaml show</text><text fill="#000000" font-family="Microsoft YaHei" font-size="13" lengthAdjust="spacing" textLength="86.8232" x="608.5537" y="951.7622">- &#26597;&#30475;&#21382;&#21490;&#35760;&#24405;</text><text fill="#000000" font-family="Microsoft YaHei" font-size="13" lengthAdjust="spacing" textLength="86.8232" x="608.5537" y="966.895">- &#26174;&#31034;&#30693;&#35782;&#27785;&#28096;</text><rect fill="#F1F1F1" height="33.9688" rx="12.5" ry="12.5" style="stroke:#181818;stroke-width:0.5;" width="106.6426" x="475.9111" y="930.2773"/><text fill="#000000" font-family="Microsoft YaHei" font-size="12" lengthAdjust="spacing" textLength="86.6426" x="485.9111" y="951.416">&#25191;&#34892; show &#21629;&#20196;</text><path d="M1032.9004,919.5625 L1032.9004,943.2617 L1012.9004,947.2617 L1032.9004,951.2617 L1032.9004,974.9609 A0,0 0 0 0 1032.9004,974.9609 L1308.5747,974.9609 A0,0 0 0 0 1308.5747,974.9609 L1308.5747,929.5625 L1298.5747,919.5625 L1032.9004,919.5625 A0,0 0 0 0 1032.9004,919.5625 " fill="#FEFFDD" style="stroke:#181818;stroke-width:0.5;"/><path d="M1298.5747,919.5625 L1298.5747,929.5625 L1308.5747,929.5625 L1298.5747,919.5625 " fill="#FEFFDD" style="stroke:#181818;stroke-width:0.5;"/><text fill="#000000" font-family="Microsoft YaHei" font-size="13" lengthAdjust="spacing" textLength="254.6743" x="1038.9004" y="936.6294">python cli.py --config config.yaml reset</text><text fill="#000000" font-family="Microsoft YaHei" font-size="13" lengthAdjust="spacing" textLength="60.8232" x="1038.9004" y="951.7622">- &#28165;&#31354;&#29366;&#24577;</text><text fill="#000000" font-family="Microsoft YaHei" font-size="13" lengthAdjust="spacing" textLength="60.8232" x="1038.9004" y="966.895">- &#37325;&#26032;&#24320;&#22987;</text><rect fill="#F1F1F1" height="33.9688" rx="12.5" ry="12.5" style="stroke:#181818;stroke-width:0.5;" width="106.2852" x="906.6152" y="930.2773"/><text fill="#000000" font-family="Microsoft YaHei" font-size="12" lengthAdjust="spacing" textLength="86.2852" x="916.6152" y="951.416">&#25191;&#34892; reset &#21629;&#20196;</text><rect fill="#555555" height="6" rx="2.5" ry="2.5" style="stroke:#555555;stroke-width:1;" width="1301.5747" x="21" y="994.9609"/><rect fill="#FFC0CB" height="96.6953" style="stroke:#000000;stroke-width:1.5;" width="366.3696" x="589.0002" y="1022.9609"/><path d="M655.0002,1022.9609 L655.0002,1032.2578 L645.0002,1042.2578 L589.0002,1042.2578 " fill="none" style="stroke:#000000;stroke-width:1.5;"/><text fill="#000000" font-family="Microsoft YaHei" font-size="14" font-weight="bold" lengthAdjust="spacing" textLength="56" x="592.0002" y="1036.9561">&#36741;&#21161;&#24037;&#20855;</text><path d="M762.5745,1052.2578 L762.5745,1075.957 L742.5745,1079.957 L762.5745,1083.957 L762.5745,1107.6563 A0,0 0 0 0 762.5745,1107.6563 L945.3699,1107.6563 A0,0 0 0 0 945.3699,1107.6563 L945.3699,1062.2578 L935.3699,1052.2578 L762.5745,1052.2578 A0,0 0 0 0 762.5745,1052.2578 " fill="#FEFFDD" style="stroke:#181818;stroke-width:0.5;"/><path d="M935.3699,1052.2578 L935.3699,1062.2578 L945.3699,1062.2578 L935.3699,1052.2578 " fill="#FEFFDD" style="stroke:#181818;stroke-width:0.5;"/><text fill="#000000" font-family="Microsoft YaHei" font-size="13" lengthAdjust="spacing" textLength="161.7954" x="768.5745" y="1069.3247">python cli.py create-task</text><text fill="#000000" font-family="Microsoft YaHei" font-size="13" lengthAdjust="spacing" textLength="99.8232" x="768.5745" y="1084.4575">- &#20132;&#20114;&#24335;&#21019;&#24314;&#37197;&#32622;</text><text fill="#000000" font-family="Microsoft YaHei" font-size="13" lengthAdjust="spacing" textLength="100.2485" x="768.5745" y="1099.5903">- &#33258;&#21160;&#29983;&#25104; YAML</text><rect fill="#F1F1F1" height="33.9688" rx="12.5" ry="12.5" style="stroke:#181818;stroke-width:0.5;" width="143.5742" x="599.0002" y="1062.9727"/><text fill="#000000" font-family="Microsoft YaHei" font-size="12" lengthAdjust="spacing" textLength="123.5742" x="609.0002" y="1084.1113">&#25191;&#34892; create-task &#21629;&#20196;</text><ellipse cx="670.7874" cy="1150.6563" fill="none" rx="11" ry="11" style="stroke:#222222;stroke-width:1;"/><ellipse cx="670.7874" cy="1150.6563" fill="#222222" rx="6" ry="6" style="stroke:#222222;stroke-width:1;"/><line style="stroke:#181818;stroke-width:1;" x1="617.3682" x2="475.6238" y1="185.7109" y2="185.7109"/><line style="stroke:#181818;stroke-width:1;" x1="475.6238" x2="475.6238" y1="185.7109" y2="218.4258"/><polygon fill="#181818" points="471.6238,208.4258,475.6238,218.4258,479.6238,208.4258,475.6238,212.4258" style="stroke:#181818;stroke-width:1;"/><line style="stroke:#181818;stroke-width:1;" x1="724.2065" x2="865.9509" y1="185.7109" y2="185.7109"/><line style="stroke:#181818;stroke-width:1;" x1="865.9509" x2="865.9509" y1="185.7109" y2="207.7109"/><polygon fill="#181818" points="861.9509,197.7109,865.9509,207.7109,869.9509,197.7109,865.9509,201.7109" style="stroke:#181818;stroke-width:1;"/><line style="stroke:#181818;stroke-width:1;" x1="475.6238" x2="475.6238" y1="252.3945" y2="281.1094"/><line style="stroke:#181818;stroke-width:1;" x1="475.6238" x2="658.7874" y1="281.1094" y2="281.1094"/><polygon fill="#181818" points="648.7874,277.1094,658.7874,281.1094,648.7874,285.1094,652.7874,281.1094" style="stroke:#181818;stroke-width:1;"/><line style="stroke:#181818;stroke-width:1;" x1="865.9509" x2="865.9509" y1="241.6797" y2="281.1094"/><line style="stroke:#181818;stroke-width:1;" x1="865.9509" x2="682.7874" y1="281.1094" y2="281.1094"/><polygon fill="#181818" points="692.7874,277.1094,682.7874,281.1094,692.7874,285.1094,688.7874,281.1094" style="stroke:#181818;stroke-width:1;"/><line style="stroke:#181818;stroke-width:1;" x1="670.7874" x2="670.7874" y1="150.5625" y2="173.7109"/><polygon fill="#181818" points="666.7874,163.7109,670.7874,173.7109,674.7874,163.7109,670.7874,167.7109" style="stroke:#181818;stroke-width:1;"/><line style="stroke:#181818;stroke-width:1;" x1="622.8682" x2="430.2229" y1="325.1094" y2="325.1094"/><line style="stroke:#181818;stroke-width:1;" x1="430.2229" x2="430.2229" y1="325.1094" y2="357.8242"/><polygon fill="#181818" points="426.2229,347.8242,430.2229,357.8242,434.2229,347.8242,430.2229,351.8242" style="stroke:#181818;stroke-width:1;"/><line style="stroke:#181818;stroke-width:1;" x1="718.7065" x2="911.3518" y1="325.1094" y2="325.1094"/><line style="stroke:#181818;stroke-width:1;" x1="911.3518" x2="911.3518" y1="325.1094" y2="347.1094"/><polygon fill="#181818" points="907.3518,337.1094,911.3518,347.1094,915.3518,337.1094,911.3518,341.1094" style="stroke:#181818;stroke-width:1;"/><line style="stroke:#181818;stroke-width:1;" x1="430.2229" x2="430.2229" y1="391.793" y2="420.5078"/><line style="stroke:#181818;stroke-width:1;" x1="430.2229" x2="658.7874" y1="420.5078" y2="420.5078"/><polygon fill="#181818" points="648.7874,416.5078,658.7874,420.5078,648.7874,424.5078,652.7874,420.5078" style="stroke:#181818;stroke-width:1;"/><line style="stroke:#181818;stroke-width:1;" x1="911.3518" x2="911.3518" y1="381.0781" y2="420.5078"/><line style="stroke:#181818;stroke-width:1;" x1="911.3518" x2="682.7874" y1="420.5078" y2="420.5078"/><polygon fill="#181818" points="692.7874,416.5078,682.7874,420.5078,692.7874,424.5078,688.7874,420.5078" style="stroke:#181818;stroke-width:1;"/><line style="stroke:#181818;stroke-width:1;" x1="670.7874" x2="670.7874" y1="293.1094" y2="313.1094"/><polygon fill="#181818" points="666.7874,303.1094,670.7874,313.1094,674.7874,303.1094,670.7874,307.1094" style="stroke:#181818;stroke-width:1;"/><line style="stroke:#181818;stroke-width:1;" x1="670.7874" x2="670.7874" y1="67.2969" y2="116.5938"/><polygon fill="#181818" points="666.7874,106.5938,670.7874,116.5938,674.7874,106.5938,670.7874,110.5938" style="stroke:#181818;stroke-width:1;"/><line style="stroke:#181818;stroke-width:1;" x1="633.8682" x2="464.6328" y1="502.8047" y2="502.8047"/><line style="stroke:#181818;stroke-width:1;" x1="464.6328" x2="464.6328" y1="502.8047" y2="543.0859"/><polygon fill="#181818" points="460.6328,533.0859,464.6328,543.0859,468.6328,533.0859,464.6328,537.0859" style="stroke:#181818;stroke-width:1;"/><line style="stroke:#181818;stroke-width:1;" x1="707.7065" x2="876.9419" y1="502.8047" y2="502.8047"/><line style="stroke:#181818;stroke-width:1;" x1="876.9419" x2="876.9419" y1="502.8047" y2="535.5195"/><polygon fill="#181818" points="872.9419,525.5195,876.9419,535.5195,880.9419,525.5195,876.9419,529.5195" style="stroke:#181818;stroke-width:1;"/><line style="stroke:#181818;stroke-width:1;" x1="464.6328" x2="464.6328" y1="577.0547" y2="613.3359"/><line style="stroke:#181818;stroke-width:1;" x1="464.6328" x2="658.7874" y1="613.3359" y2="613.3359"/><polygon fill="#181818" points="648.7874,609.3359,658.7874,613.3359,648.7874,617.3359,652.7874,613.3359" style="stroke:#181818;stroke-width:1;"/><line style="stroke:#181818;stroke-width:1;" x1="876.9419" x2="876.9419" y1="569.4883" y2="613.3359"/><line style="stroke:#181818;stroke-width:1;" x1="876.9419" x2="682.7874" y1="613.3359" y2="613.3359"/><polygon fill="#181818" points="692.7874,609.3359,682.7874,613.3359,692.7874,617.3359,688.7874,613.3359" style="stroke:#181818;stroke-width:1;"/><line style="stroke:#181818;stroke-width:1;" x1="457.8286" x2="457.8286" y1="731.5859" y2="770.582"/><polygon fill="#181818" points="453.8286,760.582,457.8286,770.582,461.8286,760.582,457.8286,764.582" style="stroke:#181818;stroke-width:1;"/><line style="stroke:#181818;stroke-width:1;" x1="633.8682" x2="457.8286" y1="657.3359" y2="657.3359"/><line style="stroke:#181818;stroke-width:1;" x1="457.8286" x2="457.8286" y1="657.3359" y2="697.6172"/><polygon fill="#181818" points="453.8286,687.6172,457.8286,697.6172,461.8286,687.6172,457.8286,691.6172" style="stroke:#181818;stroke-width:1;"/><line style="stroke:#181818;stroke-width:1;" x1="707.7065" x2="883.7461" y1="657.3359" y2="657.3359"/><line style="stroke:#181818;stroke-width:1;" x1="883.7461" x2="883.7461" y1="657.3359" y2="679.3359"/><polygon fill="#181818" points="879.7461,669.3359,883.7461,679.3359,887.7461,669.3359,883.7461,673.3359" style="stroke:#181818;stroke-width:1;"/><line style="stroke:#181818;stroke-width:1;" x1="457.8286" x2="457.8286" y1="804.5508" y2="833.2656"/><line style="stroke:#181818;stroke-width:1;" x1="457.8286" x2="658.7874" y1="833.2656" y2="833.2656"/><polygon fill="#181818" points="648.7874,829.2656,658.7874,833.2656,648.7874,837.2656,652.7874,833.2656" style="stroke:#181818;stroke-width:1;"/><line style="stroke:#181818;stroke-width:1;" x1="883.7461" x2="883.7461" y1="713.3047" y2="833.2656"/><line style="stroke:#181818;stroke-width:1;" x1="883.7461" x2="682.7874" y1="833.2656" y2="833.2656"/><polygon fill="#181818" points="692.7874,829.2656,682.7874,833.2656,692.7874,837.2656,688.7874,833.2656" style="stroke:#181818;stroke-width:1;"/><line style="stroke:#181818;stroke-width:1;" x1="670.7874" x2="670.7874" y1="625.3359" y2="645.3359"/><polygon fill="#181818" points="666.7874,635.3359,670.7874,645.3359,674.7874,635.3359,670.7874,639.3359" style="stroke:#181818;stroke-width:1;"/><line style="stroke:#181818;stroke-width:1;" x1="670.7874" x2="670.7874" y1="432.5078" y2="490.8047"/><polygon fill="#181818" points="666.7874,480.8047,670.7874,490.8047,674.7874,480.8047,670.7874,484.8047" style="stroke:#181818;stroke-width:1;"/><line style="stroke:#181818;stroke-width:1;" x1="89.251" x2="89.251" y1="909.5625" y2="930.2773"/><polygon fill="#181818" points="85.251,920.2773,89.251,930.2773,93.251,920.2773,89.251,924.2773" style="stroke:#181818;stroke-width:1;"/><line style="stroke:#181818;stroke-width:1;" x1="529.2324" x2="529.2324" y1="909.5625" y2="930.2773"/><polygon fill="#181818" points="525.2324,920.2773,529.2324,930.2773,533.2324,920.2773,529.2324,924.2773" style="stroke:#181818;stroke-width:1;"/><line style="stroke:#181818;stroke-width:1;" x1="959.7578" x2="959.7578" y1="909.5625" y2="930.2773"/><polygon fill="#181818" points="955.7578,920.2773,959.7578,930.2773,963.7578,920.2773,959.7578,924.2773" style="stroke:#181818;stroke-width:1;"/><line style="stroke:#181818;stroke-width:1;" x1="89.251" x2="89.251" y1="964.2461" y2="994.9609"/><polygon fill="#181818" points="85.251,984.9609,89.251,994.9609,93.251,984.9609,89.251,988.9609" style="stroke:#181818;stroke-width:1;"/><line style="stroke:#181818;stroke-width:1;" x1="529.2324" x2="529.2324" y1="964.2461" y2="994.9609"/><polygon fill="#181818" points="525.2324,984.9609,529.2324,994.9609,533.2324,984.9609,529.2324,988.9609" style="stroke:#181818;stroke-width:1;"/><line style="stroke:#181818;stroke-width:1;" x1="959.7578" x2="959.7578" y1="964.2461" y2="994.9609"/><polygon fill="#181818" points="955.7578,984.9609,959.7578,994.9609,963.7578,984.9609,959.7578,988.9609" style="stroke:#181818;stroke-width:1;"/><line style="stroke:#181818;stroke-width:1;" x1="670.7874" x2="670.7874" y1="845.2656" y2="903.5625"/><polygon fill="#181818" points="666.7874,893.5625,670.7874,903.5625,674.7874,893.5625,670.7874,897.5625" style="stroke:#181818;stroke-width:1;"/><line style="stroke:#181818;stroke-width:1;" x1="670.7874" x2="670.7874" y1="1000.9609" y2="1062.9727"/><polygon fill="#181818" points="666.7874,1052.9727,670.7874,1062.9727,674.7874,1052.9727,670.7874,1056.9727" style="stroke:#181818;stroke-width:1;"/><line style="stroke:#181818;stroke-width:1;" x1="670.7874" x2="670.7874" y1="1096.9414" y2="1139.6563"/><polygon fill="#181818" points="666.7874,1129.6563,670.7874,1139.6563,674.7874,1129.6563,670.7874,1133.6563" style="stroke:#181818;stroke-width:1;"/><rect fill="none" height="95.4844" id="_legend" rx="7.5" ry="7.5" style="stroke:#000000;stroke-width:1;" width="126.6484" x="1222.5508" y="1172.6563"/><text fill="#000000" font-family="Microsoft YaHei" font-size="14" font-weight="bold" lengthAdjust="spacing" textLength="28" x="1232.4248" y="1192.6514">&#39068;&#33394;</text><text fill="#000000" font-family="Microsoft YaHei" font-size="14" font-weight="bold" lengthAdjust="spacing" textLength="28" x="1270.1729" y="1192.6514">&#38454;&#27573;</text><rect fill="#E0FFFF" height="16.2969" style="stroke:none;stroke-width:1;" width="37.748" x="1227.5508" y="1195.9531"/><text fill="#000000" font-family="Microsoft YaHei" font-size="14" lengthAdjust="spacing" textLength="4.4502" x="1227.5508" y="1208.9482">&#160;</text><text fill="#000000" font-family="Microsoft YaHei" font-size="14" lengthAdjust="spacing" textLength="70" x="1269.749" y="1208.9482">&#21021;&#22987;&#21270;&#38454;&#27573;</text><rect fill="#90EE90" height="16.2969" style="stroke:none;stroke-width:1;" width="37.748" x="1227.5508" y="1212.25"/><text fill="#000000" font-family="Microsoft YaHei" font-size="14" lengthAdjust="spacing" textLength="4.4502" x="1227.5508" y="1225.2451">&#160;</text><text fill="#000000" font-family="Microsoft YaHei" font-size="14" lengthAdjust="spacing" textLength="56" x="1269.749" y="1225.2451">&#25191;&#34892;&#38454;&#27573;</text><rect fill="#FFFFE0" height="16.2969" style="stroke:none;stroke-width:1;" width="37.748" x="1227.5508" y="1228.5469"/><text fill="#000000" font-family="Microsoft YaHei" font-size="14" lengthAdjust="spacing" textLength="4.4502" x="1227.5508" y="1241.542">&#160;</text><text fill="#000000" font-family="Microsoft YaHei" font-size="14" lengthAdjust="spacing" textLength="56" x="1269.749" y="1241.542">&#31649;&#29702;&#38454;&#27573;</text><rect fill="#FFC0CB" height="16.2969" style="stroke:none;stroke-width:1;" width="37.748" x="1227.5508" y="1244.8438"/><text fill="#000000" font-family="Microsoft YaHei" font-size="14" lengthAdjust="spacing" textLength="4.4502" x="1227.5508" y="1257.8389">&#160;</text><text fill="#000000" font-family="Microsoft YaHei" font-size="14" lengthAdjust="spacing" textLength="56" x="1269.749" y="1257.8389">&#36741;&#21161;&#24037;&#20855;</text><line style="stroke:#000000;stroke-width:1;" x1="1227.5508" x2="1344.1992" y1="1179.6563" y2="1179.6563"/><line style="stroke:#000000;stroke-width:1;" x1="1227.5508" x2="1344.1992" y1="1195.9531" y2="1195.9531"/><line style="stroke:#000000;stroke-width:1;" x1="1227.5508" x2="1344.1992" y1="1212.25" y2="1212.25"/><line style="stroke:#000000;stroke-width:1;" x1="1227.5508" x2="1344.1992" y1="1228.5469" y2="1228.5469"/><line style="stroke:#000000;stroke-width:1;" x1="1227.5508" x2="1344.1992" y1="1244.8438" y2="1244.8438"/><line style="stroke:#000000;stroke-width:1;" x1="1227.5508" x2="1344.1992" y1="1261.1406" y2="1261.1406"/><line style="stroke:#000000;stroke-width:1;" x1="1227.5508" x2="1227.5508" y1="1179.6563" y2="1261.1406"/><line style="stroke:#000000;stroke-width:1;" x1="1265.2988" x2="1265.2988" y1="1179.6563" y2="1261.1406"/><line style="stroke:#000000;stroke-width:1;" x1="1344.1992" x2="1344.1992" y1="1179.6563" y2="1261.1406"/><!--SRC=[hLPTKnit57tVNw597agOCPtsiL0oQQOV3w7jz8t7hP7jhTUxT5TkuYcPWNRyZO4sWL0-XZermQ7OUA31niRuprZQzLF-GhNIsfRNc9OP-ydIlTAUStIFhiomeYtAXXm1tyl-SD3Gezh2OrtL3V0qf20ecRtu0Wp8KHLzeMleQpa2mPpYDtHJ3o0mBty55Kb22b8XmByrsuq2IH_P-LNoRiKgPjkrDHm_jyuRalG1mEMTzcMw4y_PwJDXSzcFb9yK50C_Iu3-FXl4CZEZQ0gQdGLFb608FOx9sirPy1dqTxE-D20SaHQHDJa8kudpK5NrfpTd_XY5HemcVgjeOUcv99b8Df0aKSoKhA9huDxa94xjuwCiNjtgR5-Gyhl9oNlWVW-do-SJwsMHfAeucS2592LlDSjaAzbkN4opiAOZ20nd3HlYr2vkr85Vrm9AS2ecHrG-pQHhDneuayVhlv3D2fk6sWBRG68Z9G0cEdlBzfkLFgxyfRLRVlW0e13Km4GCcWzOAWF63meu-hf7DzqBUc0vlyKO2b7QVbMPMem1duzZ5A6ohNhvlYwP28peHkn3G97WvgOGRxVsSMcRQuBJfsJlf1ViCMC3rOHWGjC5x7Rrt6ubUpodkt8e0QyMThc2MmbIp9FzrdyBuR12yDau1UbkEIpCtETpttmtFnLP60g9e7crt54PllH6VPvxYfYpzrOmyv1RmewOhgkBUNortfCHvpPvXGsBQKIrCMb8TnBroVnfDvkyPiJfZLESATgLNt7z3VwZA4QkZwsrKuwA6-WsAN5XPnGZvxPILQZUdLPlPPUVwHByY3FaWu_xTdUHNruuahElKrpjsZ679gHOsHFhxool5kjjlVFgdn7a1ftXgb4haQtI24zmRrgP2x9ChvCAeDSVWbC_cBfsAt4xUKpFWIz-VxKZicc-mEcSJM-_axnu1x0ZwMmVuDGhOTfblPR0wsV3b8Qh3PhH21nNmR7D1Z2k2Vm1MNcD2pdn51f7LgF4eVnldvBINxXMm-LLajgupPvMEMzj9Bpsv9tBzMT0Dy93aZY0e-QO9E6RYUTpS6ZjPVcPyY8HWzlNLg7ESTYjNMh9crLnS0CvA2lQCFeGPJScx26tnGyWPvNb66UW8t7ari6XVPeWPsbINRupSbez48sl4g7ODqWjJbq-f7SdcIDR5NorJ2_xaVxdLUAjBliwZZDlSVKGnwkikfpdJlVbuZBo6v3MlW_9PdY0buVJ81zXaUIwg5vert-dxOEtEE4AzxdNXlNoW9e1p3-QUpBul67FBtrHabGOT2Rx7rtw57HUxz479Vl7J0AMU6Ic_nIRNGAUfvedYNKxcYNsGayATnpD4GtPpt5qeq5HJngaO3bawLy0]--></g></svg>