<svg xmlns="http://www.w3.org/2000/svg" xmlns:xlink="http://www.w3.org/1999/xlink" contentStyleType="text/css" height="1470px" preserveAspectRatio="none" style="width:769px;height:1470px;background:#FFFFFF;" version="1.1" viewBox="0 0 769 1470" width="769px" zoomAndPan="magnify"><title>&#37197;&#32622;&#25991;&#20214;&#24037;&#20316;&#27969;&#31243;</title><defs/><g><text fill="#000000" font-family="Microsoft YaHei" font-size="14" font-weight="bold" lengthAdjust="spacing" textLength="112" x="324.5828" y="27.9951">&#37197;&#32622;&#25991;&#20214;&#24037;&#20316;&#27969;&#31243;</text><rect fill="none" height="177.6016" style="stroke:#000000;stroke-width:1.5;" width="595.0093" x="10" y="673.25"/><rect fill="none" height="88.3984" style="stroke:#000000;stroke-width:1.5;" width="280.9834" x="403.2378" y="1053.6484"/><line style="stroke:#181818;stroke-width:0.5;stroke-dasharray:5.0,5.0;" x1="37" x2="37" y1="118.5938" y2="1389.9766"/><line style="stroke:#181818;stroke-width:0.5;stroke-dasharray:5.0,5.0;" x1="257.8013" x2="257.8013" y1="118.5938" y2="1389.9766"/><line style="stroke:#181818;stroke-width:0.5;stroke-dasharray:5.0,5.0;" x1="349.1187" x2="349.1187" y1="118.5938" y2="1389.9766"/><line style="stroke:#181818;stroke-width:0.5;stroke-dasharray:5.0,5.0;" x1="455.2378" x2="455.2378" y1="118.5938" y2="1389.9766"/><line style="stroke:#181818;stroke-width:0.5;stroke-dasharray:5.0,5.0;" x1="550.3267" x2="550.3267" y1="118.5938" y2="1389.9766"/><line style="stroke:#181818;stroke-width:0.5;stroke-dasharray:5.0,5.0;" x1="639.0093" x2="639.0093" y1="118.5938" y2="1389.9766"/><text fill="#000000" font-family="Microsoft YaHei" font-size="14" lengthAdjust="spacing" textLength="28" x="20" y="115.292">&#29992;&#25143;</text><ellipse cx="37" cy="50.7969" fill="#E2E2F0" rx="8" ry="8" style="stroke:#181818;stroke-width:0.5;"/><path d="M37,58.7969 L37,85.7969 M24,66.7969 L50,66.7969 M37,85.7969 L24,100.7969 M37,85.7969 L50,100.7969 " fill="none" style="stroke:#181818;stroke-width:0.5;"/><text fill="#000000" font-family="Microsoft YaHei" font-size="14" lengthAdjust="spacing" textLength="28" x="20" y="1401.9717">&#29992;&#25143;</text><ellipse cx="37" cy="1413.7734" fill="#E2E2F0" rx="8" ry="8" style="stroke:#181818;stroke-width:0.5;"/><path d="M37,1421.7734 L37,1448.7734 M24,1429.7734 L50,1429.7734 M37,1448.7734 L24,1463.7734 M37,1448.7734 L50,1463.7734 " fill="none" style="stroke:#181818;stroke-width:0.5;"/><rect fill="#E2E2F0" height="30.2969" rx="2.5" ry="2.5" style="stroke:#181818;stroke-width:0.5;" width="35.7041" x="240.8013" y="87.2969"/><text fill="#000000" font-family="Microsoft YaHei" font-size="14" lengthAdjust="spacing" textLength="21.7041" x="247.8013" y="107.292">CLI</text><rect fill="#E2E2F0" height="30.2969" rx="2.5" ry="2.5" style="stroke:#181818;stroke-width:0.5;" width="35.7041" x="240.8013" y="1388.9766"/><text fill="#000000" font-family="Microsoft YaHei" font-size="14" lengthAdjust="spacing" textLength="21.7041" x="247.8013" y="1408.9717">CLI</text><rect fill="#E2E2F0" height="30.2969" rx="2.5" ry="2.5" style="stroke:#181818;stroke-width:0.5;" width="107.1191" x="296.1187" y="87.2969"/><text fill="#000000" font-family="Microsoft YaHei" font-size="14" lengthAdjust="spacing" textLength="93.1191" x="303.1187" y="107.292">ConfigLoader</text><rect fill="#E2E2F0" height="30.2969" rx="2.5" ry="2.5" style="stroke:#181818;stroke-width:0.5;" width="107.1191" x="296.1187" y="1388.9766"/><text fill="#000000" font-family="Microsoft YaHei" font-size="14" lengthAdjust="spacing" textLength="93.1191" x="303.1187" y="1408.9717">ConfigLoader</text><rect fill="#E2E2F0" height="30.2969" rx="2.5" ry="2.5" style="stroke:#181818;stroke-width:0.5;" width="84.0889" x="413.2378" y="87.2969"/><text fill="#000000" font-family="Microsoft YaHei" font-size="14" lengthAdjust="spacing" textLength="70.0889" x="420.2378" y="107.292">Scheduler</text><rect fill="#E2E2F0" height="30.2969" rx="2.5" ry="2.5" style="stroke:#181818;stroke-width:0.5;" width="84.0889" x="413.2378" y="1388.9766"/><text fill="#000000" font-family="Microsoft YaHei" font-size="14" lengthAdjust="spacing" textLength="70.0889" x="420.2378" y="1408.9717">Scheduler</text><text fill="#000000" font-family="Microsoft YaHei" font-size="14" lengthAdjust="spacing" textLength="81.6826" x="507.3267" y="115.292">config.yaml</text><path d="M533.168,66.2969 C533.168,56.2969 551.168,56.2969 551.168,56.2969 C551.168,56.2969 569.168,56.2969 569.168,66.2969 L569.168,92.2969 C569.168,102.2969 551.168,102.2969 551.168,102.2969 C551.168,102.2969 533.168,102.2969 533.168,92.2969 L533.168,66.2969 " fill="#E2E2F0" style="stroke:#181818;stroke-width:1.5;"/><path d="M533.168,66.2969 C533.168,76.2969 551.168,76.2969 551.168,76.2969 C551.168,76.2969 569.168,76.2969 569.168,66.2969 " fill="none" style="stroke:#181818;stroke-width:1.5;"/><text fill="#000000" font-family="Microsoft YaHei" font-size="14" lengthAdjust="spacing" textLength="81.6826" x="507.3267" y="1401.9717">config.yaml</text><path d="M533.168,1415.2734 C533.168,1405.2734 551.168,1405.2734 551.168,1405.2734 C551.168,1405.2734 569.168,1405.2734 569.168,1415.2734 L569.168,1441.2734 C569.168,1451.2734 551.168,1451.2734 551.168,1451.2734 C551.168,1451.2734 533.168,1451.2734 533.168,1441.2734 L533.168,1415.2734 " fill="#E2E2F0" style="stroke:#181818;stroke-width:1.5;"/><path d="M533.168,1415.2734 C533.168,1425.2734 551.168,1425.2734 551.168,1425.2734 C551.168,1425.2734 569.168,1425.2734 569.168,1415.2734 " fill="none" style="stroke:#181818;stroke-width:1.5;"/><text fill="#000000" font-family="Microsoft YaHei" font-size="14" lengthAdjust="spacing" textLength="63.2119" x="605.0093" y="115.292">memory/</text><path d="M621.6152,66.2969 C621.6152,56.2969 639.6152,56.2969 639.6152,56.2969 C639.6152,56.2969 657.6152,56.2969 657.6152,66.2969 L657.6152,92.2969 C657.6152,102.2969 639.6152,102.2969 639.6152,102.2969 C639.6152,102.2969 621.6152,102.2969 621.6152,92.2969 L621.6152,66.2969 " fill="#E2E2F0" style="stroke:#181818;stroke-width:1.5;"/><path d="M621.6152,66.2969 C621.6152,76.2969 639.6152,76.2969 639.6152,76.2969 C639.6152,76.2969 657.6152,76.2969 657.6152,66.2969 " fill="none" style="stroke:#181818;stroke-width:1.5;"/><text fill="#000000" font-family="Microsoft YaHei" font-size="14" lengthAdjust="spacing" textLength="63.2119" x="605.0093" y="1401.9717">memory/</text><path d="M621.6152,1415.2734 C621.6152,1405.2734 639.6152,1405.2734 639.6152,1405.2734 C639.6152,1405.2734 657.6152,1405.2734 657.6152,1415.2734 L657.6152,1441.2734 C657.6152,1451.2734 639.6152,1451.2734 639.6152,1451.2734 C639.6152,1451.2734 621.6152,1451.2734 621.6152,1441.2734 L621.6152,1415.2734 " fill="#E2E2F0" style="stroke:#181818;stroke-width:1.5;"/><path d="M621.6152,1415.2734 C621.6152,1425.2734 639.6152,1425.2734 639.6152,1425.2734 C639.6152,1425.2734 657.6152,1425.2734 657.6152,1415.2734 " fill="none" style="stroke:#181818;stroke-width:1.5;"/><rect fill="#EEEEEE" height="3" style="stroke:#EEEEEE;stroke-width:1;" width="762.1655" x="0" y="149.1602"/><line style="stroke:#000000;stroke-width:1;" x1="0" x2="762.1655" y1="149.1602" y2="149.1602"/><line style="stroke:#000000;stroke-width:1;" x1="0" x2="762.1655" y1="152.1602" y2="152.1602"/><rect fill="#EEEEEE" height="23.1328" style="stroke:#000000;stroke-width:2;" width="89.0356" x="336.5649" y="138.5938"/><text fill="#000000" font-family="Microsoft YaHei" font-size="13" font-weight="bold" lengthAdjust="spacing" textLength="70.5098" x="342.5649" y="154.6606">1. &#21019;&#24314;&#37197;&#32622;</text><polygon fill="#181818" points="246.6533,188.8594,256.6533,192.8594,246.6533,196.8594,250.6533,192.8594" style="stroke:#181818;stroke-width:1;"/><line style="stroke:#181818;stroke-width:1;" x1="37" x2="252.6533" y1="192.8594" y2="192.8594"/><text fill="#000000" font-family="Microsoft YaHei" font-size="13" lengthAdjust="spacing" textLength="73.6074" x="44" y="187.7935">create-task</text><polygon fill="#181818" points="539.168,217.9922,549.168,221.9922,539.168,225.9922,543.168,221.9922" style="stroke:#181818;stroke-width:1;"/><line style="stroke:#181818;stroke-width:1;" x1="258.6533" x2="545.168" y1="221.9922" y2="221.9922"/><text fill="#000000" font-family="Microsoft YaHei" font-size="13" lengthAdjust="spacing" textLength="52" x="265.6533" y="216.9263">&#29983;&#25104;&#27169;&#26495;</text><polygon fill="#181818" points="48,247.125,38,251.125,48,255.125,44,251.125" style="stroke:#181818;stroke-width:1;"/><line style="stroke:#181818;stroke-width:1;stroke-dasharray:2.0,2.0;" x1="42" x2="550.168" y1="251.125" y2="251.125"/><text fill="#000000" font-family="Microsoft YaHei" font-size="13" lengthAdjust="spacing" textLength="75.8481" x="54" y="246.0591">config.yaml</text><path d="M556,264.125 L556,349.125 L757,349.125 L757,274.125 L747,264.125 L556,264.125 " fill="#FEFFDD" style="stroke:#181818;stroke-width:0.5;"/><path d="M747,264.125 L747,274.125 L757,274.125 L747,264.125 " fill="#FEFFDD" style="stroke:#181818;stroke-width:0.5;"/><text fill="#000000" font-family="Microsoft YaHei" font-size="13" lengthAdjust="spacing" textLength="56.3799" x="562" y="281.1919">&#22522;&#26412;&#32467;&#26500;:</text><text fill="#000000" font-family="Microsoft YaHei" font-size="13" lengthAdjust="spacing" textLength="97.5952" x="562" y="296.3247">- project_name</text><text fill="#000000" font-family="Microsoft YaHei" font-size="13" lengthAdjust="spacing" textLength="90.2827" x="562" y="311.4575">- project_path</text><text fill="#000000" font-family="Microsoft YaHei" font-size="13" lengthAdjust="spacing" textLength="180.1655" x="562" y="326.5903">- mode (serial/parallel/loop)</text><text fill="#000000" font-family="Microsoft YaHei" font-size="13" lengthAdjust="spacing" textLength="53.1045" x="562" y="341.7231">- tasks[]</text><rect fill="#EEEEEE" height="3" style="stroke:#EEEEEE;stroke-width:1;" width="762.1655" x="0" y="375.3555"/><line style="stroke:#000000;stroke-width:1;" x1="0" x2="762.1655" y1="375.3555" y2="375.3555"/><line style="stroke:#000000;stroke-width:1;" x1="0" x2="762.1655" y1="378.3555" y2="378.3555"/><rect fill="#EEEEEE" height="23.1328" style="stroke:#000000;stroke-width:2;" width="89.0356" x="336.5649" y="364.7891"/><text fill="#000000" font-family="Microsoft YaHei" font-size="13" font-weight="bold" lengthAdjust="spacing" textLength="70.5098" x="342.5649" y="380.856">2. &#32534;&#36753;&#37197;&#32622;</text><polygon fill="#181818" points="539.168,415.0547,549.168,419.0547,539.168,423.0547,543.168,419.0547" style="stroke:#181818;stroke-width:1;"/><line style="stroke:#181818;stroke-width:1;" x1="37" x2="545.168" y1="419.0547" y2="419.0547"/><text fill="#000000" font-family="Microsoft YaHei" font-size="13" lengthAdjust="spacing" textLength="105.9805" x="44" y="413.9888">&#32534;&#36753; config.yaml</text><path d="M42,432.0547 L42,517.0547 L190,517.0547 L190,442.0547 L180,432.0547 L42,432.0547 " fill="#FEFFDD" style="stroke:#181818;stroke-width:0.5;"/><path d="M180,432.0547 L180,442.0547 L190,442.0547 L180,432.0547 " fill="#FEFFDD" style="stroke:#181818;stroke-width:0.5;"/><text fill="#000000" font-family="Microsoft YaHei" font-size="13" lengthAdjust="spacing" textLength="56.3799" x="48" y="449.1216">&#37197;&#32622;&#20219;&#21153;:</text><text fill="#000000" font-family="Microsoft YaHei" font-size="13" lengthAdjust="spacing" textLength="101.2324" x="48" y="464.2544">- id, description</text><text fill="#000000" font-family="Microsoft YaHei" font-size="13" lengthAdjust="spacing" textLength="121.5703" x="48" y="479.3872">- prompt_template</text><text fill="#000000" font-family="Microsoft YaHei" font-size="13" lengthAdjust="spacing" textLength="118.6377" x="48" y="494.52">- expected_output</text><text fill="#000000" font-family="Microsoft YaHei" font-size="13" lengthAdjust="spacing" textLength="127.5562" x="48" y="509.6528">- depends_on (&#21487;&#36873;)</text><rect fill="#EEEEEE" height="3" style="stroke:#EEEEEE;stroke-width:1;" width="762.1655" x="0" y="543.2852"/><line style="stroke:#000000;stroke-width:1;" x1="0" x2="762.1655" y1="543.2852" y2="543.2852"/><line style="stroke:#000000;stroke-width:1;" x1="0" x2="762.1655" y1="546.2852" y2="546.2852"/><rect fill="#EEEEEE" height="23.1328" style="stroke:#000000;stroke-width:2;" width="89.0356" x="336.5649" y="532.7188"/><text fill="#000000" font-family="Microsoft YaHei" font-size="13" font-weight="bold" lengthAdjust="spacing" textLength="70.5098" x="342.5649" y="548.7856">3. &#39564;&#35777;&#37197;&#32622;</text><polygon fill="#181818" points="246.6533,582.9844,256.6533,586.9844,246.6533,590.9844,250.6533,586.9844" style="stroke:#181818;stroke-width:1;"/><line style="stroke:#181818;stroke-width:1;" x1="37" x2="252.6533" y1="586.9844" y2="586.9844"/><text fill="#000000" font-family="Microsoft YaHei" font-size="13" lengthAdjust="spacing" text-decoration="line-through" textLength="145.7168" x="44" y="581.9185">config config.yaml run</text><text fill="#000000" font-family="Microsoft YaHei" font-size="13" lengthAdjust="spacing" textLength="47.8042" x="193.8491" y="581.9185">dry-run</text><polygon fill="#181818" points="337.6782,612.1172,347.6782,616.1172,337.6782,620.1172,341.6782,616.1172" style="stroke:#181818;stroke-width:1;"/><line style="stroke:#181818;stroke-width:1;" x1="258.6533" x2="343.6782" y1="616.1172" y2="616.1172"/><text fill="#000000" font-family="Microsoft YaHei" font-size="13" lengthAdjust="spacing" textLength="52" x="265.6533" y="611.0513">&#21152;&#36733;&#37197;&#32622;</text><line style="stroke:#181818;stroke-width:1;" x1="349.6782" x2="391.6782" y1="645.25" y2="645.25"/><line style="stroke:#181818;stroke-width:1;" x1="391.6782" x2="391.6782" y1="645.25" y2="658.25"/><line style="stroke:#181818;stroke-width:1;" x1="350.6782" x2="391.6782" y1="658.25" y2="658.25"/><polygon fill="#181818" points="360.6782,654.25,350.6782,658.25,360.6782,662.25,356.6782,658.25" style="stroke:#181818;stroke-width:1;"/><text fill="#000000" font-family="Microsoft YaHei" font-size="13" lengthAdjust="spacing" textLength="52" x="356.6782" y="640.1841">&#39564;&#35777;&#23383;&#27573;</text><path d="M10,673.25 L74.4429,673.25 L74.4429,680.3828 L64.4429,690.3828 L10,690.3828 L10,673.25 " fill="#EEEEEE" style="stroke:#000000;stroke-width:1.5;"/><rect fill="none" height="177.6016" style="stroke:#000000;stroke-width:1.5;" width="595.0093" x="10" y="673.25"/><text fill="#000000" font-family="Microsoft YaHei" font-size="13" font-weight="bold" lengthAdjust="spacing" textLength="19.4429" x="25" y="686.3169">alt</text><text fill="#000000" font-family="Microsoft YaHei" font-size="11" font-weight="bold" lengthAdjust="spacing" textLength="54.0547" x="89.4429" y="685.4604">[&#37197;&#32622;&#26377;&#25928;]</text><polygon fill="#181818" points="269.6533,707.5156,259.6533,711.5156,269.6533,715.5156,265.6533,711.5156" style="stroke:#181818;stroke-width:1;"/><line style="stroke:#181818;stroke-width:1;stroke-dasharray:2.0,2.0;" x1="263.6533" x2="348.6782" y1="711.5156" y2="711.5156"/><text fill="#000000" font-family="Microsoft YaHei" font-size="13" lengthAdjust="spacing" textLength="67.0249" x="275.6533" y="706.4497">&#10003; &#37197;&#32622;&#26377;&#25928;</text><polygon fill="#181818" points="48,736.6484,38,740.6484,48,744.6484,44,740.6484" style="stroke:#181818;stroke-width:1;"/><line style="stroke:#181818;stroke-width:1;stroke-dasharray:2.0,2.0;" x1="42" x2="257.6533" y1="740.6484" y2="740.6484"/><text fill="#000000" font-family="Microsoft YaHei" font-size="13" lengthAdjust="spacing" textLength="78" x="54" y="735.5825">&#26174;&#31034;&#25191;&#34892;&#35745;&#21010;</text><line style="stroke:#000000;stroke-width:1;stroke-dasharray:2.0,2.0;" x1="10" x2="605.0093" y1="749.6484" y2="749.6484"/><text fill="#000000" font-family="Microsoft YaHei" font-size="11" font-weight="bold" lengthAdjust="spacing" textLength="54.0547" x="15" y="759.8589">[&#37197;&#32622;&#26080;&#25928;]</text><polygon fill="#181818" points="269.6533,780.5859,259.6533,784.5859,269.6533,788.5859,265.6533,784.5859" style="stroke:#181818;stroke-width:1;"/><line style="stroke:#181818;stroke-width:1;stroke-dasharray:2.0,2.0;" x1="263.6533" x2="348.6782" y1="784.5859" y2="784.5859"/><text fill="#000000" font-family="Microsoft YaHei" font-size="13" lengthAdjust="spacing" textLength="67.0249" x="275.6533" y="779.52">&#10007; &#38169;&#35823;&#20449;&#24687;</text><polygon fill="#181818" points="48,809.7188,38,813.7188,48,817.7188,44,813.7188" style="stroke:#181818;stroke-width:1;"/><line style="stroke:#181818;stroke-width:1;stroke-dasharray:2.0,2.0;" x1="42" x2="257.6533" y1="813.7188" y2="813.7188"/><text fill="#000000" font-family="Microsoft YaHei" font-size="13" lengthAdjust="spacing" textLength="52" x="54" y="808.6528">&#26174;&#31034;&#38169;&#35823;</text><polygon fill="#181818" points="539.168,838.8516,549.168,842.8516,539.168,846.8516,543.168,842.8516" style="stroke:#181818;stroke-width:1;"/><line style="stroke:#181818;stroke-width:1;" x1="37" x2="545.168" y1="842.8516" y2="842.8516"/><text fill="#000000" font-family="Microsoft YaHei" font-size="13" lengthAdjust="spacing" textLength="52" x="44" y="837.7856">&#20462;&#22797;&#37197;&#32622;</text><rect fill="#EEEEEE" height="3" style="stroke:#EEEEEE;stroke-width:1;" width="762.1655" x="0" y="878.418"/><line style="stroke:#000000;stroke-width:1;" x1="0" x2="762.1655" y1="878.418" y2="878.418"/><line style="stroke:#000000;stroke-width:1;" x1="0" x2="762.1655" y1="881.418" y2="881.418"/><rect fill="#EEEEEE" height="23.1328" style="stroke:#000000;stroke-width:2;" width="89.0356" x="336.5649" y="867.8516"/><text fill="#000000" font-family="Microsoft YaHei" font-size="13" font-weight="bold" lengthAdjust="spacing" textLength="70.5098" x="342.5649" y="883.9185">4. &#25191;&#34892;&#20219;&#21153;</text><polygon fill="#181818" points="246.6533,918.1172,256.6533,922.1172,246.6533,926.1172,250.6533,922.1172" style="stroke:#181818;stroke-width:1;"/><line style="stroke:#181818;stroke-width:1;" x1="37" x2="252.6533" y1="922.1172" y2="922.1172"/><text fill="#000000" font-family="Microsoft YaHei" font-size="13" lengthAdjust="spacing" textLength="155.0986" x="44" y="917.0513">--config config.yaml run</text><polygon fill="#181818" points="337.6782,947.25,347.6782,951.25,337.6782,955.25,341.6782,951.25" style="stroke:#181818;stroke-width:1;"/><line style="stroke:#181818;stroke-width:1;" x1="258.6533" x2="343.6782" y1="951.25" y2="951.25"/><text fill="#000000" font-family="Microsoft YaHei" font-size="13" lengthAdjust="spacing" textLength="52" x="265.6533" y="946.1841">&#21152;&#36733;&#37197;&#32622;</text><polygon fill="#181818" points="443.2822,976.3828,453.2822,980.3828,443.2822,984.3828,447.2822,980.3828" style="stroke:#181818;stroke-width:1;"/><line style="stroke:#181818;stroke-width:1;" x1="349.6782" x2="449.2822" y1="980.3828" y2="980.3828"/><text fill="#000000" font-family="Microsoft YaHei" font-size="13" lengthAdjust="spacing" textLength="65" x="356.6782" y="975.3169">&#21019;&#24314;&#35843;&#24230;&#22120;</text><polygon fill="#181818" points="627.6152,1005.5156,637.6152,1009.5156,627.6152,1013.5156,631.6152,1009.5156" style="stroke:#181818;stroke-width:1;"/><line style="stroke:#181818;stroke-width:1;" x1="455.2822" x2="633.6152" y1="1009.5156" y2="1009.5156"/><text fill="#000000" font-family="Microsoft YaHei" font-size="13" lengthAdjust="spacing" textLength="65" x="462.2822" y="1004.4497">&#21021;&#22987;&#21270;&#35760;&#24518;</text><polygon fill="#181818" points="466.2822,1034.6484,456.2822,1038.6484,466.2822,1042.6484,462.2822,1038.6484" style="stroke:#181818;stroke-width:1;"/><line style="stroke:#181818;stroke-width:1;stroke-dasharray:2.0,2.0;" x1="460.2822" x2="638.6152" y1="1038.6484" y2="1038.6484"/><text fill="#000000" font-family="Microsoft YaHei" font-size="13" lengthAdjust="spacing" textLength="52" x="472.2822" y="1033.5825">&#35760;&#24518;&#23601;&#32490;</text><path d="M403.2378,1053.6484 L479.8618,1053.6484 L479.8618,1060.7813 L469.8618,1070.7813 L403.2378,1070.7813 L403.2378,1053.6484 " fill="#EEEEEE" style="stroke:#000000;stroke-width:1.5;"/><rect fill="none" height="88.3984" style="stroke:#000000;stroke-width:1.5;" width="280.9834" x="403.2378" y="1053.6484"/><text fill="#000000" font-family="Microsoft YaHei" font-size="13" font-weight="bold" lengthAdjust="spacing" textLength="31.624" x="418.2378" y="1066.7153">loop</text><text fill="#000000" font-family="Microsoft YaHei" font-size="11" font-weight="bold" lengthAdjust="spacing" textLength="54.0547" x="494.8618" y="1065.8589">[&#27599;&#20010;&#20219;&#21153;]</text><line style="stroke:#181818;stroke-width:1;" x1="455.2822" x2="497.2822" y1="1091.9141" y2="1091.9141"/><line style="stroke:#181818;stroke-width:1;" x1="497.2822" x2="497.2822" y1="1091.9141" y2="1104.9141"/><line style="stroke:#181818;stroke-width:1;" x1="456.2822" x2="497.2822" y1="1104.9141" y2="1104.9141"/><polygon fill="#181818" points="466.2822,1100.9141,456.2822,1104.9141,466.2822,1108.9141,462.2822,1104.9141" style="stroke:#181818;stroke-width:1;"/><text fill="#000000" font-family="Microsoft YaHei" font-size="13" lengthAdjust="spacing" textLength="52" x="462.2822" y="1086.8481">&#25191;&#34892;&#20219;&#21153;</text><polygon fill="#181818" points="627.6152,1130.0469,637.6152,1134.0469,627.6152,1138.0469,631.6152,1134.0469" style="stroke:#181818;stroke-width:1;"/><line style="stroke:#181818;stroke-width:1;" x1="455.2822" x2="633.6152" y1="1134.0469" y2="1134.0469"/><text fill="#000000" font-family="Microsoft YaHei" font-size="13" lengthAdjust="spacing" textLength="52" x="462.2822" y="1128.981">&#26356;&#26032;&#35760;&#24518;</text><polygon fill="#181818" points="269.6533,1166.1797,259.6533,1170.1797,269.6533,1174.1797,265.6533,1170.1797" style="stroke:#181818;stroke-width:1;"/><line style="stroke:#181818;stroke-width:1;stroke-dasharray:2.0,2.0;" x1="263.6533" x2="454.2822" y1="1170.1797" y2="1170.1797"/><text fill="#000000" font-family="Microsoft YaHei" font-size="13" lengthAdjust="spacing" textLength="52" x="275.6533" y="1165.1138">&#25191;&#34892;&#23436;&#25104;</text><polygon fill="#181818" points="48,1195.3125,38,1199.3125,48,1203.3125,44,1199.3125" style="stroke:#181818;stroke-width:1;"/><line style="stroke:#181818;stroke-width:1;stroke-dasharray:2.0,2.0;" x1="42" x2="257.6533" y1="1199.3125" y2="1199.3125"/><text fill="#000000" font-family="Microsoft YaHei" font-size="13" lengthAdjust="spacing" textLength="52" x="54" y="1194.2466">&#26174;&#31034;&#32467;&#26524;</text><rect fill="#EEEEEE" height="3" style="stroke:#EEEEEE;stroke-width:1;" width="762.1655" x="0" y="1227.8789"/><line style="stroke:#000000;stroke-width:1;" x1="0" x2="762.1655" y1="1227.8789" y2="1227.8789"/><line style="stroke:#000000;stroke-width:1;" x1="0" x2="762.1655" y1="1230.8789" y2="1230.8789"/><rect fill="#EEEEEE" height="23.1328" style="stroke:#000000;stroke-width:2;" width="89.0356" x="336.5649" y="1217.3125"/><text fill="#000000" font-family="Microsoft YaHei" font-size="13" font-weight="bold" lengthAdjust="spacing" textLength="70.5098" x="342.5649" y="1233.3794">5. &#24674;&#22797;&#25191;&#34892;</text><polygon fill="#181818" points="246.6533,1267.5781,256.6533,1271.5781,246.6533,1275.5781,250.6533,1271.5781" style="stroke:#181818;stroke-width:1;"/><line style="stroke:#181818;stroke-width:1;" x1="37" x2="252.6533" y1="1271.5781" y2="1271.5781"/><text fill="#000000" font-family="Microsoft YaHei" font-size="13" lengthAdjust="spacing" textLength="176.7061" x="44" y="1266.5122">resume --project-name xxx</text><polygon fill="#181818" points="627.6152,1296.7109,637.6152,1300.7109,627.6152,1304.7109,631.6152,1300.7109" style="stroke:#181818;stroke-width:1;"/><line style="stroke:#181818;stroke-width:1;" x1="258.6533" x2="633.6152" y1="1300.7109" y2="1300.7109"/><text fill="#000000" font-family="Microsoft YaHei" font-size="13" lengthAdjust="spacing" textLength="52" x="265.6533" y="1295.645">&#21152;&#36733;&#29366;&#24577;</text><polygon fill="#181818" points="466.2822,1325.8438,456.2822,1329.8438,466.2822,1333.8438,462.2822,1329.8438" style="stroke:#181818;stroke-width:1;"/><line style="stroke:#181818;stroke-width:1;stroke-dasharray:2.0,2.0;" x1="460.2822" x2="638.6152" y1="1329.8438" y2="1329.8438"/><text fill="#000000" font-family="Microsoft YaHei" font-size="13" lengthAdjust="spacing" textLength="65" x="472.2822" y="1324.7778">&#24674;&#22797;&#19978;&#19979;&#25991;</text><line style="stroke:#181818;stroke-width:1;" x1="455.2822" x2="497.2822" y1="1358.9766" y2="1358.9766"/><line style="stroke:#181818;stroke-width:1;" x1="497.2822" x2="497.2822" y1="1358.9766" y2="1371.9766"/><line style="stroke:#181818;stroke-width:1;" x1="456.2822" x2="497.2822" y1="1371.9766" y2="1371.9766"/><polygon fill="#181818" points="466.2822,1367.9766,456.2822,1371.9766,466.2822,1375.9766,462.2822,1371.9766" style="stroke:#181818;stroke-width:1;"/><text fill="#000000" font-family="Microsoft YaHei" font-size="13" lengthAdjust="spacing" textLength="52" x="462.2822" y="1353.9106">&#32487;&#32493;&#25191;&#34892;</text><!--SRC=[ZLHRJnf157wVNp7nIPCkfhSN4lfYqhI9zgNfGzCqPDmTPEkoizaTKdoJz8Q8iQqMQyGgZQt4LA19lGIA_9U6cOL_qTaPbaALH5wOET-vVESxSzPRD6q7kIW5vv6-kE2Ij6tC48kuy6NIf1Xu0zp02PIsw7rYqqSeXU6SgRl48maAdw87s0I0cjJ2iFTcpMzLUV5TftdAphvrMYL-alKhgm0WdOgq_cQ5vyuWyk0J3xj0vAQcRZh8fd1YPlRXH828__y0OYVCXLc23EnA3tKSTNgi9x6HjleUWnim44NpoCDmGfTf8aiePQawyZxaaC8fuYvDIt1EdW68nU3D26Iv7TPigEPWB0O2yb2x5r2DGjt5Y6AD8cyH28EqozHHqUuUpxtdbJBVRGDbX9h0WtWH-8yG03QX6BhcGf92aWYviRq6B_tmcnlyo-ieqA3ZaXTOft5RZ63ewY2Q5DSKCJ2S5AbDP4q7OxCiR4rRX3XJ0WtuUS-U0smRC2WcUxiLWVxlOlVYmnMzXJr8V8JiA5SvIHNVQJPPlXmmDOqRuirukciwr2Is8fjoQ9pYb6C9lOG5Pnp17XjnagPEcWgBWHr1puiJ6qwozLflUMLgbE_j2EmT5Rgrx9XPQ9hYEKmNkcbR08Qxf8bJE2BrXgAGvVUxhPPA1vHn65RLsF4Mhvu0PD7mXPTM-ASSWE8NneGK_fGsBZl9eeF1yyyN_a63hnnsouLkjSno7m6slC7sREsFpxq5UvlRtLgjqoxpR6riRkKauV_dsMbNsS5Qls4XhjJrJWGgEcg2rzRrcceErZ7QNwLk_HLhV6VR5J200Z-rTO7JBZjSPOLYjrfdxRT0sMMNGwaKoEe__UOH0C4xXxostZa_Kat8xaVI3yKETtlPCUJ1TtxnOhrFGcerv1PgerAnQa6iEhXg679_IrBdkqBdx5UXlmgwfBEBlRJukcfQVxMrODDX9fC9XHue98NsywTyEJj67bMeSvxldA-ABp8O9uNVFFIRnueG-0i0]--></g></svg>