<svg xmlns="http://www.w3.org/2000/svg" xmlns:xlink="http://www.w3.org/1999/xlink" contentStyleType="text/css" height="2138px" preserveAspectRatio="none" style="width:610px;height:2138px;background:#FFFFFF;" version="1.1" viewBox="0 0 610 2138" width="610px" zoomAndPan="magnify"><title>&#36129;&#29486;&#24037;&#20316;&#27969;&#31243;&#22270;</title><defs/><g><text fill="#000000" font-family="Microsoft YaHei" font-size="14" font-weight="bold" lengthAdjust="spacing" textLength="98" x="254.705" y="32.9951">&#36129;&#29486;&#24037;&#20316;&#27969;&#31243;&#22270;</text><rect fill="#E0FFFF" height="269.4766" style="stroke:#000000;stroke-width:1.5;" width="391.3135" x="174.6682" y="48.2969"/><path d="M288.8821,48.2969 L288.8821,57.5938 L278.8821,67.5938 L174.6682,67.5938 " fill="none" style="stroke:#000000;stroke-width:1.5;"/><text fill="#000000" font-family="Microsoft YaHei" font-size="14" font-weight="bold" lengthAdjust="spacing" textLength="104.2139" x="177.6682" y="62.292">&#38454;&#27573;1: &#20934;&#22791;&#24037;&#20316;</text><path d="M287.6389,77.5938 L287.6389,93.7266 L267.6389,97.7266 L287.6389,101.7266 L287.6389,117.8594 A0,0 0 0 0 287.6389,117.8594 L555.9817,117.8594 A0,0 0 0 0 555.9817,117.8594 L555.9817,87.5938 L545.9817,77.5938 L287.6389,77.5938 A0,0 0 0 0 287.6389,77.5938 " fill="#ADD8E6" style="stroke:#181818;stroke-width:0.5;"/><path d="M545.9817,77.5938 L545.9817,87.5938 L555.9817,87.5938 L545.9817,77.5938 " fill="#ADD8E6" style="stroke:#181818;stroke-width:0.5;"/><text fill="#000000" font-family="Microsoft YaHei" font-size="13" lengthAdjust="spacing" textLength="116.1304" x="293.6389" y="94.6606">&#22312; GitHub &#19978; Fork:</text><text fill="#000000" font-family="Microsoft YaHei" font-size="13" lengthAdjust="spacing" textLength="247.3428" x="293.6389" y="109.7935">https://github.com/hizhengjian/kuxing</text><rect fill="#F1F1F1" height="33.9688" rx="12.5" ry="12.5" style="stroke:#181818;stroke-width:0.5;" width="73.9414" x="193.6975" y="80.7422"/><text fill="#000000" font-family="Microsoft YaHei" font-size="12" lengthAdjust="spacing" textLength="53.9414" x="203.6975" y="101.8809">Fork &#20179;&#24211;</text><path d="M290.6682,134.7109 L290.6682,150.8438 L270.6682,154.8438 L290.6682,158.8438 L290.6682,174.9766 A0,0 0 0 0 290.6682,174.9766 L474.8411,174.9766 A0,0 0 0 0 474.8411,174.9766 L474.8411,144.7109 L464.8411,134.7109 L290.6682,134.7109 A0,0 0 0 0 290.6682,134.7109 " fill="#ADD8E6" style="stroke:#181818;stroke-width:0.5;"/><path d="M464.8411,134.7109 L464.8411,144.7109 L474.8411,144.7109 L464.8411,134.7109 " fill="#ADD8E6" style="stroke:#181818;stroke-width:0.5;"/><text fill="#000000" font-family="Microsoft YaHei" font-size="13" lengthAdjust="spacing" textLength="163.1729" x="296.6682" y="151.7778">git clone &lt;your-fork-url&gt;</text><text fill="#000000" font-family="Microsoft YaHei" font-size="13" lengthAdjust="spacing" textLength="63.0957" x="296.6682" y="166.9106">cd kuxing</text><rect fill="#F1F1F1" height="33.9688" rx="12.5" ry="12.5" style="stroke:#181818;stroke-width:0.5;" width="80" x="190.6682" y="137.8594"/><text fill="#000000" font-family="Microsoft YaHei" font-size="12" lengthAdjust="spacing" textLength="60" x="200.6682" y="158.998">&#20811;&#38534;&#21040;&#26412;&#22320;</text><path d="M296.6682,184.9766 L296.6682,208.6758 L276.6682,212.6758 L296.6682,216.6758 L296.6682,240.375 A0,0 0 0 0 296.6682,240.375 L552.0618,240.375 A0,0 0 0 0 552.0618,240.375 L552.0618,194.9766 L542.0618,184.9766 L296.6682,184.9766 A0,0 0 0 0 296.6682,184.9766 " fill="#FFFACD" style="stroke:#181818;stroke-width:0.5;"/><path d="M542.0618,184.9766 L542.0618,194.9766 L552.0618,194.9766 L542.0618,184.9766 " fill="#FFFACD" style="stroke:#181818;stroke-width:0.5;"/><text fill="#000000" font-family="Microsoft YaHei" font-size="13" lengthAdjust="spacing" textLength="234.3936" x="302.6682" y="202.0435">git checkout -b feature/your-feature</text><text fill="#000000" font-family="Microsoft YaHei" font-size="13" lengthAdjust="spacing" textLength="13" x="302.6682" y="217.1763">&#25110;</text><text fill="#000000" font-family="Microsoft YaHei" font-size="13" lengthAdjust="spacing" textLength="196.46" x="302.6682" y="232.3091">git checkout -b fix/your-bugfix</text><rect fill="#F1F1F1" height="33.9688" rx="12.5" ry="12.5" style="stroke:#181818;stroke-width:0.5;" width="92" x="184.6682" y="195.6914"/><text fill="#000000" font-family="Microsoft YaHei" font-size="12" lengthAdjust="spacing" textLength="72" x="194.6682" y="216.8301">&#21019;&#24314;&#24320;&#21457;&#20998;&#25903;</text><path d="M296.6682,250.375 L296.6682,274.0742 L276.6682,278.0742 L296.6682,282.0742 L296.6682,305.7734 A0,0 0 0 0 296.6682,305.7734 L478.321,305.7734 A0,0 0 0 0 478.321,305.7734 L478.321,260.375 L468.321,250.375 L296.6682,250.375 A0,0 0 0 0 296.6682,250.375 " fill="#ADD8E6" style="stroke:#181818;stroke-width:0.5;"/><path d="M468.321,250.375 L468.321,260.375 L478.321,260.375 L468.321,250.375 " fill="#ADD8E6" style="stroke:#181818;stroke-width:0.5;"/><text fill="#000000" font-family="Microsoft YaHei" font-size="13" lengthAdjust="spacing" textLength="146.7451" x="302.6682" y="267.4419">python3 -m venv venv</text><text fill="#000000" font-family="Microsoft YaHei" font-size="13" lengthAdjust="spacing" textLength="160.6528" x="302.6682" y="282.5747">source venv/bin/activate</text><text fill="#000000" font-family="Microsoft YaHei" font-size="13" lengthAdjust="spacing" textLength="88.2451" x="302.6682" y="297.7075">pip install -e .</text><rect fill="#F1F1F1" height="33.9688" rx="12.5" ry="12.5" style="stroke:#181818;stroke-width:0.5;" width="92" x="184.6682" y="261.0898"/><text fill="#000000" font-family="Microsoft YaHei" font-size="12" lengthAdjust="spacing" textLength="72" x="194.6682" y="282.2285">&#37197;&#32622;&#24320;&#21457;&#29615;&#22659;</text><rect fill="#90EE90" height="462.8438" style="stroke:#000000;stroke-width:1.5;" width="428.627" x="122.2664" y="327.7734"/><path d="M250.4802,327.7734 L250.4802,337.0703 L240.4802,347.0703 L122.2664,347.0703 " fill="none" style="stroke:#000000;stroke-width:1.5;"/><text fill="#000000" font-family="Microsoft YaHei" font-size="14" font-weight="bold" lengthAdjust="spacing" textLength="118.2139" x="125.2664" y="341.7686">&#38454;&#27573;2: &#24320;&#21457;&#19982;&#27979;&#35797;</text><path d="M284.6682,357.0703 L284.6682,380.7695 L264.6682,384.7695 L284.6682,388.7695 L284.6682,412.4688 A0,0 0 0 0 284.6682,412.4688 L402.2288,412.4688 A0,0 0 0 0 402.2288,412.4688 L402.2288,367.0703 L392.2288,357.0703 L284.6682,357.0703 A0,0 0 0 0 284.6682,357.0703 " fill="#FFFACD" style="stroke:#181818;stroke-width:0.5;"/><path d="M392.2288,357.0703 L392.2288,367.0703 L402.2288,367.0703 L392.2288,357.0703 " fill="#FFFACD" style="stroke:#181818;stroke-width:0.5;"/><text fill="#000000" font-family="Microsoft YaHei" font-size="13" lengthAdjust="spacing" textLength="96.5605" x="290.6682" y="374.1372">&#36981;&#24490; PEP 8 &#35268;&#33539;</text><text fill="#000000" font-family="Microsoft YaHei" font-size="13" lengthAdjust="spacing" textLength="78" x="290.6682" y="389.27">&#28155;&#21152;&#31867;&#22411;&#27880;&#35299;</text><text fill="#000000" font-family="Microsoft YaHei" font-size="13" lengthAdjust="spacing" textLength="91" x="290.6682" y="404.4028">&#32534;&#20889;&#25991;&#26723;&#23383;&#31526;&#20018;</text><rect fill="#F1F1F1" height="33.9688" rx="12.5" ry="12.5" style="stroke:#181818;stroke-width:0.5;" width="68" x="196.6682" y="367.7852"/><text fill="#000000" font-family="Microsoft YaHei" font-size="12" lengthAdjust="spacing" textLength="48" x="206.6682" y="388.9238">&#32534;&#20889;&#20195;&#30721;</text><path d="M284.6682,422.4688 L284.6682,446.168 L264.6682,450.168 L284.6682,454.168 L284.6682,477.8672 A0,0 0 0 0 284.6682,477.8672 L460.3416,477.8672 A0,0 0 0 0 460.3416,477.8672 L460.3416,432.4688 L450.3416,422.4688 L284.6682,422.4688 A0,0 0 0 0 284.6682,422.4688 " fill="#FFFACD" style="stroke:#181818;stroke-width:0.5;"/><path d="M450.3416,422.4688 L450.3416,432.4688 L460.3416,432.4688 L450.3416,422.4688 " fill="#FFFACD" style="stroke:#181818;stroke-width:0.5;"/><text fill="#000000" font-family="Microsoft YaHei" font-size="13" lengthAdjust="spacing" textLength="113.0518" x="290.6682" y="439.5356">&#27979;&#35797;&#35206;&#30422;&#29575; &#8805; 80%</text><text fill="#000000" font-family="Microsoft YaHei" font-size="13" lengthAdjust="spacing" textLength="71.043" x="290.6682" y="454.6685">&#20351;&#29992; pytest</text><text fill="#000000" font-family="Microsoft YaHei" font-size="13" lengthAdjust="spacing" textLength="154.6733" x="290.6682" y="469.8013">&#27979;&#35797;&#25991;&#20214;: tests/test_*.py</text><rect fill="#F1F1F1" height="33.9688" rx="12.5" ry="12.5" style="stroke:#181818;stroke-width:0.5;" width="68" x="196.6682" y="433.1836"/><text fill="#000000" font-family="Microsoft YaHei" font-size="12" lengthAdjust="spacing" textLength="48" x="206.6682" y="454.3223">&#32534;&#20889;&#27979;&#35797;</text><path d="M284.6682,494.7188 L284.6682,510.8516 L264.6682,514.8516 L284.6682,518.8516 L284.6682,534.9844 A0,0 0 0 0 284.6682,534.9844 L540.8933,534.9844 A0,0 0 0 0 540.8933,534.9844 L540.8933,504.7188 L530.8933,494.7188 L284.6682,494.7188 A0,0 0 0 0 284.6682,494.7188 " fill="#ADD8E6" style="stroke:#181818;stroke-width:0.5;"/><path d="M530.8933,494.7188 L530.8933,504.7188 L540.8933,504.7188 L530.8933,494.7188 " fill="#ADD8E6" style="stroke:#181818;stroke-width:0.5;"/><text fill="#000000" font-family="Microsoft YaHei" font-size="13" lengthAdjust="spacing" textLength="97.6777" x="290.6682" y="511.7856">pytest tests/ -v</text><text fill="#000000" font-family="Microsoft YaHei" font-size="13" lengthAdjust="spacing" textLength="81.1611" x="290.6682" y="526.9185">pytest tests/</text><text fill="#000000" font-family="Microsoft YaHei" font-size="13" lengthAdjust="spacing" text-decoration="line-through" textLength="37.8193" x="375.9617" y="526.9185">cov=.</text><text fill="#000000" font-family="Microsoft YaHei" font-size="13" lengthAdjust="spacing" textLength="107.98" x="417.9133" y="526.9185">cov-report=html</text><rect fill="#F1F1F1" height="33.9688" rx="12.5" ry="12.5" style="stroke:#181818;stroke-width:0.5;" width="68" x="196.6682" y="497.8672"/><text fill="#000000" font-family="Microsoft YaHei" font-size="12" lengthAdjust="spacing" textLength="48" x="206.6682" y="519.0059">&#36816;&#34892;&#27979;&#35797;</text><polygon fill="#F1F1F1" points="205.749,554.9844,255.5874,554.9844,267.5874,566.9844,255.5874,578.9844,205.749,578.9844,193.749,566.9844,205.749,554.9844" style="stroke:#181818;stroke-width:0.5;"/><text fill="#000000" font-family="Microsoft YaHei" font-size="11" lengthAdjust="spacing" textLength="49.8384" x="205.749" y="570.7925">&#27979;&#35797;&#36890;&#36807;?</text><text fill="#000000" font-family="Microsoft YaHei" font-size="11" lengthAdjust="spacing" textLength="19.0083" x="174.7407" y="564.3901">yes</text><text fill="#000000" font-family="Microsoft YaHei" font-size="11" lengthAdjust="spacing" textLength="13.7017" x="267.5874" y="564.3901">no</text><rect fill="#F1F1F1" height="33.9688" rx="12.5" ry="12.5" style="stroke:#181818;stroke-width:0.5;" width="81.8691" x="142.2664" y="588.9844"/><text fill="#000000" font-family="Microsoft YaHei" font-size="12" lengthAdjust="spacing" textLength="61.8691" x="152.2664" y="610.123">&#10003; &#27979;&#35797;&#36890;&#36807;</text><path d="M332.1355,588.9844 L332.1355,605.1172 L312.1355,609.1172 L332.1355,613.1172 L332.1355,629.25 A0,0 0 0 0 332.1355,629.25 L457.1355,629.25 A0,0 0 0 0 457.1355,629.25 L457.1355,598.9844 L447.1355,588.9844 L332.1355,588.9844 A0,0 0 0 0 332.1355,588.9844 " fill="#FFB6C1" style="stroke:#181818;stroke-width:0.5;"/><path d="M447.1355,588.9844 L447.1355,598.9844 L457.1355,598.9844 L447.1355,588.9844 " fill="#FFB6C1" style="stroke:#181818;stroke-width:0.5;"/><text fill="#000000" font-family="Microsoft YaHei" font-size="13" lengthAdjust="spacing" textLength="104" x="338.1355" y="606.0513">&#26816;&#26597;&#27979;&#35797;&#22833;&#36133;&#21407;&#22240;</text><text fill="#000000" font-family="Microsoft YaHei" font-size="13" lengthAdjust="spacing" textLength="91" x="338.1355" y="621.1841">&#20462;&#22797;&#20195;&#30721;&#25110;&#27979;&#35797;</text><rect fill="#F1F1F1" height="33.9688" rx="12.5" ry="12.5" style="stroke:#181818;stroke-width:0.5;" width="68" x="244.1355" y="592.1328"/><text fill="#000000" font-family="Microsoft YaHei" font-size="12" lengthAdjust="spacing" textLength="48" x="254.1355" y="613.2715">&#20462;&#22797;&#38382;&#39064;</text><rect fill="#F1F1F1" height="33.9688" rx="12.5" ry="12.5" style="stroke:#181818;stroke-width:0.5;" width="68" x="244.1355" y="649.25"/><text fill="#000000" font-family="Microsoft YaHei" font-size="12" lengthAdjust="spacing" textLength="48" x="254.1355" y="670.3887">&#36816;&#34892;&#27979;&#35797;</text><polygon fill="#F1F1F1" points="230.6682,689.2188,242.6682,701.2188,230.6682,713.2188,218.6682,701.2188,230.6682,689.2188" style="stroke:#181818;stroke-width:0.5;"/><path d="M296.6682,723.2188 L296.6682,746.918 L276.6682,750.918 L296.6682,754.918 L296.6682,778.6172 A0,0 0 0 0 296.6682,778.6172 L365.885,778.6172 A0,0 0 0 0 365.885,778.6172 L365.885,733.2188 L355.885,723.2188 L296.6682,723.2188 A0,0 0 0 0 296.6682,723.2188 " fill="#ADD8E6" style="stroke:#181818;stroke-width:0.5;"/><path d="M355.885,723.2188 L355.885,733.2188 L365.885,733.2188 L355.885,723.2188 " fill="#ADD8E6" style="stroke:#181818;stroke-width:0.5;"/><text fill="#000000" font-family="Microsoft YaHei" font-size="13" lengthAdjust="spacing" textLength="42.7705" x="302.6682" y="740.2856">black .</text><text fill="#000000" font-family="Microsoft YaHei" font-size="13" lengthAdjust="spacing" textLength="48.2168" x="302.6682" y="755.4185">flake8 .</text><text fill="#000000" font-family="Microsoft YaHei" font-size="13" lengthAdjust="spacing" textLength="44.5669" x="302.6682" y="770.5513">mypy .</text><rect fill="#F1F1F1" height="33.9688" rx="12.5" ry="12.5" style="stroke:#181818;stroke-width:0.5;" width="92" x="184.6682" y="733.9336"/><text fill="#000000" font-family="Microsoft YaHei" font-size="12" lengthAdjust="spacing" textLength="72" x="194.6682" y="755.0723">&#20195;&#30721;&#26684;&#24335;&#26816;&#26597;</text><rect fill="#FFFFE0" height="292.4297" style="stroke:#000000;stroke-width:1.5;" width="377.5581" x="177.6975" y="800.6172"/><path d="M291.9114,800.6172 L291.9114,809.9141 L281.9114,819.9141 L177.6975,819.9141 " fill="none" style="stroke:#000000;stroke-width:1.5;"/><text fill="#000000" font-family="Microsoft YaHei" font-size="14" font-weight="bold" lengthAdjust="spacing" textLength="104.2139" x="180.6975" y="814.6123">&#38454;&#27573;3: &#25552;&#20132;&#20195;&#30721;</text><path d="M284.6682,841.332 L284.6682,849.8984 L264.6682,853.8984 L284.6682,857.8984 L284.6682,866.4648 A0,0 0 0 0 284.6682,866.4648 L403.7205,866.4648 A0,0 0 0 0 403.7205,866.4648 L403.7205,851.332 L393.7205,841.332 L284.6682,841.332 A0,0 0 0 0 284.6682,841.332 " fill="#ADD8E6" style="stroke:#181818;stroke-width:0.5;"/><path d="M393.7205,841.332 L393.7205,851.332 L403.7205,851.332 L393.7205,841.332 " fill="#ADD8E6" style="stroke:#181818;stroke-width:0.5;"/><text fill="#000000" font-family="Microsoft YaHei" font-size="13" lengthAdjust="spacing" textLength="98.0522" x="290.6682" y="858.3989">git add &lt;files&gt;</text><rect fill="#F1F1F1" height="33.9688" rx="12.5" ry="12.5" style="stroke:#181818;stroke-width:0.5;" width="68" x="196.6682" y="836.9141"/><text fill="#000000" font-family="Microsoft YaHei" font-size="12" lengthAdjust="spacing" textLength="48" x="206.6682" y="858.0527">&#26242;&#23384;&#20462;&#25913;</text><path d="M284.6682,880.8828 L284.6682,949.9805 L264.6682,953.9805 L284.6682,957.9805 L284.6682,1027.0781 A0,0 0 0 0 284.6682,1027.0781 L459.072,1027.0781 A0,0 0 0 0 459.072,1027.0781 L459.072,890.8828 L449.072,880.8828 L284.6682,880.8828 A0,0 0 0 0 284.6682,880.8828 " fill="#FFFACD" style="stroke:#181818;stroke-width:0.5;"/><path d="M449.072,880.8828 L449.072,890.8828 L459.072,890.8828 L449.072,880.8828 " fill="#FFFACD" style="stroke:#181818;stroke-width:0.5;"/><text fill="#000000" font-family="Microsoft YaHei" font-size="13" lengthAdjust="spacing" textLength="82.3799" x="290.6682" y="897.9497">&#25552;&#20132;&#20449;&#24687;&#26684;&#24335;:</text><text fill="#000000" font-family="Microsoft YaHei" font-size="13" lengthAdjust="spacing" textLength="153.4038" x="290.6682" y="913.0825">&lt;type&gt;: &lt;description&gt;</text><text fill="#000000" font-family="Microsoft YaHei" font-size="13" lengthAdjust="spacing" textLength="4.1323" x="290.6682" y="928.2153">&#160;</text><text fill="#000000" font-family="Microsoft YaHei" font-size="13" lengthAdjust="spacing" textLength="30.3799" x="290.6682" y="943.3481">&#31867;&#22411;:</text><text fill="#000000" font-family="Microsoft YaHei" font-size="13" lengthAdjust="spacing" textLength="81.9736" x="290.6682" y="958.481">- feat: &#26032;&#21151;&#33021;</text><text fill="#000000" font-family="Microsoft YaHei" font-size="13" lengthAdjust="spacing" textLength="59.2173" x="290.6682" y="973.6138">- fix: &#20462;&#22797;</text><text fill="#000000" font-family="Microsoft YaHei" font-size="13" lengthAdjust="spacing" textLength="73.4614" x="290.6682" y="988.7466">- docs: &#25991;&#26723;</text><text fill="#000000" font-family="Microsoft YaHei" font-size="13" lengthAdjust="spacing" textLength="68.3008" x="290.6682" y="1003.8794">- test: &#27979;&#35797;</text><text fill="#000000" font-family="Microsoft YaHei" font-size="13" lengthAdjust="spacing" textLength="94.7642" x="290.6682" y="1019.0122">- refactor: &#37325;&#26500;</text><rect fill="#F1F1F1" height="33.9688" rx="12.5" ry="12.5" style="stroke:#181818;stroke-width:0.5;" width="68" x="196.6682" y="936.9961"/><text fill="#000000" font-family="Microsoft YaHei" font-size="12" lengthAdjust="spacing" textLength="48" x="206.6682" y="958.1348">&#25552;&#20132;&#20195;&#30721;</text><path d="M293.6389,1051.4961 L293.6389,1060.0625 L273.6389,1064.0625 L293.6389,1068.0625 L293.6389,1076.6289 A0,0 0 0 0 293.6389,1076.6289 L545.2556,1076.6289 A0,0 0 0 0 545.2556,1076.6289 L545.2556,1061.4961 L535.2556,1051.4961 L293.6389,1051.4961 A0,0 0 0 0 293.6389,1051.4961 " fill="#ADD8E6" style="stroke:#181818;stroke-width:0.5;"/><path d="M535.2556,1051.4961 L535.2556,1061.4961 L545.2556,1061.4961 L535.2556,1051.4961 " fill="#ADD8E6" style="stroke:#181818;stroke-width:0.5;"/><text fill="#000000" font-family="Microsoft YaHei" font-size="13" lengthAdjust="spacing" textLength="230.6167" x="299.6389" y="1068.563">git push origin feature/your-feature</text><rect fill="#F1F1F1" height="33.9688" rx="12.5" ry="12.5" style="stroke:#181818;stroke-width:0.5;" width="85.9414" x="187.6975" y="1047.0781"/><text fill="#000000" font-family="Microsoft YaHei" font-size="12" lengthAdjust="spacing" textLength="65.9414" x="197.6975" y="1068.2168">&#25512;&#36865;&#21040; Fork</text><rect fill="#FFC0CB" height="439.6953" style="stroke:#000000;stroke-width:1.5;" width="441.8997" x="11" y="1103.0469"/><path d="M201.5713,1103.0469 L201.5713,1112.3438 L191.5713,1122.3438 L11,1122.3438 " fill="none" style="stroke:#000000;stroke-width:1.5;"/><text fill="#000000" font-family="Microsoft YaHei" font-size="14" font-weight="bold" lengthAdjust="spacing" textLength="180.5713" x="14" y="1117.042">&#38454;&#27573;4: &#21019;&#24314; Pull Request</text><path d="M282.3625,1132.3438 L282.3625,1171.1758 L262.3625,1175.1758 L282.3625,1179.1758 L282.3625,1218.0078 A0,0 0 0 0 282.3625,1218.0078 L434.0608,1218.0078 A0,0 0 0 0 434.0608,1218.0078 L434.0608,1142.3438 L424.0608,1132.3438 L282.3625,1132.3438 A0,0 0 0 0 282.3625,1132.3438 " fill="#FFFACD" style="stroke:#181818;stroke-width:0.5;"/><path d="M424.0608,1132.3438 L424.0608,1142.3438 L434.0608,1142.3438 L424.0608,1132.3438 " fill="#FFFACD" style="stroke:#181818;stroke-width:0.5;"/><text fill="#000000" font-family="Microsoft YaHei" font-size="13" lengthAdjust="spacing" textLength="130.6982" x="288.3625" y="1149.4106">&#22312; GitHub &#19978;&#21019;&#24314; PR:</text><text fill="#000000" font-family="Microsoft YaHei" font-size="13" lengthAdjust="spacing" textLength="73.8232" x="288.3625" y="1164.5435">- &#28165;&#26224;&#30340;&#26631;&#39064;</text><text fill="#000000" font-family="Microsoft YaHei" font-size="13" lengthAdjust="spacing" textLength="73.8232" x="288.3625" y="1179.6763">- &#35814;&#32454;&#30340;&#25551;&#36848;</text><text fill="#000000" font-family="Microsoft YaHei" font-size="13" lengthAdjust="spacing" textLength="85.5728" x="288.3625" y="1194.8091">- &#20851;&#32852;&#30340; Issue</text><text fill="#000000" font-family="Microsoft YaHei" font-size="13" lengthAdjust="spacing" textLength="60.8232" x="288.3625" y="1209.9419">- &#27979;&#35797;&#35828;&#26126;</text><rect fill="#F1F1F1" height="33.9688" rx="12.5" ry="12.5" style="stroke:#181818;stroke-width:0.5;" width="63.3887" x="198.9739" y="1158.1914"/><text fill="#000000" font-family="Microsoft YaHei" font-size="12" lengthAdjust="spacing" textLength="43.3887" x="208.9739" y="1179.3301">&#21019;&#24314; PR</text><path d="M313.5198,1228.0078 L313.5198,1259.2734 L293.5198,1263.2734 L313.5198,1267.2734 L313.5198,1298.5391 A0,0 0 0 0 313.5198,1298.5391 L442.8997,1298.5391 A0,0 0 0 0 442.8997,1298.5391 L442.8997,1238.0078 L432.8997,1228.0078 L313.5198,1228.0078 A0,0 0 0 0 313.5198,1228.0078 " fill="#E0FFFF" style="stroke:#181818;stroke-width:0.5;"/><path d="M432.8997,1228.0078 L432.8997,1238.0078 L442.8997,1238.0078 L432.8997,1228.0078 " fill="#E0FFFF" style="stroke:#181818;stroke-width:0.5;"/><text fill="#000000" font-family="Microsoft YaHei" font-size="13" lengthAdjust="spacing" textLength="108.3799" x="319.5198" y="1245.0747">&#32500;&#25252;&#32773;&#20250;&#23457;&#26597;&#20195;&#30721;:</text><text fill="#000000" font-family="Microsoft YaHei" font-size="13" lengthAdjust="spacing" textLength="60.8232" x="319.5198" y="1260.2075">- &#20195;&#30721;&#36136;&#37327;</text><text fill="#000000" font-family="Microsoft YaHei" font-size="13" lengthAdjust="spacing" textLength="73.8232" x="319.5198" y="1275.3403">- &#27979;&#35797;&#35206;&#30422;&#29575;</text><text fill="#000000" font-family="Microsoft YaHei" font-size="13" lengthAdjust="spacing" textLength="73.8232" x="319.5198" y="1290.4731">- &#25991;&#26723;&#23436;&#25972;&#24615;</text><rect fill="#F1F1F1" height="33.9688" rx="12.5" ry="12.5" style="stroke:#181818;stroke-width:0.5;" width="125.7031" x="167.8167" y="1246.2891"/><text fill="#000000" font-family="Microsoft YaHei" font-size="12" lengthAdjust="spacing" textLength="105.7031" x="177.8167" y="1267.4277">&#31561;&#24453; Code Review</text><polygon fill="#F1F1F1" points="205.749,1318.5391,255.5874,1318.5391,267.5874,1330.5391,255.5874,1342.5391,205.749,1342.5391,193.749,1330.5391,205.749,1318.5391" style="stroke:#181818;stroke-width:0.5;"/><text fill="#000000" font-family="Microsoft YaHei" font-size="11" lengthAdjust="spacing" textLength="49.8384" x="205.749" y="1334.3472">&#38656;&#35201;&#20462;&#25913;?</text><text fill="#000000" font-family="Microsoft YaHei" font-size="11" lengthAdjust="spacing" textLength="19.0083" x="174.7407" y="1327.9448">yes</text><text fill="#000000" font-family="Microsoft YaHei" font-size="11" lengthAdjust="spacing" textLength="13.7017" x="267.5874" y="1327.9448">no</text><path d="M151.8516,1352.5391 L151.8516,1368.6719 L131.8516,1372.6719 L151.8516,1376.6719 L151.8516,1392.8047 A0,0 0 0 0 151.8516,1392.8047 L310.856,1392.8047 A0,0 0 0 0 310.856,1392.8047 L310.856,1362.5391 L300.856,1352.5391 L151.8516,1352.5391 A0,0 0 0 0 151.8516,1352.5391 " fill="#FFB6C1" style="stroke:#181818;stroke-width:0.5;"/><path d="M300.856,1352.5391 L300.856,1362.5391 L310.856,1362.5391 L300.856,1352.5391 " fill="#FFB6C1" style="stroke:#181818;stroke-width:0.5;"/><text fill="#000000" font-family="Microsoft YaHei" font-size="13" lengthAdjust="spacing" textLength="104" x="157.8516" y="1369.606">&#22312;&#21516;&#19968;&#20998;&#25903;&#19978;&#20462;&#25913;</text><text fill="#000000" font-family="Microsoft YaHei" font-size="13" lengthAdjust="spacing" textLength="138.0044" x="157.8516" y="1384.7388">&#25512;&#36865;&#26356;&#26032;&#20250;&#33258;&#21160;&#26356;&#26032; PR</text><rect fill="#F1F1F1" height="33.9688" rx="12.5" ry="12.5" style="stroke:#181818;stroke-width:0.5;" width="92" x="39.8516" y="1355.6875"/><text fill="#000000" font-family="Microsoft YaHei" font-size="12" lengthAdjust="spacing" textLength="72" x="49.8516" y="1376.8262">&#26681;&#25454;&#21453;&#39304;&#20462;&#25913;</text><rect fill="#F1F1F1" height="33.9688" rx="12.5" ry="12.5" style="stroke:#181818;stroke-width:0.5;" width="68" x="51.8516" y="1412.8047"/><text fill="#000000" font-family="Microsoft YaHei" font-size="12" lengthAdjust="spacing" textLength="48" x="61.8516" y="1433.9434">&#25512;&#36865;&#26356;&#26032;</text><rect fill="#F1F1F1" height="33.9688" rx="12.5" ry="12.5" style="stroke:#181818;stroke-width:0.5;" width="125.7031" x="23" y="1466.7734"/><text fill="#000000" font-family="Microsoft YaHei" font-size="12" lengthAdjust="spacing" textLength="105.7031" x="33" y="1487.9121">&#31561;&#24453; Code Review</text><rect fill="#F1F1F1" height="33.9688" rx="12.5" ry="12.5" style="stroke:#181818;stroke-width:0.5;" width="89.2578" x="330.856" y="1352.5391"/><text fill="#000000" font-family="Microsoft YaHei" font-size="12" lengthAdjust="spacing" textLength="69.2578" x="340.856" y="1373.6777">&#10003; PR &#34987;&#25209;&#20934;</text><polygon fill="#F1F1F1" points="230.6682,1506.7422,242.6682,1518.7422,230.6682,1530.7422,218.6682,1518.7422,230.6682,1506.7422" style="stroke:#181818;stroke-width:0.5;"/><rect fill="#E6E6FA" height="276.8828" style="stroke:#000000;stroke-width:1.5;" width="428.436" x="170.9739" y="1552.7422"/><path d="M299.1877,1552.7422 L299.1877,1562.0391 L289.1877,1572.0391 L170.9739,1572.0391 " fill="none" style="stroke:#000000;stroke-width:1.5;"/><text fill="#000000" font-family="Microsoft YaHei" font-size="14" font-weight="bold" lengthAdjust="spacing" textLength="118.2139" x="173.9739" y="1566.7373">&#38454;&#27573;5: &#21512;&#24182;&#19982;&#28165;&#29702;</text><path d="M300.3625,1588.8906 L300.3625,1605.0234 L280.3625,1609.0234 L300.3625,1613.0234 L300.3625,1629.1563 A0,0 0 0 0 300.3625,1629.1563 L450.1121,1629.1563 A0,0 0 0 0 450.1121,1629.1563 L450.1121,1598.8906 L440.1121,1588.8906 L300.3625,1588.8906 A0,0 0 0 0 300.3625,1588.8906 " fill="#98FB98" style="stroke:#181818;stroke-width:0.5;"/><path d="M440.1121,1588.8906 L440.1121,1598.8906 L450.1121,1598.8906 L440.1121,1588.8906 " fill="#98FB98" style="stroke:#181818;stroke-width:0.5;"/><text fill="#000000" font-family="Microsoft YaHei" font-size="13" lengthAdjust="spacing" textLength="105.7456" x="306.3625" y="1605.9575">&#21512;&#24182;&#21040; main &#20998;&#25903;</text><text fill="#000000" font-family="Microsoft YaHei" font-size="13" lengthAdjust="spacing" textLength="128.7495" x="306.3625" y="1621.0903">&#33258;&#21160;&#20851;&#38381;&#20851;&#32852;&#30340; Issue</text><rect fill="#F1F1F1" height="33.9688" rx="12.5" ry="12.5" style="stroke:#181818;stroke-width:0.5;" width="99.3887" x="180.9739" y="1592.0391"/><text fill="#000000" font-family="Microsoft YaHei" font-size="12" lengthAdjust="spacing" textLength="79.3887" x="190.9739" y="1613.1777">&#32500;&#25252;&#32773;&#21512;&#24182; PR</text><path d="M290.6682,1639.1563 L290.6682,1670.4219 L270.6682,1674.4219 L290.6682,1678.4219 L290.6682,1709.6875 A0,0 0 0 0 290.6682,1709.6875 L589.4099,1709.6875 A0,0 0 0 0 589.4099,1709.6875 L589.4099,1649.1563 L579.4099,1639.1563 L290.6682,1639.1563 A0,0 0 0 0 290.6682,1639.1563 " fill="#ADD8E6" style="stroke:#181818;stroke-width:0.5;"/><path d="M579.4099,1639.1563 L579.4099,1649.1563 L589.4099,1649.1563 L579.4099,1639.1563 " fill="#ADD8E6" style="stroke:#181818;stroke-width:0.5;"/><text fill="#000000" font-family="Microsoft YaHei" font-size="13" lengthAdjust="spacing" textLength="277.7417" x="296.6682" y="1656.2231">git remote add upstream &lt;main-repo-url&gt;</text><text fill="#000000" font-family="Microsoft YaHei" font-size="13" lengthAdjust="spacing" textLength="120.6182" x="296.6682" y="1671.356">git fetch upstream</text><text fill="#000000" font-family="Microsoft YaHei" font-size="13" lengthAdjust="spacing" textLength="117.0571" x="296.6682" y="1686.4888">git checkout main</text><text fill="#000000" font-family="Microsoft YaHei" font-size="13" lengthAdjust="spacing" textLength="166.6768" x="296.6682" y="1701.6216">git merge upstream/main</text><rect fill="#F1F1F1" height="33.9688" rx="12.5" ry="12.5" style="stroke:#181818;stroke-width:0.5;" width="80" x="190.6682" y="1657.4375"/><text fill="#000000" font-family="Microsoft YaHei" font-size="12" lengthAdjust="spacing" textLength="60" x="200.6682" y="1678.5762">&#21516;&#27493;&#20027;&#20179;&#24211;</text><path d="M296.6682,1734.1055 L296.6682,1742.6719 L276.6682,1746.6719 L296.6682,1750.6719 L296.6682,1759.2383 A0,0 0 0 0 296.6682,1759.2383 L537.9001,1759.2383 A0,0 0 0 0 537.9001,1759.2383 L537.9001,1744.1055 L527.9001,1734.1055 L296.6682,1734.1055 A0,0 0 0 0 296.6682,1734.1055 " fill="#E0FFFF" style="stroke:#181818;stroke-width:0.5;"/><path d="M527.9001,1734.1055 L527.9001,1744.1055 L537.9001,1744.1055 L527.9001,1734.1055 " fill="#E0FFFF" style="stroke:#181818;stroke-width:0.5;"/><text fill="#000000" font-family="Microsoft YaHei" font-size="13" lengthAdjust="spacing" textLength="220.2319" x="302.6682" y="1751.1724">git branch -d feature/your-feature</text><rect fill="#F1F1F1" height="33.9688" rx="12.5" ry="12.5" style="stroke:#181818;stroke-width:0.5;" width="92" x="184.6682" y="1729.6875"/><text fill="#000000" font-family="Microsoft YaHei" font-size="12" lengthAdjust="spacing" textLength="72" x="194.6682" y="1750.8262">&#21024;&#38500;&#26412;&#22320;&#20998;&#25903;</text><rect fill="#F1F1F1" height="33.9688" rx="12.5" ry="12.5" style="stroke:#181818;stroke-width:0.5;" width="81.8691" x="189.7336" y="1783.6563"/><text fill="#000000" font-family="Microsoft YaHei" font-size="12" lengthAdjust="spacing" textLength="61.8691" x="199.7336" y="1804.7949">&#10003; &#36129;&#29486;&#23436;&#25104;</text><path d="M302.6682,1854.043 L302.6682,1862.6094 L282.6682,1866.6094 L302.6682,1870.6094 L302.6682,1879.1758 A0,0 0 0 0 302.6682,1879.1758 L414.6682,1879.1758 A0,0 0 0 0 414.6682,1879.1758 L414.6682,1864.043 L404.6682,1854.043 L302.6682,1854.043 A0,0 0 0 0 302.6682,1854.043 " fill="#98FB98" style="stroke:#181818;stroke-width:0.5;"/><path d="M404.6682,1854.043 L404.6682,1864.043 L414.6682,1864.043 L404.6682,1854.043 " fill="#98FB98" style="stroke:#181818;stroke-width:0.5;"/><text fill="#000000" font-family="Microsoft YaHei" font-size="13" lengthAdjust="spacing" textLength="91" x="308.6682" y="1871.1099">&#24863;&#35874;&#24744;&#30340;&#36129;&#29486;&#65281;</text><rect fill="#F1F1F1" height="33.9688" rx="12.5" ry="12.5" style="stroke:#181818;stroke-width:0.5;" width="104" x="178.6682" y="1849.625"/><text fill="#000000" font-family="Microsoft YaHei" font-size="12" lengthAdjust="spacing" textLength="84" x="188.6682" y="1870.7637">&#32487;&#32493;&#19979;&#19968;&#20010;&#36129;&#29486;</text><ellipse cx="230.6682" cy="1914.5938" fill="none" rx="11" ry="11" style="stroke:#222222;stroke-width:1;"/><ellipse cx="230.6682" cy="1914.5938" fill="#222222" rx="6" ry="6" style="stroke:#222222;stroke-width:1;"/><line style="stroke:#181818;stroke-width:1;" x1="230.6682" x2="230.6682" y1="114.7109" y2="137.8594"/><polygon fill="#181818" points="226.6682,127.8594,230.6682,137.8594,234.6682,127.8594,230.6682,131.8594" style="stroke:#181818;stroke-width:1;"/><line style="stroke:#181818;stroke-width:1;" x1="230.6682" x2="230.6682" y1="171.8281" y2="195.6914"/><polygon fill="#181818" points="226.6682,185.6914,230.6682,195.6914,234.6682,185.6914,230.6682,189.6914" style="stroke:#181818;stroke-width:1;"/><line style="stroke:#181818;stroke-width:1;" x1="230.6682" x2="230.6682" y1="229.6602" y2="261.0898"/><polygon fill="#181818" points="226.6682,251.0898,230.6682,261.0898,234.6682,251.0898,230.6682,255.0898" style="stroke:#181818;stroke-width:1;"/><line style="stroke:#181818;stroke-width:1;" x1="230.6682" x2="230.6682" y1="401.7539" y2="433.1836"/><polygon fill="#181818" points="226.6682,423.1836,230.6682,433.1836,234.6682,423.1836,230.6682,427.1836" style="stroke:#181818;stroke-width:1;"/><line style="stroke:#181818;stroke-width:1;" x1="230.6682" x2="230.6682" y1="467.1523" y2="497.8672"/><polygon fill="#181818" points="226.6682,487.8672,230.6682,497.8672,234.6682,487.8672,230.6682,491.8672" style="stroke:#181818;stroke-width:1;"/><line style="stroke:#181818;stroke-width:1;" x1="278.1355" x2="278.1355" y1="626.1016" y2="649.25"/><polygon fill="#181818" points="274.1355,639.25,278.1355,649.25,282.1355,639.25,278.1355,643.25" style="stroke:#181818;stroke-width:1;"/><line style="stroke:#181818;stroke-width:1;" x1="193.749" x2="183.2009" y1="566.9844" y2="566.9844"/><line style="stroke:#181818;stroke-width:1;" x1="183.2009" x2="183.2009" y1="566.9844" y2="588.9844"/><polygon fill="#181818" points="179.2009,578.9844,183.2009,588.9844,187.2009,578.9844,183.2009,582.9844" style="stroke:#181818;stroke-width:1;"/><line style="stroke:#181818;stroke-width:1;" x1="267.5874" x2="278.1355" y1="566.9844" y2="566.9844"/><line style="stroke:#181818;stroke-width:1;" x1="278.1355" x2="278.1355" y1="566.9844" y2="592.1328"/><polygon fill="#181818" points="274.1355,582.1328,278.1355,592.1328,282.1355,582.1328,278.1355,586.1328" style="stroke:#181818;stroke-width:1;"/><line style="stroke:#181818;stroke-width:1;" x1="183.2009" x2="183.2009" y1="622.9531" y2="701.2188"/><line style="stroke:#181818;stroke-width:1;" x1="183.2009" x2="218.6682" y1="701.2188" y2="701.2188"/><polygon fill="#181818" points="208.6682,697.2188,218.6682,701.2188,208.6682,705.2188,212.6682,701.2188" style="stroke:#181818;stroke-width:1;"/><line style="stroke:#181818;stroke-width:1;" x1="278.1355" x2="278.1355" y1="683.2188" y2="701.2188"/><line style="stroke:#181818;stroke-width:1;" x1="278.1355" x2="242.6682" y1="701.2188" y2="701.2188"/><polygon fill="#181818" points="252.6682,697.2188,242.6682,701.2188,252.6682,705.2188,248.6682,701.2188" style="stroke:#181818;stroke-width:1;"/><line style="stroke:#181818;stroke-width:1;" x1="230.6682" x2="230.6682" y1="531.8359" y2="554.9844"/><polygon fill="#181818" points="226.6682,544.9844,230.6682,554.9844,234.6682,544.9844,230.6682,548.9844" style="stroke:#181818;stroke-width:1;"/><line style="stroke:#181818;stroke-width:1;" x1="230.6682" x2="230.6682" y1="713.2188" y2="733.9336"/><polygon fill="#181818" points="226.6682,723.9336,230.6682,733.9336,234.6682,723.9336,230.6682,727.9336" style="stroke:#181818;stroke-width:1;"/><line style="stroke:#181818;stroke-width:1;" x1="230.6682" x2="230.6682" y1="295.0586" y2="367.7852"/><polygon fill="#181818" points="226.6682,357.7852,230.6682,367.7852,234.6682,357.7852,230.6682,361.7852" style="stroke:#181818;stroke-width:1;"/><line style="stroke:#181818;stroke-width:1;" x1="230.6682" x2="230.6682" y1="870.8828" y2="936.9961"/><polygon fill="#181818" points="226.6682,926.9961,230.6682,936.9961,234.6682,926.9961,230.6682,930.9961" style="stroke:#181818;stroke-width:1;"/><line style="stroke:#181818;stroke-width:1;" x1="230.6682" x2="230.6682" y1="970.9648" y2="1047.0781"/><polygon fill="#181818" points="226.6682,1037.0781,230.6682,1047.0781,234.6682,1037.0781,230.6682,1041.0781" style="stroke:#181818;stroke-width:1;"/><line style="stroke:#181818;stroke-width:1;" x1="230.6682" x2="230.6682" y1="767.9023" y2="836.9141"/><polygon fill="#181818" points="226.6682,826.9141,230.6682,836.9141,234.6682,826.9141,230.6682,830.9141" style="stroke:#181818;stroke-width:1;"/><line style="stroke:#181818;stroke-width:1;" x1="230.6682" x2="230.6682" y1="1192.1602" y2="1246.2891"/><polygon fill="#181818" points="226.6682,1236.2891,230.6682,1246.2891,234.6682,1236.2891,230.6682,1240.2891" style="stroke:#181818;stroke-width:1;"/><line style="stroke:#181818;stroke-width:1;" x1="85.8516" x2="85.8516" y1="1389.6563" y2="1412.8047"/><polygon fill="#181818" points="81.8516,1402.8047,85.8516,1412.8047,89.8516,1402.8047,85.8516,1406.8047" style="stroke:#181818;stroke-width:1;"/><line style="stroke:#181818;stroke-width:1;" x1="85.8516" x2="85.8516" y1="1446.7734" y2="1466.7734"/><polygon fill="#181818" points="81.8516,1456.7734,85.8516,1466.7734,89.8516,1456.7734,85.8516,1460.7734" style="stroke:#181818;stroke-width:1;"/><line style="stroke:#181818;stroke-width:1;" x1="193.749" x2="85.8516" y1="1330.5391" y2="1330.5391"/><line style="stroke:#181818;stroke-width:1;" x1="85.8516" x2="85.8516" y1="1330.5391" y2="1355.6875"/><polygon fill="#181818" points="81.8516,1345.6875,85.8516,1355.6875,89.8516,1345.6875,85.8516,1349.6875" style="stroke:#181818;stroke-width:1;"/><line style="stroke:#181818;stroke-width:1;" x1="267.5874" x2="375.4849" y1="1330.5391" y2="1330.5391"/><line style="stroke:#181818;stroke-width:1;" x1="375.4849" x2="375.4849" y1="1330.5391" y2="1352.5391"/><polygon fill="#181818" points="371.4849,1342.5391,375.4849,1352.5391,379.4849,1342.5391,375.4849,1346.5391" style="stroke:#181818;stroke-width:1;"/><line style="stroke:#181818;stroke-width:1;" x1="85.8516" x2="85.8516" y1="1500.7422" y2="1518.7422"/><line style="stroke:#181818;stroke-width:1;" x1="85.8516" x2="218.6682" y1="1518.7422" y2="1518.7422"/><polygon fill="#181818" points="208.6682,1514.7422,218.6682,1518.7422,208.6682,1522.7422,212.6682,1518.7422" style="stroke:#181818;stroke-width:1;"/><line style="stroke:#181818;stroke-width:1;" x1="375.4849" x2="375.4849" y1="1386.5078" y2="1518.7422"/><line style="stroke:#181818;stroke-width:1;" x1="375.4849" x2="242.6682" y1="1518.7422" y2="1518.7422"/><polygon fill="#181818" points="252.6682,1514.7422,242.6682,1518.7422,252.6682,1522.7422,248.6682,1518.7422" style="stroke:#181818;stroke-width:1;"/><line style="stroke:#181818;stroke-width:1;" x1="230.6682" x2="230.6682" y1="1280.2578" y2="1318.5391"/><polygon fill="#181818" points="226.6682,1308.5391,230.6682,1318.5391,234.6682,1308.5391,230.6682,1312.5391" style="stroke:#181818;stroke-width:1;"/><line style="stroke:#181818;stroke-width:1;" x1="230.6682" x2="230.6682" y1="1081.0469" y2="1158.1914"/><polygon fill="#181818" points="226.6682,1148.1914,230.6682,1158.1914,234.6682,1148.1914,230.6682,1152.1914" style="stroke:#181818;stroke-width:1;"/><line style="stroke:#181818;stroke-width:1;" x1="230.6682" x2="230.6682" y1="1626.0078" y2="1657.4375"/><polygon fill="#181818" points="226.6682,1647.4375,230.6682,1657.4375,234.6682,1647.4375,230.6682,1651.4375" style="stroke:#181818;stroke-width:1;"/><line style="stroke:#181818;stroke-width:1;" x1="230.6682" x2="230.6682" y1="1691.4063" y2="1729.6875"/><polygon fill="#181818" points="226.6682,1719.6875,230.6682,1729.6875,234.6682,1719.6875,230.6682,1723.6875" style="stroke:#181818;stroke-width:1;"/><line style="stroke:#181818;stroke-width:1;" x1="230.6682" x2="230.6682" y1="1763.6563" y2="1783.6563"/><polygon fill="#181818" points="226.6682,1773.6563,230.6682,1783.6563,234.6682,1773.6563,230.6682,1777.6563" style="stroke:#181818;stroke-width:1;"/><line style="stroke:#181818;stroke-width:1;" x1="230.6682" x2="230.6682" y1="1530.7422" y2="1592.0391"/><polygon fill="#181818" points="226.6682,1582.0391,230.6682,1592.0391,234.6682,1582.0391,230.6682,1586.0391" style="stroke:#181818;stroke-width:1;"/><line style="stroke:#181818;stroke-width:1;" x1="230.6682" x2="230.6682" y1="1817.625" y2="1849.625"/><polygon fill="#181818" points="226.6682,1839.625,230.6682,1849.625,234.6682,1839.625,230.6682,1843.625" style="stroke:#181818;stroke-width:1;"/><line style="stroke:#181818;stroke-width:1;" x1="230.6682" x2="230.6682" y1="1883.5938" y2="1903.5938"/><polygon fill="#181818" points="226.6682,1893.5938,230.6682,1903.5938,234.6682,1893.5938,230.6682,1897.5938" style="stroke:#181818;stroke-width:1;"/><rect fill="none" height="176.9688" id="_legend" rx="7.5" ry="7.5" style="stroke:#000000;stroke-width:1;" width="176.1406" x="409.2693" y="1936.5938"/><text fill="#000000" font-family="Microsoft YaHei" font-size="14" font-weight="bold" lengthAdjust="spacing" textLength="28" x="419.1433" y="1956.5889">&#39068;&#33394;</text><text fill="#000000" font-family="Microsoft YaHei" font-size="14" font-weight="bold" lengthAdjust="spacing" textLength="28" x="456.8914" y="1956.5889">&#38454;&#27573;</text><rect fill="#E0FFFF" height="16.2969" style="stroke:none;stroke-width:1;" width="37.748" x="414.2693" y="1959.8906"/><text fill="#000000" font-family="Microsoft YaHei" font-size="14" lengthAdjust="spacing" textLength="4.4502" x="414.2693" y="1972.8857">&#160;</text><text fill="#000000" font-family="Microsoft YaHei" font-size="14" lengthAdjust="spacing" textLength="56" x="456.4675" y="1972.8857">&#20934;&#22791;&#24037;&#20316;</text><rect fill="#90EE90" height="16.2969" style="stroke:none;stroke-width:1;" width="37.748" x="414.2693" y="1976.1875"/><text fill="#000000" font-family="Microsoft YaHei" font-size="14" lengthAdjust="spacing" textLength="4.4502" x="414.2693" y="1989.1826">&#160;</text><text fill="#000000" font-family="Microsoft YaHei" font-size="14" lengthAdjust="spacing" textLength="70" x="456.4675" y="1989.1826">&#24320;&#21457;&#19982;&#27979;&#35797;</text><rect fill="#FFFFE0" height="16.2969" style="stroke:none;stroke-width:1;" width="37.748" x="414.2693" y="1992.4844"/><text fill="#000000" font-family="Microsoft YaHei" font-size="14" lengthAdjust="spacing" textLength="4.4502" x="414.2693" y="2005.4795">&#160;</text><text fill="#000000" font-family="Microsoft YaHei" font-size="14" lengthAdjust="spacing" textLength="56" x="456.4675" y="2005.4795">&#25552;&#20132;&#20195;&#30721;</text><rect fill="#FFC0CB" height="16.2969" style="stroke:none;stroke-width:1;" width="37.748" x="414.2693" y="2008.7813"/><text fill="#000000" font-family="Microsoft YaHei" font-size="14" lengthAdjust="spacing" textLength="4.4502" x="414.2693" y="2021.7764">&#160;</text><text fill="#000000" font-family="Microsoft YaHei" font-size="14" lengthAdjust="spacing" textLength="119.4922" x="456.4675" y="2021.7764">&#21019;&#24314; Pull Request</text><rect fill="#E6E6FA" height="16.2969" style="stroke:none;stroke-width:1;" width="37.748" x="414.2693" y="2025.0781"/><text fill="#000000" font-family="Microsoft YaHei" font-size="14" lengthAdjust="spacing" textLength="4.4502" x="414.2693" y="2038.0732">&#160;</text><text fill="#000000" font-family="Microsoft YaHei" font-size="14" lengthAdjust="spacing" textLength="70" x="456.4675" y="2038.0732">&#21512;&#24182;&#19982;&#28165;&#29702;</text><rect fill="#ADD8E6" height="16.2969" style="stroke:none;stroke-width:1;" width="37.748" x="414.2693" y="2041.375"/><text fill="#000000" font-family="Microsoft YaHei" font-size="14" lengthAdjust="spacing" textLength="4.4502" x="414.2693" y="2054.3701">&#160;</text><text fill="#000000" font-family="Microsoft YaHei" font-size="14" lengthAdjust="spacing" textLength="56" x="456.4675" y="2054.3701">&#37197;&#32622;&#20449;&#24687;</text><rect fill="#FFFACD" height="16.2969" style="stroke:none;stroke-width:1;" width="37.748" x="414.2693" y="2057.6719"/><text fill="#000000" font-family="Microsoft YaHei" font-size="14" lengthAdjust="spacing" textLength="4.4502" x="414.2693" y="2070.667">&#160;</text><text fill="#000000" font-family="Microsoft YaHei" font-size="14" lengthAdjust="spacing" textLength="56" x="456.4675" y="2070.667">&#20851;&#38190;&#27493;&#39588;</text><rect fill="#FFB6C1" height="16.2969" style="stroke:none;stroke-width:1;" width="37.748" x="414.2693" y="2073.9688"/><text fill="#000000" font-family="Microsoft YaHei" font-size="14" lengthAdjust="spacing" textLength="4.4502" x="414.2693" y="2086.9639">&#160;</text><text fill="#000000" font-family="Microsoft YaHei" font-size="14" lengthAdjust="spacing" textLength="56" x="456.4675" y="2086.9639">&#38169;&#35823;&#22788;&#29702;</text><rect fill="#98FB98" height="16.2969" style="stroke:none;stroke-width:1;" width="37.748" x="414.2693" y="2090.2656"/><text fill="#000000" font-family="Microsoft YaHei" font-size="14" lengthAdjust="spacing" textLength="4.4502" x="414.2693" y="2103.2607">&#160;</text><text fill="#000000" font-family="Microsoft YaHei" font-size="14" lengthAdjust="spacing" textLength="56" x="456.4675" y="2103.2607">&#25104;&#21151;&#23436;&#25104;</text><line style="stroke:#000000;stroke-width:1;" x1="414.2693" x2="580.4099" y1="1943.5938" y2="1943.5938"/><line style="stroke:#000000;stroke-width:1;" x1="414.2693" x2="580.4099" y1="1959.8906" y2="1959.8906"/><line style="stroke:#000000;stroke-width:1;" x1="414.2693" x2="580.4099" y1="1976.1875" y2="1976.1875"/><line style="stroke:#000000;stroke-width:1;" x1="414.2693" x2="580.4099" y1="1992.4844" y2="1992.4844"/><line style="stroke:#000000;stroke-width:1;" x1="414.2693" x2="580.4099" y1="2008.7813" y2="2008.7813"/><line style="stroke:#000000;stroke-width:1;" x1="414.2693" x2="580.4099" y1="2025.0781" y2="2025.0781"/><line style="stroke:#000000;stroke-width:1;" x1="414.2693" x2="580.4099" y1="2041.375" y2="2041.375"/><line style="stroke:#000000;stroke-width:1;" x1="414.2693" x2="580.4099" y1="2057.6719" y2="2057.6719"/><line style="stroke:#000000;stroke-width:1;" x1="414.2693" x2="580.4099" y1="2073.9688" y2="2073.9688"/><line style="stroke:#000000;stroke-width:1;" x1="414.2693" x2="580.4099" y1="2090.2656" y2="2090.2656"/><line style="stroke:#000000;stroke-width:1;" x1="414.2693" x2="580.4099" y1="2106.5625" y2="2106.5625"/><line style="stroke:#000000;stroke-width:1;" x1="414.2693" x2="414.2693" y1="1943.5938" y2="2106.5625"/><line style="stroke:#000000;stroke-width:1;" x1="452.0173" x2="452.0173" y1="1943.5938" y2="2106.5625"/><line style="stroke:#000000;stroke-width:1;" x1="580.4099" x2="580.4099" y1="1943.5938" y2="2106.5625"/><!--SRC=[ZLRhJnDP5F_Ul-96iucIbEhg6Yp8Hb5qazqDyPkVDjFsjfrbEjET1zfTDsaLQ7bt8oAloAj0mqgB2beioFzYvjwP-RJ_mjv7EsrbAF81c7D-zvnpp-DtZpOeoab15H8W98G7OwfYo94-HL9Ky3Wkwj2dkVe8Z0g6fFShilwha83W5p6iAfeIrS4ZuG4KVJvTr2K8xFqrQxA4FcwQnylu86CL9z3IPv-Fs21wKP71XOuEP_u3BXrS3GAK7KM5B0TtT5m05tyMOt6zBoN8u2yV83_1VaKT16Rr1Vhqefj9P4M7GAKmSF7stRjTzsumCLekWlkY_i080RCo3kYn85F4TJsf1GE1cAZ7ZL1dM4a4ukAVSIZ7VXS5EJ1eF17b64D2ESAi-xXdD3BXB8wYt1vUVeEMzzfw9yP1M59a27fIYg7weyIztr2bNgODHq0RDxabLFs4Zj9evX-K6yMpvTEU-llxR_VTRNYAm_2WOkZ07m9HAEY62WFSBVzWG9oRypuWFk7Wa14Z_tk5v8nCMSSb7f8rNKRhpzjUFfdIuufy3VWJO0ZAG-mNKsZ4JHYoxq18b0D2M1U719t7bnIJG9GrNP0au8UWipMGlpqxvdlICImgipAD3oRiyij6qznN8NIxnZgQGwCBPdN3MisqJQUJEK2VTy30lG7G1UpjONloES_UnoeQNxNULj7h2Vo-Q6zlC36tY-UoU6q3xRwotcoPbNTUAQm1MOnj0-0GUslKMfgpfhFWozWcwBho7TEPnoVMR97c5sfw4vhuDwiVWe2AjG3z_Lj7PpBb5OTzahVN9i-AexM8n4xD9F0FUGdzOMNeLYV_wrTXKb7rMt4z8Nau5gFW4lVgf1Vja-oFbu5EPWvSIa7jCaEmyBuilm3DC1uYb3G8BibA4z0yAQ72bFEgvApFTxlYrfpUkT5trLNXZJHUsUIsKU6jlR-9fbVGqgeBu1PvYv1PuKXNwzx6ZU1q9Wb6ZDRoNBEpUeIEPhZhjjaEIOHiQpqVbOH1s5NxIAIIgM-RXMj1W6VovgS2TzqOX4TGafJ7zKd0Yy_GxZovB9uzF9V2X4W4z4H52MgzNitKxAzzKtFWoHhEb7bEE1VtwAaax0s2dWZKmggOf3VgvSRvg76Odx4QkT_S7XfViPyVrwNYas2jRZL9H0bh54VdiIQYpHe4JUNq0vMyN65TKOF0oKxXryEUTvikEkaCONlsT9oRgQIXnO52TA9yDWMVKy7hXCqO-OC1Wv3WG_Y7GM9dXHmGvS5w1UkOXsrJtlh-kMVg2SML4RomPoqEuzKi6Q6Qr2vlMTLHAfsPiK_sQb8qyjxEp18f-4dJ35Ytm8cgl8_dfpqPRtSCVHu1VKe4agiCYV3nwNZlNI4Hz_DwL_VnUC5EZvX7YwYqHWQ6zrKzOFvbxnUTx4nh17Mgh4iv6PScySjzdDu-WukSvRIzbU5ZS0ONuTL3F5L2CrFELgvvNiuX6f9ub9yqAsd-U9FayyCD9cATXPVsIJkJozhP7JHUv9-aG6qOf_bW8vGp4-t1cfHU1nu2U_rVF7P8TgrctlBkoHz8J-PpwF03VM4h8rP-b1EBG1xn25JTzxLUFGxsRCwRNVrtRdRnvcGeEbm9WGmCpnJJy6oGZdDUxNhrtTVBKduIxswQbUetR8HqJ5MOe4hAQqPIqrL8zjWU6WDxlXeR6iL6eHwEkx3JknCzvaeJK8r15nnmTQUMkrLdeS0NoBEMkwQXe9P3gY2JEFoHR-0LdrlbsjPDfY2NxwQr9INQjggxPcM2jAPPsU60Rfz7XV3mYhstZfyLIUevxB-ZZA_XHDELfCydmHWLiQFCxzDRm5bVjiVUiVzOzu2dNDFJsEDxdxOi-LyXsD968QrRtLSe_g8HMFC3rC1GigGsJdDfavrQ0rDSQtytCBnt28Bll_pvQgWvsL83f5jdIwGFdPr2ivhI0Zqzks2NowWmt6ASvvhU8PSdZngl556Jg7XcVVy3]--></g></svg>