<svg xmlns="http://www.w3.org/2000/svg" xmlns:xlink="http://www.w3.org/1999/xlink" contentStyleType="text/css" height="1127px" preserveAspectRatio="none" style="width:758px;height:1127px;background:#FFFFFF;" version="1.1" viewBox="0 0 758 1127" width="758px" zoomAndPan="magnify"><title>&#26696;&#20363;&#25191;&#34892;&#24037;&#20316;&#27969;&#31243;</title><defs/><g><text fill="#000000" font-family="SimSun" font-size="14" font-weight="bold" lengthAdjust="spacing" textLength="112" x="321.7665" y="32.9951">&#26696;&#20363;&#25191;&#34892;&#24037;&#20316;&#27969;&#31243;</text><rect fill="#E0FFFF" height="165.7969" style="stroke:#000000;stroke-width:1.5;" width="506.8091" x="240.7239" y="48.2969"/><path d="M306.7239,48.2969 L306.7239,57.5938 L296.7239,67.5938 L240.7239,67.5938 " fill="none" style="stroke:#000000;stroke-width:1.5;"/><text fill="#000000" font-family="SimSun" font-size="14" font-weight="bold" lengthAdjust="spacing" textLength="56" x="243.7239" y="62.292">&#20934;&#22791;&#38454;&#27573;</text><path d="M362.7239,77.5938 L362.7239,108.8594 L342.7239,112.8594 L362.7239,116.8594 L362.7239,148.125 A0,0 0 0 0 362.7239,148.125 L539.5398,148.125 A0,0 0 0 0 539.5398,148.125 L539.5398,87.5938 L529.5398,77.5938 L362.7239,77.5938 A0,0 0 0 0 362.7239,77.5938 " fill="#FEFFDD" style="stroke:#181818;stroke-width:0.5;"/><path d="M529.5398,77.5938 L529.5398,87.5938 L539.5398,87.5938 L529.5398,77.5938 " fill="#FEFFDD" style="stroke:#181818;stroke-width:0.5;"/><text fill="#000000" font-family="SimSun" font-size="13" lengthAdjust="spacing" textLength="155.8159" x="368.7239" y="94.6606">examples/my-task.yaml</text><text fill="#000000" font-family="SimSun" font-size="13" lengthAdjust="spacing" textLength="86.8232" x="368.7239" y="109.7935">- &#23450;&#20041;&#20219;&#21153;&#21015;&#34920;</text><text fill="#000000" font-family="SimSun" font-size="13" lengthAdjust="spacing" textLength="86.8232" x="368.7239" y="124.9263">- &#35774;&#32622;&#25191;&#34892;&#27169;&#24335;</text><text fill="#000000" font-family="SimSun" font-size="13" lengthAdjust="spacing" textLength="86.8232" x="368.7239" y="140.0591">- &#37197;&#32622;&#35760;&#24518;&#31574;&#30053;</text><rect fill="#F1F1F1" height="33.9688" rx="12.5" ry="12.5" style="stroke:#181818;stroke-width:0.5;" width="92" x="250.7239" y="95.875"/><text fill="#000000" font-family="SimSun" font-size="12" lengthAdjust="spacing" textLength="72" x="260.7239" y="117.0137">&#32534;&#20889;&#37197;&#32622;&#25991;&#20214;</text><path d="M350.7239,172.543 L350.7239,181.1094 L330.7239,185.1094 L350.7239,189.1094 L350.7239,197.6758 A0,0 0 0 0 350.7239,197.6758 L737.533,197.6758 A0,0 0 0 0 737.533,197.6758 L737.533,182.543 L727.533,172.543 L350.7239,172.543 A0,0 0 0 0 350.7239,172.543 " fill="#FEFFDD" style="stroke:#181818;stroke-width:0.5;"/><path d="M727.533,172.543 L727.533,182.543 L737.533,182.543 L727.533,172.543 " fill="#FEFFDD" style="stroke:#181818;stroke-width:0.5;"/><text fill="#000000" font-family="SimSun" font-size="13" lengthAdjust="spacing" textLength="84.0557" x="356.7239" y="189.6099">python cli.py</text><text fill="#000000" font-family="SimSun" font-size="13" lengthAdjust="spacing" text-decoration="line-through" textLength="225.6846" x="444.9119" y="189.6099">config examples/my-task.yaml run</text><text fill="#000000" font-family="SimSun" font-size="13" lengthAdjust="spacing" textLength="47.8042" x="674.7288" y="189.6099">dry-run</text><rect fill="#F1F1F1" height="33.9688" rx="12.5" ry="12.5" style="stroke:#181818;stroke-width:0.5;" width="68" x="262.7239" y="168.125"/><text fill="#000000" font-family="SimSun" font-size="12" lengthAdjust="spacing" textLength="48" x="272.7239" y="189.2637">&#39564;&#35777;&#37197;&#32622;</text><rect fill="#90EE90" height="401.3281" style="stroke:#000000;stroke-width:1.5;" width="564.214" x="140.7643" y="224.0938"/><path d="M206.7643,224.0938 L206.7643,233.3906 L196.7643,243.3906 L140.7643,243.3906 " fill="none" style="stroke:#000000;stroke-width:1.5;"/><text fill="#000000" font-family="SimSun" font-size="14" font-weight="bold" lengthAdjust="spacing" textLength="56" x="143.7643" y="238.0889">&#25191;&#34892;&#38454;&#27573;</text><path d="M350.7239,264.8086 L350.7239,273.375 L330.7239,277.375 L350.7239,281.375 L350.7239,289.9414 A0,0 0 0 0 350.7239,289.9414 L694.9783,289.9414 A0,0 0 0 0 694.9783,289.9414 L694.9783,274.8086 L684.9783,264.8086 L350.7239,264.8086 A0,0 0 0 0 350.7239,264.8086 " fill="#FEFFDD" style="stroke:#181818;stroke-width:0.5;"/><path d="M684.9783,264.8086 L684.9783,274.8086 L694.9783,274.8086 L684.9783,264.8086 " fill="#FEFFDD" style="stroke:#181818;stroke-width:0.5;"/><text fill="#000000" font-family="SimSun" font-size="13" lengthAdjust="spacing" textLength="323.2544" x="356.7239" y="281.8755">python cli.py --config examples/my-task.yaml run</text><rect fill="#F1F1F1" height="33.9688" rx="12.5" ry="12.5" style="stroke:#181818;stroke-width:0.5;" width="68" x="262.7239" y="260.3906"/><text fill="#000000" font-family="SimSun" font-size="12" lengthAdjust="spacing" textLength="48" x="272.7239" y="281.5293">&#21551;&#21160;&#20219;&#21153;</text><path d="M376.6692,304.3594 L376.6692,328.0586 L356.6692,332.0586 L376.6692,336.0586 L376.6692,359.7578 A0,0 0 0 0 376.6692,359.7578 L497.4924,359.7578 A0,0 0 0 0 497.4924,359.7578 L497.4924,314.3594 L487.4924,304.3594 L376.6692,304.3594 A0,0 0 0 0 376.6692,304.3594 " fill="#FEFFDD" style="stroke:#181818;stroke-width:0.5;"/><path d="M487.4924,304.3594 L487.4924,314.3594 L497.4924,314.3594 L487.4924,304.3594 " fill="#FEFFDD" style="stroke:#181818;stroke-width:0.5;"/><text fill="#000000" font-family="SimSun" font-size="13" lengthAdjust="spacing" textLength="60.8232" x="382.6692" y="321.4263">- &#21152;&#36733;&#37197;&#32622;</text><text fill="#000000" font-family="SimSun" font-size="13" lengthAdjust="spacing" textLength="86.8232" x="382.6692" y="336.5591">- &#21019;&#24314;&#20219;&#21153;&#38431;&#21015;</text><text fill="#000000" font-family="SimSun" font-size="13" lengthAdjust="spacing" textLength="99.8232" x="382.6692" y="351.6919">- &#21021;&#22987;&#21270;&#35760;&#24518;&#31995;&#32479;</text><rect fill="#F1F1F1" height="33.9688" rx="12.5" ry="12.5" style="stroke:#181818;stroke-width:0.5;" width="119.8906" x="236.7786" y="315.0742"/><text fill="#000000" font-family="SimSun" font-size="12" lengthAdjust="spacing" textLength="99.8906" x="246.7786" y="336.2129">Scheduler &#21021;&#22987;&#21270;</text><path d="M362.7239,369.7578 L362.7239,393.457 L342.7239,397.457 L362.7239,401.457 L362.7239,425.1563 A0,0 0 0 0 362.7239,425.1563 L509.5471,425.1563 A0,0 0 0 0 509.5471,425.1563 L509.5471,379.7578 L499.5471,369.7578 L362.7239,369.7578 A0,0 0 0 0 362.7239,369.7578 " fill="#FEFFDD" style="stroke:#181818;stroke-width:0.5;"/><path d="M499.5471,369.7578 L499.5471,379.7578 L509.5471,379.7578 L499.5471,369.7578 " fill="#FEFFDD" style="stroke:#181818;stroke-width:0.5;"/><text fill="#000000" font-family="SimSun" font-size="13" lengthAdjust="spacing" textLength="125.8232" x="368.7239" y="386.8247">- &#20018;&#34892;&#27169;&#24335;&#65306;&#36880;&#20010;&#25191;&#34892;</text><text fill="#000000" font-family="SimSun" font-size="13" lengthAdjust="spacing" textLength="125.8232" x="368.7239" y="401.9575">- &#24182;&#34892;&#27169;&#24335;&#65306;&#21516;&#26102;&#25191;&#34892;</text><text fill="#000000" font-family="SimSun" font-size="13" lengthAdjust="spacing" textLength="125.8232" x="368.7239" y="417.0903">- &#24490;&#29615;&#27169;&#24335;&#65306;&#37325;&#22797;&#25191;&#34892;</text><rect fill="#F1F1F1" height="33.9688" rx="12.5" ry="12.5" style="stroke:#181818;stroke-width:0.5;" width="92" x="250.7239" y="380.4727"/><text fill="#000000" font-family="SimSun" font-size="12" lengthAdjust="spacing" textLength="72" x="260.7239" y="401.6113">&#25191;&#34892;&#20219;&#21153;&#36718;&#27425;</text><polygon fill="#F1F1F1" points="271.8047,445.1563,321.6431,445.1563,333.6431,457.1563,321.6431,469.1563,271.8047,469.1563,259.8047,457.1563,271.8047,445.1563" style="stroke:#181818;stroke-width:0.5;"/><text fill="#000000" font-family="SimSun" font-size="11" lengthAdjust="spacing" textLength="49.8384" x="271.8047" y="460.9644">&#20219;&#21153;&#23436;&#25104;?</text><text fill="#000000" font-family="SimSun" font-size="11" lengthAdjust="spacing" textLength="11" x="248.8047" y="454.562">&#26159;</text><text fill="#000000" font-family="SimSun" font-size="11" lengthAdjust="spacing" textLength="11" x="333.6431" y="454.562">&#21542;</text><rect fill="#F1F1F1" height="33.9688" rx="12.5" ry="12.5" style="stroke:#181818;stroke-width:0.5;" width="92" x="160.7643" y="479.1563"/><text fill="#000000" font-family="SimSun" font-size="12" lengthAdjust="spacing" textLength="72" x="170.7643" y="500.2949">&#20445;&#23384;&#26368;&#32456;&#29366;&#24577;</text><polygon fill="#F1F1F1" points="350.7643,479.1563,422.6027,479.1563,434.6027,491.1563,422.6027,503.1563,350.7643,503.1563,338.7643,491.1563,350.7643,479.1563" style="stroke:#181818;stroke-width:0.5;"/><text fill="#000000" font-family="SimSun" font-size="11" lengthAdjust="spacing" textLength="71.8384" x="350.7643" y="494.9644">&#36798;&#21040;&#26368;&#22823;&#36718;&#27425;?</text><text fill="#000000" font-family="SimSun" font-size="11" lengthAdjust="spacing" textLength="11" x="327.7643" y="488.562">&#26159;</text><text fill="#000000" font-family="SimSun" font-size="11" lengthAdjust="spacing" textLength="11" x="434.6027" y="488.562">&#21542;</text><rect fill="#F1F1F1" height="33.9688" rx="12.5" ry="12.5" style="stroke:#181818;stroke-width:0.5;" width="92" x="282.7643" y="513.1563"/><text fill="#000000" font-family="SimSun" font-size="12" lengthAdjust="spacing" textLength="72" x="292.7643" y="534.2949">&#20445;&#23384;&#20013;&#26029;&#29366;&#24577;</text><path d="M504.6027,513.1563 L504.6027,529.2891 L484.6027,533.2891 L504.6027,537.2891 L504.6027,553.4219 A0,0 0 0 0 504.6027,553.4219 L625.4259,553.4219 A0,0 0 0 0 625.4259,553.4219 L625.4259,523.1563 L615.4259,513.1563 L504.6027,513.1563 A0,0 0 0 0 504.6027,513.1563 " fill="#FEFFDD" style="stroke:#181818;stroke-width:0.5;"/><path d="M615.4259,513.1563 L615.4259,523.1563 L625.4259,523.1563 L615.4259,513.1563 " fill="#FEFFDD" style="stroke:#181818;stroke-width:0.5;"/><text fill="#000000" font-family="SimSun" font-size="13" lengthAdjust="spacing" textLength="60.8232" x="510.6027" y="530.2231">- &#26356;&#26032;&#35760;&#24518;</text><text fill="#000000" font-family="SimSun" font-size="13" lengthAdjust="spacing" textLength="99.8232" x="510.6027" y="545.356">- &#29983;&#25104;&#19979;&#19968;&#36718;&#25552;&#31034;</text><rect fill="#F1F1F1" height="33.9688" rx="12.5" ry="12.5" style="stroke:#181818;stroke-width:0.5;" width="80" x="404.6027" y="516.3047"/><text fill="#000000" font-family="SimSun" font-size="12" lengthAdjust="spacing" textLength="60" x="414.6027" y="537.4434">&#32487;&#32493;&#19979;&#19968;&#36718;</text><polygon fill="#F1F1F1" points="386.6835,559.4219,398.6835,571.4219,386.6835,583.4219,374.6835,571.4219,386.6835,559.4219" style="stroke:#181818;stroke-width:0.5;"/><polygon fill="#F1F1F1" points="296.7239,589.4219,308.7239,601.4219,296.7239,613.4219,284.7239,601.4219,296.7239,589.4219" style="stroke:#181818;stroke-width:0.5;"/><rect fill="#FFFFE0" height="162.0938" style="stroke:#000000;stroke-width:1.5;" width="333.5527" x="240.7239" y="635.4219"/><path d="M306.7239,635.4219 L306.7239,644.7188 L296.7239,654.7188 L240.7239,654.7188 " fill="none" style="stroke:#000000;stroke-width:1.5;"/><text fill="#000000" font-family="SimSun" font-size="14" font-weight="bold" lengthAdjust="spacing" textLength="56" x="243.7239" y="649.417">&#32467;&#26524;&#38454;&#27573;</text><path d="M362.7239,664.7188 L362.7239,688.418 L342.7239,692.418 L362.7239,696.418 L362.7239,720.1172 A0,0 0 0 0 362.7239,720.1172 L564.2766,720.1172 A0,0 0 0 0 564.2766,720.1172 L564.2766,674.7188 L554.2766,664.7188 L362.7239,664.7188 A0,0 0 0 0 362.7239,664.7188 " fill="#FEFFDD" style="stroke:#181818;stroke-width:0.5;"/><path d="M554.2766,664.7188 L554.2766,674.7188 L564.2766,674.7188 L554.2766,664.7188 " fill="#FEFFDD" style="stroke:#181818;stroke-width:0.5;"/><text fill="#000000" font-family="SimSun" font-size="13" lengthAdjust="spacing" textLength="161.2939" x="368.7239" y="681.7856">- &#26816;&#26597; memory/state.json</text><text fill="#000000" font-family="SimSun" font-size="13" lengthAdjust="spacing" textLength="170.8218" x="368.7239" y="696.9185">- &#26597;&#30475; memory/session.md</text><text fill="#000000" font-family="SimSun" font-size="13" lengthAdjust="spacing" textLength="180.5527" x="368.7239" y="712.0513">- &#38405;&#35835; memory/MEMORY.md</text><rect fill="#F1F1F1" height="33.9688" rx="12.5" ry="12.5" style="stroke:#181818;stroke-width:0.5;" width="92" x="250.7239" y="675.4336"/><text fill="#000000" font-family="SimSun" font-size="12" lengthAdjust="spacing" textLength="72" x="260.7239" y="696.5723">&#26597;&#30475;&#25191;&#34892;&#32467;&#26524;</text><path d="M362.7239,730.1172 L362.7239,753.8164 L342.7239,757.8164 L362.7239,761.8164 L362.7239,785.5156 A0,0 0 0 0 362.7239,785.5156 L496.5471,785.5156 A0,0 0 0 0 496.5471,785.5156 L496.5471,740.1172 L486.5471,730.1172 L362.7239,730.1172 A0,0 0 0 0 362.7239,730.1172 " fill="#FEFFDD" style="stroke:#181818;stroke-width:0.5;"/><path d="M486.5471,730.1172 L486.5471,740.1172 L496.5471,740.1172 L486.5471,730.1172 " fill="#FEFFDD" style="stroke:#181818;stroke-width:0.5;"/><text fill="#000000" font-family="SimSun" font-size="13" lengthAdjust="spacing" textLength="99.8232" x="368.7239" y="747.1841">- &#27599;&#36718;&#25191;&#34892;&#30340;&#36755;&#20986;</text><text fill="#000000" font-family="SimSun" font-size="13" lengthAdjust="spacing" textLength="112.8232" x="368.7239" y="762.3169">- &#38169;&#35823;&#20449;&#24687;&#65288;&#22914;&#26377;&#65289;</text><text fill="#000000" font-family="SimSun" font-size="13" lengthAdjust="spacing" textLength="60.8232" x="368.7239" y="777.4497">- &#24615;&#33021;&#32479;&#35745;</text><rect fill="#F1F1F1" height="33.9688" rx="12.5" ry="12.5" style="stroke:#181818;stroke-width:0.5;" width="92" x="250.7239" y="740.832"/><text fill="#000000" font-family="SimSun" font-size="12" lengthAdjust="spacing" textLength="72" x="260.7239" y="761.9707">&#20998;&#26512;&#25191;&#34892;&#26085;&#24535;</text><rect fill="#FFC0CB" height="146.2656" style="stroke:#000000;stroke-width:1.5;" width="579.4478" x="11" y="807.5156"/><path d="M77,807.5156 L77,816.8125 L67,826.8125 L11,826.8125 " fill="none" style="stroke:#000000;stroke-width:1.5;"/><text fill="#000000" font-family="SimSun" font-size="14" font-weight="bold" lengthAdjust="spacing" textLength="56" x="14" y="821.5107">&#24674;&#22797;&#38454;&#27573;</text><polygon fill="#F1F1F1" points="271.8047,843.8125,321.6431,843.8125,333.6431,855.8125,321.6431,867.8125,271.8047,867.8125,259.8047,855.8125,271.8047,843.8125" style="stroke:#181818;stroke-width:0.5;"/><text fill="#000000" font-family="SimSun" font-size="11" lengthAdjust="spacing" textLength="49.8384" x="271.8047" y="859.6206">&#38656;&#35201;&#32487;&#32493;?</text><text fill="#000000" font-family="SimSun" font-size="11" lengthAdjust="spacing" textLength="11" x="248.8047" y="853.2183">&#26159;</text><text fill="#000000" font-family="SimSun" font-size="11" lengthAdjust="spacing" textLength="11" x="333.6431" y="853.2183">&#21542;</text><path d="M111,882.2305 L111,890.7969 L91,894.7969 L111,898.7969 L111,907.3633 A0,0 0 0 0 111,907.3633 L482.4478,907.3633 A0,0 0 0 0 482.4478,907.3633 L482.4478,892.2305 L472.4478,882.2305 L111,882.2305 A0,0 0 0 0 111,882.2305 " fill="#FEFFDD" style="stroke:#181818;stroke-width:0.5;"/><path d="M472.4478,882.2305 L472.4478,892.2305 L482.4478,892.2305 L472.4478,882.2305 " fill="#FEFFDD" style="stroke:#181818;stroke-width:0.5;"/><text fill="#000000" font-family="SimSun" font-size="13" lengthAdjust="spacing" textLength="350.4478" x="117" y="899.2974">python cli.py --config examples/my-task.yaml resume</text><rect fill="#F1F1F1" height="33.9688" rx="12.5" ry="12.5" style="stroke:#181818;stroke-width:0.5;" width="68" x="23" y="877.8125"/><text fill="#000000" font-family="SimSun" font-size="12" lengthAdjust="spacing" textLength="48" x="33" y="898.9512">&#24674;&#22797;&#25191;&#34892;</text><rect fill="#F1F1F1" height="33.9688" rx="12.5" ry="12.5" style="stroke:#181818;stroke-width:0.5;" width="68" x="502.4478" y="877.8125"/><text fill="#000000" font-family="SimSun" font-size="12" lengthAdjust="spacing" textLength="48" x="512.4478" y="898.9512">&#20219;&#21153;&#23436;&#25104;</text><polygon fill="#F1F1F1" points="296.7239,917.7813,308.7239,929.7813,296.7239,941.7813,284.7239,929.7813,296.7239,917.7813" style="stroke:#181818;stroke-width:0.5;"/><ellipse cx="296.7239" cy="984.7813" fill="none" rx="11" ry="11" style="stroke:#222222;stroke-width:1;"/><ellipse cx="296.7239" cy="984.7813" fill="#222222" rx="6" ry="6" style="stroke:#222222;stroke-width:1;"/><line style="stroke:#181818;stroke-width:1;" x1="296.7239" x2="296.7239" y1="129.8438" y2="168.125"/><polygon fill="#181818" points="292.7239,158.125,296.7239,168.125,300.7239,158.125,296.7239,162.125" style="stroke:#181818;stroke-width:1;"/><line style="stroke:#181818;stroke-width:1;" x1="296.7239" x2="296.7239" y1="294.3594" y2="315.0742"/><polygon fill="#181818" points="292.7239,305.0742,296.7239,315.0742,300.7239,305.0742,296.7239,309.0742" style="stroke:#181818;stroke-width:1;"/><line style="stroke:#181818;stroke-width:1;" x1="296.7239" x2="296.7239" y1="349.043" y2="380.4727"/><polygon fill="#181818" points="292.7239,370.4727,296.7239,380.4727,300.7239,370.4727,296.7239,374.4727" style="stroke:#181818;stroke-width:1;"/><line style="stroke:#181818;stroke-width:1;" x1="338.7643" x2="328.7643" y1="491.1563" y2="491.1563"/><line style="stroke:#181818;stroke-width:1;" x1="328.7643" x2="328.7643" y1="491.1563" y2="513.1563"/><polygon fill="#181818" points="324.7643,503.1563,328.7643,513.1563,332.7643,503.1563,328.7643,507.1563" style="stroke:#181818;stroke-width:1;"/><line style="stroke:#181818;stroke-width:1;" x1="434.6027" x2="444.6027" y1="491.1563" y2="491.1563"/><line style="stroke:#181818;stroke-width:1;" x1="444.6027" x2="444.6027" y1="491.1563" y2="516.3047"/><polygon fill="#181818" points="440.6027,506.3047,444.6027,516.3047,448.6027,506.3047,444.6027,510.3047" style="stroke:#181818;stroke-width:1;"/><line style="stroke:#181818;stroke-width:1;" x1="328.7643" x2="328.7643" y1="547.125" y2="571.4219"/><line style="stroke:#181818;stroke-width:1;" x1="328.7643" x2="374.6835" y1="571.4219" y2="571.4219"/><polygon fill="#181818" points="364.6835,567.4219,374.6835,571.4219,364.6835,575.4219,368.6835,571.4219" style="stroke:#181818;stroke-width:1;"/><line style="stroke:#181818;stroke-width:1;" x1="444.6027" x2="444.6027" y1="550.2734" y2="571.4219"/><line style="stroke:#181818;stroke-width:1;" x1="444.6027" x2="398.6835" y1="571.4219" y2="571.4219"/><polygon fill="#181818" points="408.6835,567.4219,398.6835,571.4219,408.6835,575.4219,404.6835,571.4219" style="stroke:#181818;stroke-width:1;"/><line style="stroke:#181818;stroke-width:1;" x1="259.8047" x2="206.7643" y1="457.1563" y2="457.1563"/><line style="stroke:#181818;stroke-width:1;" x1="206.7643" x2="206.7643" y1="457.1563" y2="479.1563"/><polygon fill="#181818" points="202.7643,469.1563,206.7643,479.1563,210.7643,469.1563,206.7643,473.1563" style="stroke:#181818;stroke-width:1;"/><line style="stroke:#181818;stroke-width:1;" x1="333.6431" x2="386.6835" y1="457.1563" y2="457.1563"/><line style="stroke:#181818;stroke-width:1;" x1="386.6835" x2="386.6835" y1="457.1563" y2="479.1563"/><polygon fill="#181818" points="382.6835,469.1563,386.6835,479.1563,390.6835,469.1563,386.6835,473.1563" style="stroke:#181818;stroke-width:1;"/><line style="stroke:#181818;stroke-width:1;" x1="206.7643" x2="206.7643" y1="513.125" y2="601.4219"/><line style="stroke:#181818;stroke-width:1;" x1="206.7643" x2="284.7239" y1="601.4219" y2="601.4219"/><polygon fill="#181818" points="274.7239,597.4219,284.7239,601.4219,274.7239,605.4219,278.7239,601.4219" style="stroke:#181818;stroke-width:1;"/><line style="stroke:#181818;stroke-width:1;" x1="386.6835" x2="386.6835" y1="583.4219" y2="601.4219"/><line style="stroke:#181818;stroke-width:1;" x1="386.6835" x2="308.7239" y1="601.4219" y2="601.4219"/><polygon fill="#181818" points="318.7239,597.4219,308.7239,601.4219,318.7239,605.4219,314.7239,601.4219" style="stroke:#181818;stroke-width:1;"/><line style="stroke:#181818;stroke-width:1;" x1="296.7239" x2="296.7239" y1="414.4414" y2="445.1563"/><polygon fill="#181818" points="292.7239,435.1563,296.7239,445.1563,300.7239,435.1563,296.7239,439.1563" style="stroke:#181818;stroke-width:1;"/><line style="stroke:#181818;stroke-width:1;" x1="296.7239" x2="296.7239" y1="202.0938" y2="260.3906"/><polygon fill="#181818" points="292.7239,250.3906,296.7239,260.3906,300.7239,250.3906,296.7239,254.3906" style="stroke:#181818;stroke-width:1;"/><line style="stroke:#181818;stroke-width:1;" x1="296.7239" x2="296.7239" y1="709.4023" y2="740.832"/><polygon fill="#181818" points="292.7239,730.832,296.7239,740.832,300.7239,730.832,296.7239,734.832" style="stroke:#181818;stroke-width:1;"/><line style="stroke:#181818;stroke-width:1;" x1="296.7239" x2="296.7239" y1="613.4219" y2="675.4336"/><polygon fill="#181818" points="292.7239,665.4336,296.7239,675.4336,300.7239,665.4336,296.7239,669.4336" style="stroke:#181818;stroke-width:1;"/><line style="stroke:#181818;stroke-width:1;" x1="259.8047" x2="57" y1="855.8125" y2="855.8125"/><line style="stroke:#181818;stroke-width:1;" x1="57" x2="57" y1="855.8125" y2="877.8125"/><polygon fill="#181818" points="53,867.8125,57,877.8125,61,867.8125,57,871.8125" style="stroke:#181818;stroke-width:1;"/><line style="stroke:#181818;stroke-width:1;" x1="333.6431" x2="536.4478" y1="855.8125" y2="855.8125"/><line style="stroke:#181818;stroke-width:1;" x1="536.4478" x2="536.4478" y1="855.8125" y2="877.8125"/><polygon fill="#181818" points="532.4478,867.8125,536.4478,877.8125,540.4478,867.8125,536.4478,871.8125" style="stroke:#181818;stroke-width:1;"/><line style="stroke:#181818;stroke-width:1;" x1="57" x2="57" y1="911.7813" y2="929.7813"/><line style="stroke:#181818;stroke-width:1;" x1="57" x2="284.7239" y1="929.7813" y2="929.7813"/><polygon fill="#181818" points="274.7239,925.7813,284.7239,929.7813,274.7239,933.7813,278.7239,929.7813" style="stroke:#181818;stroke-width:1;"/><line style="stroke:#181818;stroke-width:1;" x1="536.4478" x2="536.4478" y1="911.7813" y2="929.7813"/><line style="stroke:#181818;stroke-width:1;" x1="536.4478" x2="308.7239" y1="929.7813" y2="929.7813"/><polygon fill="#181818" points="318.7239,925.7813,308.7239,929.7813,318.7239,933.7813,314.7239,929.7813" style="stroke:#181818;stroke-width:1;"/><line style="stroke:#181818;stroke-width:1;" x1="296.7239" x2="296.7239" y1="774.8008" y2="843.8125"/><polygon fill="#181818" points="292.7239,833.8125,296.7239,843.8125,300.7239,833.8125,296.7239,837.8125" style="stroke:#181818;stroke-width:1;"/><line style="stroke:#181818;stroke-width:1;" x1="296.7239" x2="296.7239" y1="941.7813" y2="973.7813"/><polygon fill="#181818" points="292.7239,963.7813,296.7239,973.7813,300.7239,963.7813,296.7239,967.7813" style="stroke:#181818;stroke-width:1;"/><rect fill="none" height="95.4844" id="_legend" rx="7.5" ry="7.5" style="stroke:#000000;stroke-width:1;" width="112.6484" x="620.8845" y="1006.7813"/><text fill="#000000" font-family="SimSun" font-size="14" font-weight="bold" lengthAdjust="spacing" textLength="28" x="630.7585" y="1026.7764">&#39068;&#33394;</text><text fill="#000000" font-family="SimSun" font-size="14" font-weight="bold" lengthAdjust="spacing" textLength="28" x="668.5066" y="1026.7764">&#38454;&#27573;</text><rect fill="#E0FFFF" height="16.2969" style="stroke:none;stroke-width:1;" width="37.748" x="625.8845" y="1030.0781"/><text fill="#000000" font-family="SimSun" font-size="14" lengthAdjust="spacing" textLength="4.4502" x="625.8845" y="1043.0732">&#160;</text><text fill="#000000" font-family="SimSun" font-size="14" lengthAdjust="spacing" textLength="56" x="668.0828" y="1043.0732">&#20934;&#22791;&#38454;&#27573;</text><rect fill="#90EE90" height="16.2969" style="stroke:none;stroke-width:1;" width="37.748" x="625.8845" y="1046.375"/><text fill="#000000" font-family="SimSun" font-size="14" lengthAdjust="spacing" textLength="4.4502" x="625.8845" y="1059.3701">&#160;</text><text fill="#000000" font-family="SimSun" font-size="14" lengthAdjust="spacing" textLength="56" x="668.0828" y="1059.3701">&#25191;&#34892;&#38454;&#27573;</text><rect fill="#FFFFE0" height="16.2969" style="stroke:none;stroke-width:1;" width="37.748" x="625.8845" y="1062.6719"/><text fill="#000000" font-family="SimSun" font-size="14" lengthAdjust="spacing" textLength="4.4502" x="625.8845" y="1075.667">&#160;</text><text fill="#000000" font-family="SimSun" font-size="14" lengthAdjust="spacing" textLength="56" x="668.0828" y="1075.667">&#32467;&#26524;&#38454;&#27573;</text><rect fill="#FFC0CB" height="16.2969" style="stroke:none;stroke-width:1;" width="37.748" x="625.8845" y="1078.9688"/><text fill="#000000" font-family="SimSun" font-size="14" lengthAdjust="spacing" textLength="4.4502" x="625.8845" y="1091.9639">&#160;</text><text fill="#000000" font-family="SimSun" font-size="14" lengthAdjust="spacing" textLength="56" x="668.0828" y="1091.9639">&#24674;&#22797;&#38454;&#27573;</text><line style="stroke:#000000;stroke-width:1;" x1="625.8845" x2="728.533" y1="1013.7813" y2="1013.7813"/><line style="stroke:#000000;stroke-width:1;" x1="625.8845" x2="728.533" y1="1030.0781" y2="1030.0781"/><line style="stroke:#000000;stroke-width:1;" x1="625.8845" x2="728.533" y1="1046.375" y2="1046.375"/><line style="stroke:#000000;stroke-width:1;" x1="625.8845" x2="728.533" y1="1062.6719" y2="1062.6719"/><line style="stroke:#000000;stroke-width:1;" x1="625.8845" x2="728.533" y1="1078.9688" y2="1078.9688"/><line style="stroke:#000000;stroke-width:1;" x1="625.8845" x2="728.533" y1="1095.2656" y2="1095.2656"/><line style="stroke:#000000;stroke-width:1;" x1="625.8845" x2="625.8845" y1="1013.7813" y2="1095.2656"/><line style="stroke:#000000;stroke-width:1;" x1="663.6326" x2="663.6326" y1="1013.7813" y2="1095.2656"/><line style="stroke:#000000;stroke-width:1;" x1="728.533" x2="728.533" y1="1013.7813" y2="1095.2656"/><!--SRC=[hLLTJzfG6BxlhpZPRjG4lNTV5sRRpToMURNBJexIsG_IbZWoby0-f2XE4XsYeWwdOioWncqCBU2VwJazNFaNTkYXK1h8icIzAZnFd_Svx_lqhROWo55UvINmYfzTc5ULc1oUKaH51OiHGOUSriN3S8wFYVeZHTQVyX84Cu8q4vCvJXTq4G9SDEpcAawNI363VX_RZGB-bNHELpcEFaqfWYA3MsDZABMCZbAjV1LNVesDtGAtdmZp4NqgpilWBGVeDUdKSsXvk_LfpMbKS2vbMzKxBY0hEWHgc-t-X6zuAIf2RKAAXtHUMnYFyvBe8Y60AZlsPTgsBBHIHCOMAPvs059fjbLTa_YqYEhh7O2L8vLpTBtib7FEbsDMH0wxTJbchNMM8MQISGUQYiRr23tdh2YCH-CW59fLv3bXVh1NeCPaIWchyH2zwo_tBj0rvZZOjSSgXDsseQo9LaxPcV-Bjq4Dc9cDm71CX2f0nXughQ9CRc0jEeALhwJHOAto_Z9saNN57BRo1tGmNQ2ZrUd_3ykn3WQLPsrW2eJEyNjnI7MxTj6Ty4rzfvN8shKpzhHNyxBgPw1i1czL-ndDC-UpsTD8hQ6ZDH-Ztvim1qOwWQjai95zC0hq29tE2CwReox3FO5zlOVAULn8E9RXh5Hn8ibE04KDWX6KFUbnsugasKJ6EQMZen8xy61TdxPTA-DSsQyzH9-zR5R9iSfsRTMk9OWNQkyAjDMxGW3l_iIvSpQj0EHi7j3JTmNnUjOvkkhZTFlc-qEOutftmV0xrWRUBmJ3_nAAehBefHyV73k5plPX_279mDyIb0iaA2bgV4BJUHsElzOKsODTdIuCDOsQ69V2tfh8VoAcvS7J3wUVlNZfeO6i8cCPxsSxgsRh65rl3NDahXDl9pax7qbp0wMkl7gRsyGqxUiYJfetTGETlCU5z4qzxJsQA94F3Vgoa4hnBmiaUKZJw-lXSq5Uw3Il7RHM8K5EaYmDGwBB99ZFNau6PEJV5WtKOb9V5dhX613QIVyxTgS_D9gkH3bEXFDjaPwbfNkWTLWWwGltpkq0M6B8tTxNv_uIy7-Q0WntqrAAVmy7A2oFbEEFQu_JxdTRm3S72bAdp2_t1m00]--></g></svg>