<svg xmlns="http://www.w3.org/2000/svg" xmlns:xlink="http://www.w3.org/1999/xlink" contentStyleType="text/css" height="1745px" preserveAspectRatio="none" style="width:1569px;height:1745px;background:#FFFFFF;" version="1.1" viewBox="0 0 1569 1745" width="1569px" zoomAndPan="magnify"><title>&#23433;&#35013;&#27969;&#31243;&#22270;</title><defs/><g><text fill="#000000" font-family="Microsoft YaHei" font-size="14" font-weight="bold" lengthAdjust="spacing" textLength="70" x="748.3545" y="32.9951">&#23433;&#35013;&#27969;&#31243;&#22270;</text><rect fill="#E0FFFF" height="266.3594" style="stroke:#000000;stroke-width:1.5;" width="529.1084" x="633.4827" y="48.2969"/><path d="M747.6965,48.2969 L747.6965,57.5938 L737.6965,67.5938 L633.4827,67.5938 " fill="none" style="stroke:#000000;stroke-width:1.5;"/><text fill="#000000" font-family="Microsoft YaHei" font-size="14" font-weight="bold" lengthAdjust="spacing" textLength="104.2139" x="636.4827" y="62.292">&#38454;&#27573;1: &#29615;&#22659;&#26816;&#26597;</text><path d="M863.4668,77.5938 L863.4668,101.293 L843.4668,105.293 L863.4668,109.293 L863.4668,132.9922 A0,0 0 0 0 863.4668,132.9922 L1016.8345,132.9922 A0,0 0 0 0 1016.8345,132.9922 L1016.8345,87.5938 L1006.8345,77.5938 L863.4668,77.5938 A0,0 0 0 0 863.4668,77.5938 " fill="#ADD8E6" style="stroke:#181818;stroke-width:0.5;"/><path d="M1006.8345,77.5938 L1006.8345,87.5938 L1016.8345,87.5938 L1006.8345,77.5938 " fill="#ADD8E6" style="stroke:#181818;stroke-width:0.5;"/><text fill="#000000" font-family="Microsoft YaHei" font-size="13" lengthAdjust="spacing" textLength="30.3799" x="869.4668" y="94.6606">&#35201;&#27714;:</text><text fill="#000000" font-family="Microsoft YaHei" font-size="13" lengthAdjust="spacing" textLength="124.0967" x="869.4668" y="109.7935">- &#26368;&#20302;: Python 3.8+</text><text fill="#000000" font-family="Microsoft YaHei" font-size="13" lengthAdjust="spacing" textLength="132.3677" x="869.4668" y="124.9263">- &#25512;&#33616;: Python 3.10+</text><rect fill="#F1F1F1" height="33.9688" rx="12.5" ry="12.5" style="stroke:#181818;stroke-width:0.5;" width="117.2246" x="726.2422" y="88.3086"/><text fill="#000000" font-family="Microsoft YaHei" font-size="12" lengthAdjust="spacing" textLength="97.2246" x="736.2422" y="109.4473">&#26816;&#26597; Python &#29256;&#26412;</text><polygon fill="#F1F1F1" points="739.1223,152.9922,830.5867,152.9922,842.5867,164.9922,830.5867,176.9922,739.1223,176.9922,727.1223,164.9922,739.1223,152.9922" style="stroke:#181818;stroke-width:0.5;"/><text fill="#000000" font-family="Microsoft YaHei" font-size="11" lengthAdjust="spacing" textLength="91.4644" x="739.1223" y="168.8003">Python &#29256;&#26412;&#31526;&#21512;?</text><text fill="#000000" font-family="Microsoft YaHei" font-size="11" lengthAdjust="spacing" textLength="19.0083" x="708.114" y="162.3979">yes</text><text fill="#000000" font-family="Microsoft YaHei" font-size="11" lengthAdjust="spacing" textLength="13.7017" x="842.5867" y="162.3979">no</text><rect fill="#F1F1F1" height="33.9688" rx="12.5" ry="12.5" style="stroke:#181818;stroke-width:0.5;" width="127.2793" x="653.4827" y="186.9922"/><text fill="#000000" font-family="Microsoft YaHei" font-size="12" lengthAdjust="spacing" textLength="107.2793" x="663.4827" y="208.1309">&#10003; Python &#29615;&#22659;&#23601;&#32490;</text><path d="M917.2917,186.9922 L917.2917,225.8242 L897.2917,229.8242 L917.2917,233.8242 L917.2917,272.6563 A0,0 0 0 0 917.2917,272.6563 L1142.5911,272.6563 A0,0 0 0 0 1142.5911,272.6563 L1142.5911,196.9922 L1132.5911,186.9922 L917.2917,186.9922 A0,0 0 0 0 917.2917,186.9922 " fill="#FFB6C1" style="stroke:#181818;stroke-width:0.5;"/><path d="M1132.5911,186.9922 L1132.5911,196.9922 L1142.5911,196.9922 L1132.5911,186.9922 " fill="#FFB6C1" style="stroke:#181818;stroke-width:0.5;"/><text fill="#000000" font-family="Microsoft YaHei" font-size="13" lengthAdjust="spacing" textLength="102.4194" x="923.2917" y="204.0591">Ubuntu/Debian:</text><text fill="#000000" font-family="Microsoft YaHei" font-size="13" lengthAdjust="spacing" textLength="204.2993" x="923.2917" y="219.1919">sudo apt-get install python3.10</text><text fill="#000000" font-family="Microsoft YaHei" font-size="13" lengthAdjust="spacing" textLength="4.1323" x="923.2917" y="234.3247">&#160;</text><text fill="#000000" font-family="Microsoft YaHei" font-size="13" lengthAdjust="spacing" textLength="50.6416" x="923.2917" y="249.4575">macOS:</text><text fill="#000000" font-family="Microsoft YaHei" font-size="13" lengthAdjust="spacing" textLength="166.8228" x="923.2917" y="264.5903">brew install python@3.10</text><rect fill="#F1F1F1" height="33.9688" rx="12.5" ry="12.5" style="stroke:#181818;stroke-width:0.5;" width="89.4102" x="807.8816" y="212.8398"/><text fill="#000000" font-family="Microsoft YaHei" font-size="12" lengthAdjust="spacing" textLength="69.4102" x="817.8816" y="233.9785">&#21319;&#32423; Python</text><polygon fill="#F1F1F1" points="784.8545,278.6563,796.8545,290.6563,784.8545,302.6563,772.8545,290.6563,784.8545,278.6563" style="stroke:#181818;stroke-width:0.5;"/><rect fill="#ADD8E6" height="263.5" style="stroke:#000000;stroke-width:1.5;" width="526.3022" x="633.6675" y="324.6563"/><path d="M808.0376,324.6563 L808.0376,333.9531 L798.0376,343.9531 L633.6675,343.9531 " fill="none" style="stroke:#000000;stroke-width:1.5;"/><text fill="#000000" font-family="Microsoft YaHei" font-size="14" font-weight="bold" lengthAdjust="spacing" textLength="164.3701" x="636.6675" y="338.6514">&#38454;&#27573;2: &#23433;&#35013; Claude CLI</text><path d="M860.8066,360.8047 L860.8066,376.9375 L840.8066,380.9375 L860.8066,384.9375 L860.8066,401.0703 A0,0 0 0 0 860.8066,401.0703 L1149.9697,401.0703 A0,0 0 0 0 1149.9697,401.0703 L1149.9697,370.8047 L1139.9697,360.8047 L860.8066,360.8047 A0,0 0 0 0 860.8066,360.8047 " fill="#ADD8E6" style="stroke:#181818;stroke-width:0.5;"/><path d="M1139.9697,360.8047 L1139.9697,370.8047 L1149.9697,370.8047 L1139.9697,360.8047 " fill="#ADD8E6" style="stroke:#181818;stroke-width:0.5;"/><text fill="#000000" font-family="Microsoft YaHei" font-size="13" lengthAdjust="spacing" textLength="93.7993" x="866.8066" y="377.8716">&#20351;&#29992; npm &#23433;&#35013;:</text><text fill="#000000" font-family="Microsoft YaHei" font-size="13" lengthAdjust="spacing" textLength="268.1631" x="866.8066" y="393.0044">npm install -g @anthropic-ai/claude-code</text><rect fill="#F1F1F1" height="33.9688" rx="12.5" ry="12.5" style="stroke:#181818;stroke-width:0.5;" width="111.9043" x="728.9023" y="363.9531"/><text fill="#000000" font-family="Microsoft YaHei" font-size="12" lengthAdjust="spacing" textLength="91.9043" x="738.9023" y="385.0918">&#23433;&#35013; Claude CLI</text><path d="M860.8066,417.9219 L860.8066,434.0547 L840.8066,438.0547 L860.8066,442.0547 L860.8066,458.1875 A0,0 0 0 0 860.8066,458.1875 L986.1494,458.1875 A0,0 0 0 0 986.1494,458.1875 L986.1494,427.9219 L976.1494,417.9219 L860.8066,417.9219 A0,0 0 0 0 860.8066,417.9219 " fill="#FFFACD" style="stroke:#181818;stroke-width:0.5;"/><path d="M976.1494,417.9219 L976.1494,427.9219 L986.1494,427.9219 L976.1494,417.9219 " fill="#FFFACD" style="stroke:#181818;stroke-width:0.5;"/><text fill="#000000" font-family="Microsoft YaHei" font-size="13" lengthAdjust="spacing" textLength="56.3799" x="866.8066" y="434.9888">&#36816;&#34892;&#21629;&#20196;:</text><text fill="#000000" font-family="Microsoft YaHei" font-size="13" lengthAdjust="spacing" textLength="104.3428" x="866.8066" y="450.1216">claude --version</text><rect fill="#F1F1F1" height="33.9688" rx="12.5" ry="12.5" style="stroke:#181818;stroke-width:0.5;" width="111.9043" x="728.9023" y="421.0703"/><text fill="#000000" font-family="Microsoft YaHei" font-size="12" lengthAdjust="spacing" textLength="91.9043" x="738.9023" y="442.209">&#39564;&#35777; Claude CLI</text><polygon fill="#F1F1F1" points="739.8125,478.1875,829.8965,478.1875,841.8965,490.1875,829.8965,502.1875,739.8125,502.1875,727.8125,490.1875,739.8125,478.1875" style="stroke:#181818;stroke-width:0.5;"/><text fill="#000000" font-family="Microsoft YaHei" font-size="11" lengthAdjust="spacing" textLength="90.084" x="739.8125" y="493.9956">Claude CLI &#21487;&#29992;?</text><text fill="#000000" font-family="Microsoft YaHei" font-size="11" lengthAdjust="spacing" textLength="19.0083" x="708.8042" y="487.5933">yes</text><text fill="#000000" font-family="Microsoft YaHei" font-size="11" lengthAdjust="spacing" textLength="13.7017" x="841.8965" y="487.5933">no</text><rect fill="#F1F1F1" height="33.9688" rx="12.5" ry="12.5" style="stroke:#181818;stroke-width:0.5;" width="125.7734" x="653.6675" y="512.1875"/><text fill="#000000" font-family="Microsoft YaHei" font-size="12" lengthAdjust="spacing" textLength="105.7734" x="663.6675" y="533.3262">&#10003; Claude CLI &#23601;&#32490;</text><path d="M926.8687,516.6055 L926.8687,525.1719 L906.8687,529.1719 L926.8687,533.1719 L926.8687,541.7383 A0,0 0 0 0 926.8687,541.7383 L1119.0015,541.7383 A0,0 0 0 0 1119.0015,541.7383 L1119.0015,526.6055 L1109.0015,516.6055 L926.8687,516.6055 A0,0 0 0 0 926.8687,516.6055 " fill="#FFB6C1" style="stroke:#181818;stroke-width:0.5;"/><path d="M1109.0015,516.6055 L1109.0015,526.6055 L1119.0015,526.6055 L1109.0015,516.6055 " fill="#FFB6C1" style="stroke:#181818;stroke-width:0.5;"/><text fill="#000000" font-family="Microsoft YaHei" font-size="13" lengthAdjust="spacing" textLength="171.1328" x="932.8687" y="533.6724">&#30830;&#20445; npm &#20840;&#23616;&#21253;&#22312; PATH &#20013;</text><rect fill="#F1F1F1" height="33.9688" rx="12.5" ry="12.5" style="stroke:#181818;stroke-width:0.5;" width="107.4277" x="799.4409" y="512.1875"/><text fill="#000000" font-family="Microsoft YaHei" font-size="12" lengthAdjust="spacing" textLength="87.4277" x="809.4409" y="533.3262">&#26816;&#26597; PATH &#37197;&#32622;</text><polygon fill="#F1F1F1" points="784.8545,552.1563,796.8545,564.1563,784.8545,576.1563,772.8545,564.1563,784.8545,552.1563" style="stroke:#181818;stroke-width:0.5;"/><rect fill="#90EE90" height="280.9136" style="stroke:#000000;stroke-width:1.5;" width="1547.709" x="11" y="598.1563"/><path d="M139.2139,598.1563 L139.2139,607.4531 L129.2139,617.4531 L11,617.4531 " fill="none" style="stroke:#000000;stroke-width:1.5;"/><text fill="#000000" font-family="Microsoft YaHei" font-size="14" font-weight="bold" lengthAdjust="spacing" textLength="118.2139" x="14" y="612.1514">&#38454;&#27573;3: &#23433;&#35013;&#33510;&#34892;&#20711;</text><rect fill="#F1F1F1" height="33.9688" rx="12.5" ry="12.5" style="stroke:#181818;stroke-width:0.5;" width="92" x="738.8545" y="634.4531"/><text fill="#000000" font-family="Microsoft YaHei" font-size="12" lengthAdjust="spacing" textLength="72" x="748.8545" y="655.5918">&#36873;&#25321;&#23433;&#35013;&#26041;&#24335;</text><polygon fill="#F1F1F1" points="42.0808,688.4219,91.9192,688.4219,103.9192,700.4219,91.9192,712.4219,42.0808,712.4219,30.0808,700.4219,42.0808,688.4219" style="stroke:#181818;stroke-width:0.5;"/><text fill="#000000" font-family="Microsoft YaHei" font-size="11" lengthAdjust="spacing" textLength="65.8496" x="71" y="722.6323">&#19979;&#36733; release</text><text fill="#000000" font-family="Microsoft YaHei" font-size="11" lengthAdjust="spacing" textLength="49.8384" x="42.0808" y="704.23">&#23433;&#35013;&#26041;&#24335;?</text><path d="M133,748.5503 L133,757.1167 L113,761.1167 L133,765.1167 L133,773.6831 A0,0 0 0 0 133,773.6831 L626.9131,773.6831 A0,0 0 0 0 626.9131,773.6831 L626.9131,758.5503 L616.9131,748.5503 L133,748.5503 A0,0 0 0 0 133,748.5503 " fill="#ADD8E6" style="stroke:#181818;stroke-width:0.5;"/><path d="M616.9131,748.5503 L616.9131,758.5503 L626.9131,758.5503 L616.9131,748.5503 " fill="#ADD8E6" style="stroke:#181818;stroke-width:0.5;"/><text fill="#000000" font-family="Microsoft YaHei" font-size="13" lengthAdjust="spacing" textLength="472.9131" x="139" y="765.6172">wget https://github.com/hizhengjian/kuxing/releases/latest/kuxing.tar.gz</text><rect fill="#F1F1F1" height="33.9688" rx="12.5" ry="12.5" style="stroke:#181818;stroke-width:0.5;" width="92" x="21" y="744.1323"/><text fill="#000000" font-family="Microsoft YaHei" font-size="12" lengthAdjust="spacing" textLength="72" x="31" y="765.271">&#19979;&#36733;&#26368;&#26032;&#29256;&#26412;</text><rect fill="#F1F1F1" height="33.9688" rx="12.5" ry="12.5" style="stroke:#181818;stroke-width:0.5;" width="68" x="33" y="813.1011"/><text fill="#000000" font-family="Microsoft YaHei" font-size="12" lengthAdjust="spacing" textLength="48" x="43" y="834.2397">&#35299;&#21387;&#25991;&#20214;</text><polygon fill="#F1F1F1" points="658.9131,688.4219,713.9131,688.4219,725.9131,700.4219,713.9131,712.4219,658.9131,712.4219,646.9131,700.4219,658.9131,688.4219" style="stroke:#181818;stroke-width:0.5;"/><text fill="#000000" font-family="Microsoft YaHei" font-size="11" lengthAdjust="spacing" textLength="19.0083" x="690.4131" y="722.6323">yes</text><text fill="#000000" font-family="Microsoft YaHei" font-size="11" lengthAdjust="spacing" textLength="55" x="658.9131" y="704.23">&#20174;&#28304;&#30721;&#23433;&#35013;</text><text fill="#000000" font-family="Microsoft YaHei" font-size="11" lengthAdjust="spacing" textLength="44" x="725.9131" y="697.8276">&#30452;&#25509;&#20351;&#29992;</text><path d="M740.4131,748.5503 L740.4131,757.1167 L720.4131,761.1167 L740.4131,765.1167 L740.4131,773.6831 A0,0 0 0 0 740.4131,773.6831 L1090.0249,773.6831 A0,0 0 0 0 1090.0249,773.6831 L1090.0249,758.5503 L1080.0249,748.5503 L740.4131,748.5503 A0,0 0 0 0 740.4131,748.5503 " fill="#ADD8E6" style="stroke:#181818;stroke-width:0.5;"/><path d="M1080.0249,748.5503 L1080.0249,758.5503 L1090.0249,758.5503 L1080.0249,748.5503 " fill="#ADD8E6" style="stroke:#181818;stroke-width:0.5;"/><text fill="#000000" font-family="Microsoft YaHei" font-size="13" lengthAdjust="spacing" textLength="328.6118" x="746.4131" y="765.6172">git clone https://github.com/hizhengjian/kuxing.git</text><rect fill="#F1F1F1" height="33.9688" rx="12.5" ry="12.5" style="stroke:#181818;stroke-width:0.5;" width="68" x="652.4131" y="744.1323"/><text fill="#000000" font-family="Microsoft YaHei" font-size="12" lengthAdjust="spacing" textLength="48" x="662.4131" y="765.271">&#20811;&#38534;&#20179;&#24211;</text><path d="M740.4131,817.519 L740.4131,826.0854 L720.4131,830.0854 L740.4131,834.0854 L740.4131,842.6519 A0,0 0 0 0 740.4131,842.6519 L952.4521,842.6519 A0,0 0 0 0 952.4521,842.6519 L952.4521,827.519 L942.4521,817.519 L740.4131,817.519 A0,0 0 0 0 740.4131,817.519 " fill="#ADD8E6" style="stroke:#181818;stroke-width:0.5;"/><path d="M942.4521,817.519 L942.4521,827.519 L952.4521,827.519 L942.4521,817.519 " fill="#ADD8E6" style="stroke:#181818;stroke-width:0.5;"/><text fill="#000000" font-family="Microsoft YaHei" font-size="13" lengthAdjust="spacing" textLength="191.0391" x="746.4131" y="834.5859">pip install -r requirements.txt</text><rect fill="#F1F1F1" height="33.9688" rx="12.5" ry="12.5" style="stroke:#181818;stroke-width:0.5;" width="68" x="652.4131" y="813.1011"/><text fill="#000000" font-family="Microsoft YaHei" font-size="12" lengthAdjust="spacing" textLength="48" x="662.4131" y="834.2397">&#23433;&#35013;&#20381;&#36182;</text><path d="M1222.0249,772.0659 L1222.0249,788.1987 L1202.0249,792.1987 L1222.0249,796.1987 L1222.0249,812.3315 A0,0 0 0 0 1222.0249,812.3315 L1548.709,812.3315 A0,0 0 0 0 1548.709,812.3315 L1548.709,782.0659 L1538.709,772.0659 L1222.0249,772.0659 A0,0 0 0 0 1222.0249,772.0659 " fill="#ADD8E6" style="stroke:#181818;stroke-width:0.5;"/><path d="M1538.709,772.0659 L1538.709,782.0659 L1548.709,782.0659 L1538.709,772.0659 " fill="#ADD8E6" style="stroke:#181818;stroke-width:0.5;"/><text fill="#000000" font-family="Microsoft YaHei" font-size="13" lengthAdjust="spacing" textLength="305.6841" x="1228.0249" y="789.1328">ln -s /path/to/kuxing/cli.py /usr/local/bin/kuxing</text><text fill="#000000" font-family="Microsoft YaHei" font-size="13" lengthAdjust="spacing" textLength="202.9409" x="1228.0249" y="804.2656">chmod +x /usr/local/bin/kuxing</text><rect fill="#F1F1F1" height="33.9688" rx="12.5" ry="12.5" style="stroke:#181818;stroke-width:0.5;" width="92" x="1110.0249" y="775.2144"/><text fill="#000000" font-family="Microsoft YaHei" font-size="12" lengthAdjust="spacing" textLength="72" x="1120.0249" y="796.353">&#21019;&#24314;&#31526;&#21495;&#38142;&#25509;</text><rect fill="#FFFFE0" height="290.7656" style="stroke:#000000;stroke-width:1.5;" width="361.0374" x="666.0007" y="889.0698"/><path d="M780.2146,889.0698 L780.2146,898.3667 L770.2146,908.3667 L666.0007,908.3667 " fill="none" style="stroke:#000000;stroke-width:1.5;"/><text fill="#000000" font-family="Microsoft YaHei" font-size="14" font-weight="bold" lengthAdjust="spacing" textLength="104.2139" x="669.0007" y="903.0649">&#38454;&#27573;4: &#39564;&#35777;&#23433;&#35013;</text><path d="M850.8545,929.7847 L850.8545,938.3511 L830.8545,942.3511 L850.8545,946.3511 L850.8545,954.9175 A0,0 0 0 0 850.8545,954.9175 L1017.0381,954.9175 A0,0 0 0 0 1017.0381,954.9175 L1017.0381,939.7847 L1007.0381,929.7847 L850.8545,929.7847 A0,0 0 0 0 850.8545,929.7847 " fill="#FFFACD" style="stroke:#181818;stroke-width:0.5;"/><path d="M1007.0381,929.7847 L1007.0381,939.7847 L1017.0381,939.7847 L1007.0381,929.7847 " fill="#FFFACD" style="stroke:#181818;stroke-width:0.5;"/><text fill="#000000" font-family="Microsoft YaHei" font-size="13" lengthAdjust="spacing" textLength="145.1836" x="856.8545" y="946.8516">python cli.py --version</text><rect fill="#F1F1F1" height="33.9688" rx="12.5" ry="12.5" style="stroke:#181818;stroke-width:0.5;" width="92" x="738.8545" y="925.3667"/><text fill="#000000" font-family="Microsoft YaHei" font-size="12" lengthAdjust="spacing" textLength="72" x="748.8545" y="946.5054">&#36816;&#34892;&#29256;&#26412;&#26816;&#26597;</text><path d="M850.8545,983.7534 L850.8545,992.3198 L830.8545,996.3198 L850.8545,1000.3198 L850.8545,1008.8862 A0,0 0 0 0 850.8545,1008.8862 L997.5254,1008.8862 A0,0 0 0 0 997.5254,1008.8862 L997.5254,993.7534 L987.5254,983.7534 L850.8545,983.7534 A0,0 0 0 0 850.8545,983.7534 " fill="#FFFACD" style="stroke:#181818;stroke-width:0.5;"/><path d="M987.5254,983.7534 L987.5254,993.7534 L997.5254,993.7534 L987.5254,983.7534 " fill="#FFFACD" style="stroke:#181818;stroke-width:0.5;"/><text fill="#000000" font-family="Microsoft YaHei" font-size="13" lengthAdjust="spacing" textLength="125.6709" x="856.8545" y="1000.8203">python cli.py --help</text><rect fill="#F1F1F1" height="33.9688" rx="12.5" ry="12.5" style="stroke:#181818;stroke-width:0.5;" width="92" x="738.8545" y="979.3354"/><text fill="#000000" font-family="Microsoft YaHei" font-size="12" lengthAdjust="spacing" textLength="72" x="748.8545" y="1000.4741">&#26597;&#30475;&#21487;&#29992;&#21629;&#20196;</text><polygon fill="#F1F1F1" points="748.9353,1033.3042,820.7737,1033.3042,832.7737,1045.3042,820.7737,1057.3042,748.9353,1057.3042,736.9353,1045.3042,748.9353,1033.3042" style="stroke:#181818;stroke-width:0.5;"/><text fill="#000000" font-family="Microsoft YaHei" font-size="11" lengthAdjust="spacing" textLength="71.8384" x="748.9353" y="1049.1123">&#21629;&#20196;&#27491;&#24120;&#36816;&#34892;?</text><text fill="#000000" font-family="Microsoft YaHei" font-size="11" lengthAdjust="spacing" textLength="19.0083" x="717.927" y="1042.71">yes</text><text fill="#000000" font-family="Microsoft YaHei" font-size="11" lengthAdjust="spacing" textLength="13.7017" x="832.7737" y="1042.71">no</text><rect fill="#F1F1F1" height="33.9688" rx="12.5" ry="12.5" style="stroke:#181818;stroke-width:0.5;" width="81.8691" x="686.0007" y="1067.3042"/><text fill="#000000" font-family="Microsoft YaHei" font-size="12" lengthAdjust="spacing" textLength="61.8691" x="696.0007" y="1088.4429">&#10003; &#23433;&#35013;&#25104;&#21151;</text><path d="M896.7737,1067.3042 L896.7737,1098.5698 L876.7737,1102.5698 L896.7737,1106.5698 L896.7737,1137.8354 A0,0 0 0 0 896.7737,1137.8354 L1001.7913,1137.8354 A0,0 0 0 0 1001.7913,1137.8354 L1001.7913,1077.3042 L991.7913,1067.3042 L896.7737,1067.3042 A0,0 0 0 0 896.7737,1067.3042 " fill="#FFB6C1" style="stroke:#181818;stroke-width:0.5;"/><path d="M991.7913,1067.3042 L991.7913,1077.3042 L1001.7913,1077.3042 L991.7913,1067.3042 " fill="#FFB6C1" style="stroke:#181818;stroke-width:0.5;"/><text fill="#000000" font-family="Microsoft YaHei" font-size="13" lengthAdjust="spacing" textLength="43.3799" x="902.7737" y="1084.3711">&#26816;&#26597;&#39033;:</text><text fill="#000000" font-family="Microsoft YaHei" font-size="13" lengthAdjust="spacing" textLength="84.0176" x="902.7737" y="1099.5039">- Python &#29256;&#26412;</text><text fill="#000000" font-family="Microsoft YaHei" font-size="13" lengthAdjust="spacing" textLength="73.8359" x="902.7737" y="1114.6367">- pyyaml &#24211;</text><text fill="#000000" font-family="Microsoft YaHei" font-size="13" lengthAdjust="spacing" textLength="78.2539" x="902.7737" y="1129.7695">- Claude CLI</text><rect fill="#F1F1F1" height="33.9688" rx="12.5" ry="12.5" style="stroke:#181818;stroke-width:0.5;" width="68" x="808.7737" y="1085.5854"/><text fill="#000000" font-family="Microsoft YaHei" font-size="12" lengthAdjust="spacing" textLength="48" x="818.7737" y="1106.7241">&#26816;&#26597;&#20381;&#36182;</text><polygon fill="#F1F1F1" points="784.8545,1143.8354,796.8545,1155.8354,784.8545,1167.8354,772.8545,1155.8354,784.8545,1143.8354" style="stroke:#181818;stroke-width:0.5;"/><rect fill="#FFC0CB" height="219.7656" style="stroke:#000000;stroke-width:1.5;" width="380.8267" x="722.8545" y="1189.8354"/><path d="M837.0684,1189.8354 L837.0684,1199.1323 L827.0684,1209.1323 L722.8545,1209.1323 " fill="none" style="stroke:#000000;stroke-width:1.5;"/><text fill="#000000" font-family="Microsoft YaHei" font-size="14" font-weight="bold" lengthAdjust="spacing" textLength="104.2139" x="725.8545" y="1203.8306">&#38454;&#27573;5: &#21487;&#36873;&#37197;&#32622;</text><path d="M850.8545,1219.1323 L850.8545,1250.3979 L830.8545,1254.3979 L850.8545,1258.3979 L850.8545,1289.6636 A0,0 0 0 0 850.8545,1289.6636 L1015.2734,1289.6636 A0,0 0 0 0 1015.2734,1289.6636 L1015.2734,1229.1323 L1005.2734,1219.1323 L850.8545,1219.1323 A0,0 0 0 0 850.8545,1219.1323 " fill="#E0FFFF" style="stroke:#181818;stroke-width:0.5;"/><path d="M1005.2734,1219.1323 L1005.2734,1229.1323 L1015.2734,1229.1323 L1005.2734,1219.1323 " fill="#E0FFFF" style="stroke:#181818;stroke-width:0.5;"/><text fill="#000000" font-family="Microsoft YaHei" font-size="13" lengthAdjust="spacing" textLength="114.8989" x="856.8545" y="1236.1992">&#21019;&#24314; /.kuxing/env:</text><text fill="#000000" font-family="Microsoft YaHei" font-size="13" lengthAdjust="spacing" textLength="143.4189" x="856.8545" y="1251.332">- ANTHROPIC_API_KEY</text><text fill="#000000" font-family="Microsoft YaHei" font-size="13" lengthAdjust="spacing" textLength="76.5591" x="856.8545" y="1266.4648">- SDK_PATH</text><text fill="#000000" font-family="Microsoft YaHei" font-size="13" lengthAdjust="spacing" textLength="91.7427" x="856.8545" y="1281.5977">- WORKSPACE</text><rect fill="#F1F1F1" height="33.9688" rx="12.5" ry="12.5" style="stroke:#181818;stroke-width:0.5;" width="92" x="738.8545" y="1237.4136"/><text fill="#000000" font-family="Microsoft YaHei" font-size="12" lengthAdjust="spacing" textLength="72" x="748.8545" y="1258.5522">&#37197;&#32622;&#29615;&#22659;&#21464;&#37327;</text><path d="M856.8545,1314.0815 L856.8545,1322.6479 L836.8545,1326.6479 L856.8545,1330.6479 L856.8545,1339.2144 A0,0 0 0 0 856.8545,1339.2144 L1093.6812,1339.2144 A0,0 0 0 0 1093.6812,1339.2144 L1093.6812,1324.0815 L1083.6812,1314.0815 L856.8545,1314.0815 A0,0 0 0 0 856.8545,1314.0815 " fill="#E0FFFF" style="stroke:#181818;stroke-width:0.5;"/><path d="M1083.6812,1314.0815 L1083.6812,1324.0815 L1093.6812,1324.0815 L1083.6812,1314.0815 " fill="#E0FFFF" style="stroke:#181818;stroke-width:0.5;"/><text fill="#000000" font-family="Microsoft YaHei" font-size="13" lengthAdjust="spacing" textLength="215.8267" x="862.8545" y="1331.1484">python cli.py init-context --global</text><rect fill="#F1F1F1" height="33.9688" rx="12.5" ry="12.5" style="stroke:#181818;stroke-width:0.5;" width="104" x="732.8545" y="1309.6636"/><text fill="#000000" font-family="Microsoft YaHei" font-size="12" lengthAdjust="spacing" textLength="84" x="742.8545" y="1330.8022">&#21021;&#22987;&#21270;&#20840;&#23616;&#35760;&#24518;</text><rect fill="#F1F1F1" height="33.9688" rx="12.5" ry="12.5" style="stroke:#181818;stroke-width:0.5;" width="81.8691" x="743.9199" y="1363.6323"/><text fill="#000000" font-family="Microsoft YaHei" font-size="12" lengthAdjust="spacing" textLength="61.8691" x="753.9199" y="1384.771">&#10003; &#37197;&#32622;&#23436;&#25104;</text><path d="M838.8545,1419.6011 L838.8545,1450.8667 L818.8545,1454.8667 L838.8545,1458.8667 L838.8545,1490.1323 A0,0 0 0 0 838.8545,1490.1323 L1090.8013,1490.1323 A0,0 0 0 0 1090.8013,1490.1323 L1090.8013,1429.6011 L1080.8013,1419.6011 L838.8545,1419.6011 A0,0 0 0 0 838.8545,1419.6011 " fill="#98FB98" style="stroke:#181818;stroke-width:0.5;"/><path d="M1080.8013,1419.6011 L1080.8013,1429.6011 L1090.8013,1429.6011 L1080.8013,1419.6011 " fill="#98FB98" style="stroke:#181818;stroke-width:0.5;"/><text fill="#000000" font-family="Microsoft YaHei" font-size="13" lengthAdjust="spacing" textLength="43.3799" x="844.8545" y="1436.668">&#19979;&#19968;&#27493;:</text><text fill="#000000" font-family="Microsoft YaHei" font-size="13" lengthAdjust="spacing" textLength="219.8701" x="844.8545" y="1451.8008">- &#24555;&#36895;&#24320;&#22987;: docs/03-quick-start.md</text><text fill="#000000" font-family="Microsoft YaHei" font-size="13" lengthAdjust="spacing" textLength="221.7808" x="844.8545" y="1466.9336">- &#21629;&#20196;&#21442;&#32771;: docs/04-commands.md</text><text fill="#000000" font-family="Microsoft YaHei" font-size="13" lengthAdjust="spacing" textLength="230.9468" x="844.8545" y="1482.0664">- &#37197;&#32622;&#25351;&#21335;: docs/05-config-guide.md</text><rect fill="#F1F1F1" height="33.9688" rx="12.5" ry="12.5" style="stroke:#181818;stroke-width:0.5;" width="68" x="750.8545" y="1437.8823"/><text fill="#000000" font-family="Microsoft YaHei" font-size="12" lengthAdjust="spacing" textLength="48" x="760.8545" y="1459.021">&#24320;&#22987;&#20351;&#29992;</text><ellipse cx="784.8545" cy="1521.1323" fill="none" rx="11" ry="11" style="stroke:#222222;stroke-width:1;"/><ellipse cx="784.8545" cy="1521.1323" fill="#222222" rx="6" ry="6" style="stroke:#222222;stroke-width:1;"/><line style="stroke:#181818;stroke-width:1;" x1="727.1223" x2="717.1223" y1="164.9922" y2="164.9922"/><line style="stroke:#181818;stroke-width:1;" x1="717.1223" x2="717.1223" y1="164.9922" y2="186.9922"/><polygon fill="#181818" points="713.1223,176.9922,717.1223,186.9922,721.1223,176.9922,717.1223,180.9922" style="stroke:#181818;stroke-width:1;"/><line style="stroke:#181818;stroke-width:1;" x1="842.5867" x2="852.5867" y1="164.9922" y2="164.9922"/><line style="stroke:#181818;stroke-width:1;" x1="852.5867" x2="852.5867" y1="164.9922" y2="212.8398"/><polygon fill="#181818" points="848.5867,202.8398,852.5867,212.8398,856.5867,202.8398,852.5867,206.8398" style="stroke:#181818;stroke-width:1;"/><line style="stroke:#181818;stroke-width:1;" x1="717.1223" x2="717.1223" y1="220.9609" y2="290.6563"/><line style="stroke:#181818;stroke-width:1;" x1="717.1223" x2="772.8545" y1="290.6563" y2="290.6563"/><polygon fill="#181818" points="762.8545,286.6563,772.8545,290.6563,762.8545,294.6563,766.8545,290.6563" style="stroke:#181818;stroke-width:1;"/><line style="stroke:#181818;stroke-width:1;" x1="852.5867" x2="852.5867" y1="246.8086" y2="290.6563"/><line style="stroke:#181818;stroke-width:1;" x1="852.5867" x2="796.8545" y1="290.6563" y2="290.6563"/><polygon fill="#181818" points="806.8545,286.6563,796.8545,290.6563,806.8545,294.6563,802.8545,290.6563" style="stroke:#181818;stroke-width:1;"/><line style="stroke:#181818;stroke-width:1;" x1="784.8545" x2="784.8545" y1="122.2773" y2="152.9922"/><polygon fill="#181818" points="780.8545,142.9922,784.8545,152.9922,788.8545,142.9922,784.8545,146.9922" style="stroke:#181818;stroke-width:1;"/><line style="stroke:#181818;stroke-width:1;" x1="784.8545" x2="784.8545" y1="397.9219" y2="421.0703"/><polygon fill="#181818" points="780.8545,411.0703,784.8545,421.0703,788.8545,411.0703,784.8545,415.0703" style="stroke:#181818;stroke-width:1;"/><line style="stroke:#181818;stroke-width:1;" x1="727.8125" x2="716.5542" y1="490.1875" y2="490.1875"/><line style="stroke:#181818;stroke-width:1;" x1="716.5542" x2="716.5542" y1="490.1875" y2="512.1875"/><polygon fill="#181818" points="712.5542,502.1875,716.5542,512.1875,720.5542,502.1875,716.5542,506.1875" style="stroke:#181818;stroke-width:1;"/><line style="stroke:#181818;stroke-width:1;" x1="841.8965" x2="853.1548" y1="490.1875" y2="490.1875"/><line style="stroke:#181818;stroke-width:1;" x1="853.1548" x2="853.1548" y1="490.1875" y2="512.1875"/><polygon fill="#181818" points="849.1548,502.1875,853.1548,512.1875,857.1548,502.1875,853.1548,506.1875" style="stroke:#181818;stroke-width:1;"/><line style="stroke:#181818;stroke-width:1;" x1="716.5542" x2="716.5542" y1="546.1563" y2="564.1563"/><line style="stroke:#181818;stroke-width:1;" x1="716.5542" x2="772.8545" y1="564.1563" y2="564.1563"/><polygon fill="#181818" points="762.8545,560.1563,772.8545,564.1563,762.8545,568.1563,766.8545,564.1563" style="stroke:#181818;stroke-width:1;"/><line style="stroke:#181818;stroke-width:1;" x1="853.1548" x2="853.1548" y1="546.1563" y2="564.1563"/><line style="stroke:#181818;stroke-width:1;" x1="853.1548" x2="796.8545" y1="564.1563" y2="564.1563"/><polygon fill="#181818" points="806.8545,560.1563,796.8545,564.1563,806.8545,568.1563,802.8545,564.1563" style="stroke:#181818;stroke-width:1;"/><line style="stroke:#181818;stroke-width:1;" x1="784.8545" x2="784.8545" y1="455.0391" y2="478.1875"/><polygon fill="#181818" points="780.8545,468.1875,784.8545,478.1875,788.8545,468.1875,784.8545,472.1875" style="stroke:#181818;stroke-width:1;"/><line style="stroke:#181818;stroke-width:1;" x1="784.8545" x2="784.8545" y1="302.6563" y2="363.9531"/><polygon fill="#181818" points="780.8545,353.9531,784.8545,363.9531,788.8545,353.9531,784.8545,357.9531" style="stroke:#181818;stroke-width:1;"/><line style="stroke:#181818;stroke-width:1;" x1="67" x2="67" y1="778.1011" y2="813.1011"/><polygon fill="#181818" points="63,803.1011,67,813.1011,71,803.1011,67,807.1011" style="stroke:#181818;stroke-width:1;"/><line style="stroke:#181818;stroke-width:1;" x1="686.4131" x2="686.4131" y1="778.1011" y2="813.1011"/><polygon fill="#181818" points="682.4131,803.1011,686.4131,813.1011,690.4131,803.1011,686.4131,807.1011" style="stroke:#181818;stroke-width:1;"/><line style="stroke:#181818;stroke-width:1;" x1="67" x2="67" y1="712.4219" y2="744.1323"/><polygon fill="#181818" points="63,734.1323,67,744.1323,71,734.1323,67,738.1323" style="stroke:#181818;stroke-width:1;"/><line style="stroke:#181818;stroke-width:1;" x1="67" x2="67" y1="847.0698" y2="867.0698"/><polygon fill="#181818" points="63,857.0698,67,867.0698,71,857.0698,67,861.0698" style="stroke:#181818;stroke-width:1;"/><line style="stroke:#181818;stroke-width:1;" x1="686.4131" x2="686.4131" y1="712.4219" y2="744.1323"/><polygon fill="#181818" points="682.4131,734.1323,686.4131,744.1323,690.4131,734.1323,686.4131,738.1323" style="stroke:#181818;stroke-width:1;"/><line style="stroke:#181818;stroke-width:1;" x1="686.4131" x2="686.4131" y1="847.0698" y2="867.0698"/><polygon fill="#181818" points="682.4131,857.0698,686.4131,867.0698,690.4131,857.0698,686.4131,861.0698" style="stroke:#181818;stroke-width:1;"/><line style="stroke:#181818;stroke-width:1;" x1="103.9192" x2="646.9131" y1="700.4219" y2="700.4219"/><polygon fill="#181818" points="636.9131,696.4219,646.9131,700.4219,636.9131,704.4219,640.9131,700.4219" style="stroke:#181818;stroke-width:1;"/><line style="stroke:#181818;stroke-width:1;" x1="784.8545" x2="784.8545" y1="668.4219" y2="673.4219"/><line style="stroke:#181818;stroke-width:1;" x1="784.8545" x2="67" y1="673.4219" y2="673.4219"/><line style="stroke:#181818;stroke-width:1;" x1="67" x2="67" y1="673.4219" y2="688.4219"/><polygon fill="#181818" points="63,678.4219,67,688.4219,71,678.4219,67,682.4219" style="stroke:#181818;stroke-width:1;"/><line style="stroke:#181818;stroke-width:1;" x1="725.9131" x2="1156.0249" y1="700.4219" y2="700.4219"/><line style="stroke:#181818;stroke-width:1;" x1="1156.0249" x2="1156.0249" y1="700.4219" y2="775.2144"/><polygon fill="#181818" points="1152.0249,765.2144,1156.0249,775.2144,1160.0249,765.2144,1156.0249,769.2144" style="stroke:#181818;stroke-width:1;"/><line style="stroke:#181818;stroke-width:1;" x1="1156.0249" x2="1156.0249" y1="809.1831" y2="867.0698"/><polygon fill="#181818" points="1152.0249,857.0698,1156.0249,867.0698,1160.0249,857.0698,1156.0249,861.0698" style="stroke:#181818;stroke-width:1;"/><line style="stroke:#181818;stroke-width:1;" x1="67" x2="1156.0249" y1="867.0698" y2="867.0698"/><line style="stroke:#181818;stroke-width:1;" x1="784.8545" x2="784.8545" y1="576.1563" y2="634.4531"/><polygon fill="#181818" points="780.8545,624.4531,784.8545,634.4531,788.8545,624.4531,784.8545,628.4531" style="stroke:#181818;stroke-width:1;"/><line style="stroke:#181818;stroke-width:1;" x1="784.8545" x2="784.8545" y1="959.3354" y2="979.3354"/><polygon fill="#181818" points="780.8545,969.3354,784.8545,979.3354,788.8545,969.3354,784.8545,973.3354" style="stroke:#181818;stroke-width:1;"/><line style="stroke:#181818;stroke-width:1;" x1="736.9353" x2="726.9353" y1="1045.3042" y2="1045.3042"/><line style="stroke:#181818;stroke-width:1;" x1="726.9353" x2="726.9353" y1="1045.3042" y2="1067.3042"/><polygon fill="#181818" points="722.9353,1057.3042,726.9353,1067.3042,730.9353,1057.3042,726.9353,1061.3042" style="stroke:#181818;stroke-width:1;"/><line style="stroke:#181818;stroke-width:1;" x1="832.7737" x2="842.7737" y1="1045.3042" y2="1045.3042"/><line style="stroke:#181818;stroke-width:1;" x1="842.7737" x2="842.7737" y1="1045.3042" y2="1085.5854"/><polygon fill="#181818" points="838.7737,1075.5854,842.7737,1085.5854,846.7737,1075.5854,842.7737,1079.5854" style="stroke:#181818;stroke-width:1;"/><line style="stroke:#181818;stroke-width:1;" x1="726.9353" x2="726.9353" y1="1101.2729" y2="1155.8354"/><line style="stroke:#181818;stroke-width:1;" x1="726.9353" x2="772.8545" y1="1155.8354" y2="1155.8354"/><polygon fill="#181818" points="762.8545,1151.8354,772.8545,1155.8354,762.8545,1159.8354,766.8545,1155.8354" style="stroke:#181818;stroke-width:1;"/><line style="stroke:#181818;stroke-width:1;" x1="842.7737" x2="842.7737" y1="1119.5542" y2="1155.8354"/><line style="stroke:#181818;stroke-width:1;" x1="842.7737" x2="796.8545" y1="1155.8354" y2="1155.8354"/><polygon fill="#181818" points="806.8545,1151.8354,796.8545,1155.8354,806.8545,1159.8354,802.8545,1155.8354" style="stroke:#181818;stroke-width:1;"/><line style="stroke:#181818;stroke-width:1;" x1="784.8545" x2="784.8545" y1="1013.3042" y2="1033.3042"/><polygon fill="#181818" points="780.8545,1023.3042,784.8545,1033.3042,788.8545,1023.3042,784.8545,1027.3042" style="stroke:#181818;stroke-width:1;"/><line style="stroke:#181818;stroke-width:1;" x1="784.8545" x2="784.8545" y1="867.0698" y2="925.3667"/><polygon fill="#181818" points="780.8545,915.3667,784.8545,925.3667,788.8545,915.3667,784.8545,919.3667" style="stroke:#181818;stroke-width:1;"/><line style="stroke:#181818;stroke-width:1;" x1="784.8545" x2="784.8545" y1="1271.3823" y2="1309.6636"/><polygon fill="#181818" points="780.8545,1299.6636,784.8545,1309.6636,788.8545,1299.6636,784.8545,1303.6636" style="stroke:#181818;stroke-width:1;"/><line style="stroke:#181818;stroke-width:1;" x1="784.8545" x2="784.8545" y1="1343.6323" y2="1363.6323"/><polygon fill="#181818" points="780.8545,1353.6323,784.8545,1363.6323,788.8545,1353.6323,784.8545,1357.6323" style="stroke:#181818;stroke-width:1;"/><line style="stroke:#181818;stroke-width:1;" x1="784.8545" x2="784.8545" y1="1167.8354" y2="1237.4136"/><polygon fill="#181818" points="780.8545,1227.4136,784.8545,1237.4136,788.8545,1227.4136,784.8545,1231.4136" style="stroke:#181818;stroke-width:1;"/><line style="stroke:#181818;stroke-width:1;" x1="784.8545" x2="784.8545" y1="1397.6011" y2="1437.8823"/><polygon fill="#181818" points="780.8545,1427.8823,784.8545,1437.8823,788.8545,1427.8823,784.8545,1431.8823" style="stroke:#181818;stroke-width:1;"/><line style="stroke:#181818;stroke-width:1;" x1="784.8545" x2="784.8545" y1="1471.8511" y2="1510.1323"/><polygon fill="#181818" points="780.8545,1500.1323,784.8545,1510.1323,788.8545,1500.1323,784.8545,1504.1323" style="stroke:#181818;stroke-width:1;"/><rect fill="none" height="176.9688" id="_legend" rx="7.5" ry="7.5" style="stroke:#000000;stroke-width:1;" width="163.8701" x="1380.8389" y="1543.1323"/><text fill="#000000" font-family="Microsoft YaHei" font-size="14" font-weight="bold" lengthAdjust="spacing" textLength="28" x="1390.7129" y="1563.1274">&#39068;&#33394;</text><text fill="#000000" font-family="Microsoft YaHei" font-size="14" font-weight="bold" lengthAdjust="spacing" textLength="28" x="1428.4609" y="1563.1274">&#38454;&#27573;</text><rect fill="#E0FFFF" height="16.2969" style="stroke:none;stroke-width:1;" width="37.748" x="1385.8389" y="1566.4292"/><text fill="#000000" font-family="Microsoft YaHei" font-size="14" lengthAdjust="spacing" textLength="4.4502" x="1385.8389" y="1579.4243">&#160;</text><text fill="#000000" font-family="Microsoft YaHei" font-size="14" lengthAdjust="spacing" textLength="56" x="1428.0371" y="1579.4243">&#29615;&#22659;&#26816;&#26597;</text><rect fill="#ADD8E6" height="16.2969" style="stroke:none;stroke-width:1;" width="37.748" x="1385.8389" y="1582.7261"/><text fill="#000000" font-family="Microsoft YaHei" font-size="14" lengthAdjust="spacing" textLength="4.4502" x="1385.8389" y="1595.7212">&#160;</text><text fill="#000000" font-family="Microsoft YaHei" font-size="14" lengthAdjust="spacing" textLength="107.2217" x="1428.0371" y="1595.7212">&#23433;&#35013; Claude CLI</text><rect fill="#90EE90" height="16.2969" style="stroke:none;stroke-width:1;" width="37.748" x="1385.8389" y="1599.0229"/><text fill="#000000" font-family="Microsoft YaHei" font-size="14" lengthAdjust="spacing" textLength="4.4502" x="1385.8389" y="1612.0181">&#160;</text><text fill="#000000" font-family="Microsoft YaHei" font-size="14" lengthAdjust="spacing" textLength="70" x="1428.0371" y="1612.0181">&#23433;&#35013;&#33510;&#34892;&#20711;</text><rect fill="#FFFFE0" height="16.2969" style="stroke:none;stroke-width:1;" width="37.748" x="1385.8389" y="1615.3198"/><text fill="#000000" font-family="Microsoft YaHei" font-size="14" lengthAdjust="spacing" textLength="4.4502" x="1385.8389" y="1628.3149">&#160;</text><text fill="#000000" font-family="Microsoft YaHei" font-size="14" lengthAdjust="spacing" textLength="56" x="1428.0371" y="1628.3149">&#39564;&#35777;&#23433;&#35013;</text><rect fill="#FFC0CB" height="16.2969" style="stroke:none;stroke-width:1;" width="37.748" x="1385.8389" y="1631.6167"/><text fill="#000000" font-family="Microsoft YaHei" font-size="14" lengthAdjust="spacing" textLength="4.4502" x="1385.8389" y="1644.6118">&#160;</text><text fill="#000000" font-family="Microsoft YaHei" font-size="14" lengthAdjust="spacing" textLength="56" x="1428.0371" y="1644.6118">&#21487;&#36873;&#37197;&#32622;</text><rect fill="#ADD8E6" height="16.2969" style="stroke:none;stroke-width:1;" width="37.748" x="1385.8389" y="1647.9136"/><text fill="#000000" font-family="Microsoft YaHei" font-size="14" lengthAdjust="spacing" textLength="4.4502" x="1385.8389" y="1660.9087">&#160;</text><text fill="#000000" font-family="Microsoft YaHei" font-size="14" lengthAdjust="spacing" textLength="56" x="1428.0371" y="1660.9087">&#37197;&#32622;&#20449;&#24687;</text><rect fill="#FFFACD" height="16.2969" style="stroke:none;stroke-width:1;" width="37.748" x="1385.8389" y="1664.2104"/><text fill="#000000" font-family="Microsoft YaHei" font-size="14" lengthAdjust="spacing" textLength="4.4502" x="1385.8389" y="1677.2056">&#160;</text><text fill="#000000" font-family="Microsoft YaHei" font-size="14" lengthAdjust="spacing" textLength="56" x="1428.0371" y="1677.2056">&#20851;&#38190;&#21629;&#20196;</text><rect fill="#FFB6C1" height="16.2969" style="stroke:none;stroke-width:1;" width="37.748" x="1385.8389" y="1680.5073"/><text fill="#000000" font-family="Microsoft YaHei" font-size="14" lengthAdjust="spacing" textLength="4.4502" x="1385.8389" y="1693.5024">&#160;</text><text fill="#000000" font-family="Microsoft YaHei" font-size="14" lengthAdjust="spacing" textLength="56" x="1428.0371" y="1693.5024">&#38169;&#35823;&#22788;&#29702;</text><rect fill="#98FB98" height="16.2969" style="stroke:none;stroke-width:1;" width="37.748" x="1385.8389" y="1696.8042"/><text fill="#000000" font-family="Microsoft YaHei" font-size="14" lengthAdjust="spacing" textLength="4.4502" x="1385.8389" y="1709.7993">&#160;</text><text fill="#000000" font-family="Microsoft YaHei" font-size="14" lengthAdjust="spacing" textLength="56" x="1428.0371" y="1709.7993">&#25104;&#21151;&#23436;&#25104;</text><line style="stroke:#000000;stroke-width:1;" x1="1385.8389" x2="1539.709" y1="1550.1323" y2="1550.1323"/><line style="stroke:#000000;stroke-width:1;" x1="1385.8389" x2="1539.709" y1="1566.4292" y2="1566.4292"/><line style="stroke:#000000;stroke-width:1;" x1="1385.8389" x2="1539.709" y1="1582.7261" y2="1582.7261"/><line style="stroke:#000000;stroke-width:1;" x1="1385.8389" x2="1539.709" y1="1599.0229" y2="1599.0229"/><line style="stroke:#000000;stroke-width:1;" x1="1385.8389" x2="1539.709" y1="1615.3198" y2="1615.3198"/><line style="stroke:#000000;stroke-width:1;" x1="1385.8389" x2="1539.709" y1="1631.6167" y2="1631.6167"/><line style="stroke:#000000;stroke-width:1;" x1="1385.8389" x2="1539.709" y1="1647.9136" y2="1647.9136"/><line style="stroke:#000000;stroke-width:1;" x1="1385.8389" x2="1539.709" y1="1664.2104" y2="1664.2104"/><line style="stroke:#000000;stroke-width:1;" x1="1385.8389" x2="1539.709" y1="1680.5073" y2="1680.5073"/><line style="stroke:#000000;stroke-width:1;" x1="1385.8389" x2="1539.709" y1="1696.8042" y2="1696.8042"/><line style="stroke:#000000;stroke-width:1;" x1="1385.8389" x2="1539.709" y1="1713.1011" y2="1713.1011"/><line style="stroke:#000000;stroke-width:1;" x1="1385.8389" x2="1385.8389" y1="1550.1323" y2="1713.1011"/><line style="stroke:#000000;stroke-width:1;" x1="1423.5869" x2="1423.5869" y1="1550.1323" y2="1713.1011"/><line style="stroke:#000000;stroke-width:1;" x1="1539.709" x2="1539.709" y1="1550.1323" y2="1713.1011"/><!--SRC=[bLPhKnDN6Fw-l-ACVa6SpMgz32wz60Ef35OPiTFXaxD93iafcztjxec0fPqWvTQ4G0U7sefZ4HLg9M0j5a7altHoTZV_ecVtx0q84VCf-xxF-vxt-fnZ3215atGf3r9IUY2hgmKbar1bLGU3EOGXPmJw3EoN2Z9EgWg-BkKX-0gbTTLG-p7eawv2n74OOHa2KfssbyVDpL5hjKGUlkSuQaqrI5N0YTRM-eCtPdNph0YioZfvCcOk5yt7prfRJu2Jrr0sXnF3aWA-vm3zYKm7UePnZjfQqrFcuijsLwMe60BTmOEJyOwEjiwBhjX-Fcg-kYUw_tbWBXPhknNHjpyNQpljQoghzinSH7Fs35D19UFwvjmlr0zQzXrklNnEvgQ-E0Lm3YgWPHWQfroW6-r_Y_D1g6vgPEELjVE21Gnb0u8MHOtWoSoajRtYcRG7ycXgoUILYucpWUhhL4711Q43ff2aY87OA6HK86cOpq8Ca69WIPQ1vhfrCkC2O5vAt-WDxL8w73o0l-mQ-82W6ju7wkT-QDZDJqIlwI0XIuKC18bhNM5BhyW5wBVq4AnfFskxUzRzLQ1eUSy_2zxvzkFci-2ofE2ShceepKj8IBkk-RIQWGrQAjPVbEtrqQO199F9UAA33TJUdBrK9h_irdQUihEPUy3pTw1kq28SCJQXVq1crsaIJOOcYcq-Clv2n6zT1VNn6MktUgoviPQgjRr7h8pZg-HLaPJ7oU8gyrFRMlluXf_p6swNdZi56bi9s_sb3c6mmlNYj5dwqsE4XRVatMnxMAIeEAXFRQjax-u27SfGCc0aUQQWIsqkR4IveCdyEBz1Pojo66k6A0XPX7E5L2ojveKSkalFotvBLqaOA0mX9IjuPng2B65eO4ySmv8UozvjN2GtCdjbcLHAvi9aRUTDs3idmzfEnToUi_uOPQasdW4oNgh_Fb7RcIVRyyTAYMP1vr1LuF7oYb5ja-XPQBNtZ-pDXMCTho4jN3-TTkgx0j9X7YhOYE6X8uvYqsmz_CUiF6Dh7Qt0r4Eoi-smw-o_zVdt57AiG6G5y0OGD0dd1ApwNKpBAAOD0w5Ww8AifYLPI26_585fEfTNC-3qq0TWnrw8yo9WpCAg6Mv37vHbTT1V1yOdR7hPCZUb7qRAmCke6UU8r9MrM69Sm_ZgeppdeAmTGMNCcxcsJBQsMFnDkCnRwQavylFZ3z1OiuaxG63CeBxqDhoy-FtFWeXS6nwMyZAWonGHXXpxyRsz83eSJfcCKQxRsnwa30GSvugzEt_sGNrozd3fEy_GuYTTCHjsyACGymOMAdVy9qly-gshDs_qT2LkntkwRdTtzddotexksmvRUv_VtBZPtTiJJtGscWGozOYib4XvWN6zNTqWUnDD8ze_34X1c5wV2eP3c4v6LbPJajpe8AVVB7TIBTEMjplr4ycx8ZsUhNWx5ptnKbloogKsZl9uRQjehZqJEHwGlR_gnSVCHWGPDMq8Pyxnb53I0pnb61t7yXa7viuWcRrd5yTys7aQP3ulAHc3OLWePdcIpFpgOouuYVIZB9yje0nqS64E1bOrZfDXrX6v8RffZNm6wayMxUc_tN_k080HflaqVA9-FhBl_Ne0uRnuAEBGO-S0pBqf0rnmbHv0CGQXi2Z1X1Xd4XqVaGaDbOmm7LjNKTjRCaVNGpKZ1CTw_7NzVfLLEQfsjj2nll-RlRvEdlvapKs4QjPFgcRhpeQ0gcazMLMv_m40]--></g></svg>