<svg xmlns="http://www.w3.org/2000/svg" xmlns:xlink="http://www.w3.org/1999/xlink" contentStyleType="text/css" height="931px" preserveAspectRatio="none" style="width:1227px;height:931px;background:#FFFFFF;" version="1.1" viewBox="0 0 1227 931" width="1227px" zoomAndPan="magnify"><title>&#35760;&#24518;&#23618;&#27425;&#20132;&#20114;&#22270;</title><defs/><g><text fill="#000000" font-family="Microsoft YaHei" font-size="14" font-weight="bold" lengthAdjust="spacing" textLength="98" x="557.9694" y="22.9951">&#35760;&#24518;&#23618;&#27425;&#20132;&#20114;&#22270;</text><!--cluster ??????--><g id="cluster_&#35760;&#24518;&#23618;&#27425;&#31995;&#32479;"><path d="M42.16,181.7969 L127.16,181.7969 A3.75,3.75 0 0 1 129.66,184.2969 L136.66,204.0938 L620.16,204.0938 A2.5,2.5 0 0 1 622.66,206.5938 L622.66,779.2969 A2.5,2.5 0 0 1 620.16,781.7969 L42.16,781.7969 A2.5,2.5 0 0 1 39.66,779.2969 L39.66,184.2969 A2.5,2.5 0 0 1 42.16,181.7969 " fill="none" style="stroke:#000000;stroke-width:1.5;"/><line style="stroke:#000000;stroke-width:1.5;" x1="39.66" x2="136.66" y1="204.0938" y2="204.0938"/><text fill="#000000" font-family="Microsoft YaHei" font-size="14" font-weight="bold" lengthAdjust="spacing" textLength="84" x="43.66" y="196.792">&#35760;&#24518;&#23618;&#27425;&#31995;&#32479;</text></g><!--cluster ??????--><g id="cluster_&#39640;&#20248;&#20808;&#32423;&#35760;&#24518;"><path d="M66.16,378.2969 L151.16,378.2969 A3.75,3.75 0 0 1 153.66,380.7969 L160.66,400.5938 L386.16,400.5938 A2.5,2.5 0 0 1 388.66,403.0938 L388.66,521.7969 A2.5,2.5 0 0 1 386.16,524.2969 L66.16,524.2969 A2.5,2.5 0 0 1 63.66,521.7969 L63.66,380.7969 A2.5,2.5 0 0 1 66.16,378.2969 " fill="none" style="stroke:#000000;stroke-width:1.5;"/><line style="stroke:#000000;stroke-width:1.5;" x1="63.66" x2="160.66" y1="400.5938" y2="400.5938"/><text fill="#000000" font-family="Microsoft YaHei" font-size="14" font-weight="bold" lengthAdjust="spacing" textLength="84" x="67.66" y="393.292">&#39640;&#20248;&#20808;&#32423;&#35760;&#24518;</text></g><!--cluster ????--><g id="cluster_&#20849;&#20139;&#35760;&#24518;"><path d="M415.16,378.2969 L472.16,378.2969 A3.75,3.75 0 0 1 474.66,380.7969 L481.66,400.5938 L596.16,400.5938 A2.5,2.5 0 0 1 598.66,403.0938 L598.66,521.7969 A2.5,2.5 0 0 1 596.16,524.2969 L415.16,524.2969 A2.5,2.5 0 0 1 412.66,521.7969 L412.66,380.7969 A2.5,2.5 0 0 1 415.16,378.2969 " fill="none" style="stroke:#000000;stroke-width:1.5;"/><line style="stroke:#000000;stroke-width:1.5;" x1="412.66" x2="481.66" y1="400.5938" y2="400.5938"/><text fill="#000000" font-family="Microsoft YaHei" font-size="14" font-weight="bold" lengthAdjust="spacing" textLength="56" x="416.66" y="393.292">&#20849;&#20139;&#35760;&#24518;</text></g><!--cluster ????--><g id="cluster_&#21382;&#21490;&#35760;&#24518;"><path d="M144.16,611.7969 L201.16,611.7969 A3.75,3.75 0 0 1 203.66,614.2969 L210.66,634.0938 L518.16,634.0938 A2.5,2.5 0 0 1 520.66,636.5938 L520.66,755.2969 A2.5,2.5 0 0 1 518.16,757.7969 L144.16,757.7969 A2.5,2.5 0 0 1 141.66,755.2969 L141.66,614.2969 A2.5,2.5 0 0 1 144.16,611.7969 " fill="none" style="stroke:#000000;stroke-width:1.5;"/><line style="stroke:#000000;stroke-width:1.5;" x1="141.66" x2="210.66" y1="634.0938" y2="634.0938"/><text fill="#000000" font-family="Microsoft YaHei" font-size="14" font-weight="bold" lengthAdjust="spacing" textLength="56" x="145.66" y="626.792">&#21382;&#21490;&#35760;&#24518;</text></g><!--entity index--><g id="elem_index"><rect fill="#ADD8E6" height="78.8906" rx="2.5" ry="2.5" style="stroke:#181818;stroke-width:0.5;" width="129.2773" x="277.16" y="216.7969"/><rect fill="#ADD8E6" height="10" style="stroke:#181818;stroke-width:0.5;" width="15" x="386.4373" y="221.7969"/><rect fill="#ADD8E6" height="2" style="stroke:#181818;stroke-width:0.5;" width="4" x="384.4373" y="223.7969"/><rect fill="#ADD8E6" height="2" style="stroke:#181818;stroke-width:0.5;" width="4" x="384.4373" y="227.7969"/><text fill="#000000" font-family="Microsoft YaHei" font-size="14" font-style="italic" lengthAdjust="spacing" textLength="69.1045" x="302.2464" y="249.792">&#171;session&#187;</text><text fill="#000000" font-family="Microsoft YaHei" font-size="14" lengthAdjust="spacing" textLength="89.2773" x="292.16" y="266.0889">MEMORY.md</text><text fill="#000000" font-family="Microsoft YaHei" font-size="14" lengthAdjust="spacing" textLength="56" x="292.16" y="282.3857">&#35760;&#24518;&#32034;&#24341;</text></g><!--entity session--><g id="elem_session"><rect fill="#ADD8E6" height="95.1875" rx="2.5" ry="2.5" style="stroke:#181818;stroke-width:0.5;" width="133.1602" x="80.16" y="413.2969"/><rect fill="#ADD8E6" height="10" style="stroke:#181818;stroke-width:0.5;" width="15" x="193.3202" y="418.2969"/><rect fill="#ADD8E6" height="2" style="stroke:#181818;stroke-width:0.5;" width="4" x="191.3202" y="420.2969"/><rect fill="#ADD8E6" height="2" style="stroke:#181818;stroke-width:0.5;" width="4" x="191.3202" y="424.2969"/><text fill="#000000" font-family="Microsoft YaHei" font-size="14" font-style="italic" lengthAdjust="spacing" textLength="69.1045" x="107.1878" y="446.292">&#171;session&#187;</text><text fill="#000000" font-family="Microsoft YaHei" font-size="14" lengthAdjust="spacing" textLength="78.7979" x="95.16" y="462.5889">session.md</text><text fill="#000000" font-family="Microsoft YaHei" font-size="14" lengthAdjust="spacing" textLength="56" x="95.16" y="478.8857">&#20250;&#35805;&#35760;&#24518;</text><text fill="#000000" font-family="Microsoft YaHei" font-size="14" lengthAdjust="spacing" textLength="93.1602" x="95.16" y="495.1826">(10&#20010;section)</text></g><!--entity project--><g id="elem_project"><rect fill="#90EE90" height="78.8906" rx="2.5" ry="2.5" style="stroke:#181818;stroke-width:0.5;" width="124" x="248.66" y="421.2969"/><rect fill="#90EE90" height="10" style="stroke:#181818;stroke-width:0.5;" width="15" x="352.66" y="426.2969"/><rect fill="#90EE90" height="2" style="stroke:#181818;stroke-width:0.5;" width="4" x="350.66" y="428.2969"/><rect fill="#90EE90" height="2" style="stroke:#181818;stroke-width:0.5;" width="4" x="350.66" y="432.2969"/><text fill="#000000" font-family="Microsoft YaHei" font-size="14" font-style="italic" lengthAdjust="spacing" textLength="66.1787" x="272.5706" y="454.292">&#171;project&#187;</text><text fill="#000000" font-family="Microsoft YaHei" font-size="14" lengthAdjust="spacing" textLength="79.9873" x="263.66" y="470.5889">context.md</text><text fill="#000000" font-family="Microsoft YaHei" font-size="14" lengthAdjust="spacing" textLength="84" x="263.66" y="486.8857">&#39033;&#30446;&#31169;&#26377;&#35760;&#24518;</text></g><!--entity global--><g id="elem_global"><rect fill="#FFFFE0" height="95.1875" rx="2.5" ry="2.5" style="stroke:#181818;stroke-width:0.5;" width="152.7314" x="429.16" y="413.2969"/><rect fill="#FFFFE0" height="10" style="stroke:#181818;stroke-width:0.5;" width="15" x="561.8914" y="418.2969"/><rect fill="#FFFFE0" height="2" style="stroke:#181818;stroke-width:0.5;" width="4" x="559.8914" y="420.2969"/><rect fill="#FFFFE0" height="2" style="stroke:#181818;stroke-width:0.5;" width="4" x="559.8914" y="424.2969"/><text fill="#000000" font-family="Microsoft YaHei" font-size="14" font-style="italic" lengthAdjust="spacing" textLength="59.9785" x="470.5365" y="446.292">&#171;global&#187;</text><text fill="#000000" font-family="Microsoft YaHei" font-size="14" lengthAdjust="spacing" textLength="112.7314" x="444.16" y="462.5889">shared_context/</text><text fill="#000000" font-family="Microsoft YaHei" font-size="14" lengthAdjust="spacing" textLength="79.9873" x="444.16" y="478.8857">context.md</text><text fill="#000000" font-family="Microsoft YaHei" font-size="14" lengthAdjust="spacing" textLength="84" x="444.16" y="495.1826">&#20840;&#23616;&#20849;&#20139;&#35760;&#24518;</text></g><!--entity rounds--><g id="elem_rounds"><rect fill="#FFC0CB" height="95.1875" rx="2.5" ry="2.5" style="stroke:#181818;stroke-width:0.5;" width="128.0264" x="157.66" y="646.7969"/><rect fill="#FFC0CB" height="10" style="stroke:#181818;stroke-width:0.5;" width="15" x="265.6864" y="651.7969"/><rect fill="#FFC0CB" height="2" style="stroke:#181818;stroke-width:0.5;" width="4" x="263.6864" y="653.7969"/><rect fill="#FFC0CB" height="2" style="stroke:#181818;stroke-width:0.5;" width="4" x="263.6864" y="657.7969"/><text fill="#000000" font-family="Microsoft YaHei" font-size="14" font-style="italic" lengthAdjust="spacing" textLength="65.5293" x="183.9085" y="679.792">&#171;rounds&#187;</text><text fill="#000000" font-family="Microsoft YaHei" font-size="14" lengthAdjust="spacing" textLength="52.9648" x="172.66" y="696.0889">rounds/</text><text fill="#000000" font-family="Microsoft YaHei" font-size="14" lengthAdjust="spacing" textLength="88.0264" x="172.66" y="712.3857">round_*.json</text><text fill="#000000" font-family="Microsoft YaHei" font-size="14" lengthAdjust="spacing" textLength="56" x="172.66" y="728.6826">&#36718;&#27425;&#35760;&#24518;</text></g><!--entity knowledge--><g id="elem_knowledge"><rect fill="#E0FFFF" height="78.8906" rx="2.5" ry="2.5" style="stroke:#181818;stroke-width:0.5;" width="183.2334" x="321.16" y="654.7969"/><rect fill="#E0FFFF" height="10" style="stroke:#181818;stroke-width:0.5;" width="15" x="484.3934" y="659.7969"/><rect fill="#E0FFFF" height="2" style="stroke:#181818;stroke-width:0.5;" width="4" x="482.3934" y="661.7969"/><rect fill="#E0FFFF" height="2" style="stroke:#181818;stroke-width:0.5;" width="4" x="482.3934" y="665.7969"/><text fill="#000000" font-family="Microsoft YaHei" font-size="14" font-style="italic" lengthAdjust="spacing" textLength="93.167" x="361.1932" y="687.792">&#171;knowledge&#187;</text><text fill="#000000" font-family="Microsoft YaHei" font-size="14" lengthAdjust="spacing" textLength="143.2334" x="336.16" y="704.0889">knowledge_base.md</text><text fill="#000000" font-family="Microsoft YaHei" font-size="14" lengthAdjust="spacing" textLength="56" x="336.16" y="720.3857">&#30693;&#35782;&#27785;&#28096;</text></g><!--entity scheduler--><g id="elem_scheduler"><ellipse cx="145.7044" cy="51.2969" fill="#F1F1F1" rx="8" ry="8" style="stroke:#181818;stroke-width:0.5;"/><path d="M145.7044,59.2969 L145.7044,86.2969 M132.7044,67.2969 L158.7044,67.2969 M145.7044,86.2969 L132.7044,101.2969 M145.7044,86.2969 L158.7044,101.2969 " fill="none" style="stroke:#181818;stroke-width:0.5;"/><text fill="#000000" font-family="Microsoft YaHei" font-size="14" lengthAdjust="spacing" textLength="70.0889" x="110.66" y="115.792">Scheduler</text></g><!--entity store--><g id="elem_store"><ellipse cx="341.7835" cy="51.2969" fill="#F1F1F1" rx="8" ry="8" style="stroke:#181818;stroke-width:0.5;"/><path d="M341.7835,59.2969 L341.7835,86.2969 M328.7835,67.2969 L354.7835,67.2969 M341.7835,86.2969 L328.7835,101.2969 M341.7835,86.2969 L354.7835,101.2969 " fill="none" style="stroke:#181818;stroke-width:0.5;"/><text fill="#000000" font-family="Microsoft YaHei" font-size="14" lengthAdjust="spacing" textLength="94.2471" x="294.66" y="115.792">MemoryStore</text></g><g id="elem_GMN22"><path d="M638.66,372.7969 L638.66,549.2578 L810.5311,549.2578 L810.5311,382.7969 L800.5311,372.7969 L638.66,372.7969 " fill="#FEFFDD" style="stroke:#181818;stroke-width:0.5;"/><path d="M800.5311,372.7969 L800.5311,382.7969 L810.5311,382.7969 L800.5311,372.7969 " fill="#FEFFDD" style="stroke:#181818;stroke-width:1;"/><text fill="#000000" font-family="Microsoft YaHei" font-size="13" font-weight="bold" lengthAdjust="spacing" textLength="150.8711" x="644.66" y="389.8638">&#20250;&#35805;&#35760;&#24518; (session.md)</text><text fill="#000000" font-family="Microsoft YaHei" font-size="13" lengthAdjust="spacing" textLength="60.8232" x="644.66" y="404.9966">- &#25191;&#34892;&#26631;&#39064;</text><text fill="#000000" font-family="Microsoft YaHei" font-size="13" lengthAdjust="spacing" textLength="139.8071" x="644.66" y="420.1294">- &#24403;&#21069;&#29366;&#24577; &#8592;&#9472; &#27599;&#36718;&#26356;&#26032;</text><text fill="#000000" font-family="Microsoft YaHei" font-size="13" lengthAdjust="spacing" textLength="60.8232" x="644.66" y="435.2622">- &#20219;&#21153;&#35268;&#26684;</text><text fill="#000000" font-family="Microsoft YaHei" font-size="13" lengthAdjust="spacing" textLength="139.8071" x="644.66" y="450.395">- &#20851;&#38190;&#25991;&#20214; &#8592;&#9472; &#33258;&#21160;&#28155;&#21152;</text><text fill="#000000" font-family="Microsoft YaHei" font-size="13" lengthAdjust="spacing" textLength="60.8232" x="644.66" y="465.5278">- &#24037;&#20316;&#27969;&#31243;</text><text fill="#000000" font-family="Microsoft YaHei" font-size="13" lengthAdjust="spacing" textLength="73.8232" x="644.66" y="480.6606">- &#38169;&#35823;&#19982;&#20462;&#27491;</text><text fill="#000000" font-family="Microsoft YaHei" font-size="13" lengthAdjust="spacing" textLength="73.8232" x="644.66" y="495.7935">- &#20195;&#30721;&#24211;&#25991;&#26723;</text><text fill="#000000" font-family="Microsoft YaHei" font-size="13" lengthAdjust="spacing" textLength="139.8071" x="644.66" y="510.9263">- &#23398;&#20064;&#24635;&#32467; &#8592;&#9472; &#33258;&#21160;&#25552;&#21462;</text><text fill="#000000" font-family="Microsoft YaHei" font-size="13" lengthAdjust="spacing" textLength="60.8232" x="644.66" y="526.0591">- &#20851;&#38190;&#32467;&#26524;</text><text fill="#000000" font-family="Microsoft YaHei" font-size="13" lengthAdjust="spacing" textLength="139.8071" x="644.66" y="541.1919">- &#24037;&#20316;&#26085;&#24535; &#8592;&#9472; &#27599;&#36718;&#36861;&#21152;</text></g><g id="elem_GMN25"><path d="M846.16,417.7969 L846.16,503.4609 L992.9832,503.4609 L992.9832,427.7969 L982.9832,417.7969 L846.16,417.7969 " fill="#FEFFDD" style="stroke:#181818;stroke-width:0.5;"/><path d="M982.9832,417.7969 L982.9832,427.7969 L992.9832,427.7969 L982.9832,417.7969 " fill="#FEFFDD" style="stroke:#181818;stroke-width:1;"/><text fill="#000000" font-family="Microsoft YaHei" font-size="13" font-weight="bold" lengthAdjust="spacing" textLength="78" x="852.16" y="434.8638">&#39033;&#30446;&#31169;&#26377;&#35760;&#24518;</text><text fill="#000000" font-family="Microsoft YaHei" font-size="13" lengthAdjust="spacing" textLength="91.7427" x="852.16" y="449.9966">- SDK &#36335;&#24452;&#37197;&#32622;</text><text fill="#000000" font-family="Microsoft YaHei" font-size="13" lengthAdjust="spacing" textLength="86.8232" x="852.16" y="465.1294">- &#21442;&#32771;&#25991;&#26723;&#36335;&#24452;</text><text fill="#000000" font-family="Microsoft YaHei" font-size="13" lengthAdjust="spacing" textLength="86.8232" x="852.16" y="480.2622">- &#39033;&#30446;&#29305;&#23450;&#20449;&#24687;</text><text fill="#000000" font-family="Microsoft YaHei" font-size="13" lengthAdjust="spacing" textLength="125.8232" x="852.16" y="495.395">- &#24050;&#30693;&#38382;&#39064;&#21644;&#29305;&#27530;&#22788;&#29702;</text></g><g id="elem_GMN28"><path d="M1028.66,425.2969 L1028.66,495.8281 L1220.9388,495.8281 L1220.9388,435.2969 L1210.9388,425.2969 L1028.66,425.2969 " fill="#FEFFDD" style="stroke:#181818;stroke-width:0.5;"/><path d="M1210.9388,425.2969 L1210.9388,435.2969 L1220.9388,435.2969 L1210.9388,425.2969 " fill="#FEFFDD" style="stroke:#181818;stroke-width:1;"/><text fill="#000000" font-family="Microsoft YaHei" font-size="13" font-weight="bold" lengthAdjust="spacing" textLength="78" x="1034.66" y="442.3638">&#20840;&#23616;&#20849;&#20139;&#35760;&#24518;</text><text fill="#000000" font-family="Microsoft YaHei" font-size="13" lengthAdjust="spacing" textLength="171.2788" x="1034.66" y="457.4966">- &#29615;&#22659;&#21464;&#37327; (${VAR_NAME})</text><text fill="#000000" font-family="Microsoft YaHei" font-size="13" lengthAdjust="spacing" textLength="99.8232" x="1034.66" y="472.6294">- &#36328;&#39033;&#30446;&#20849;&#20139;&#37197;&#32622;</text><text fill="#000000" font-family="Microsoft YaHei" font-size="13" lengthAdjust="spacing" textLength="60.8232" x="1034.66" y="487.7622">- &#36134;&#21495;&#20449;&#24687;</text></g><g id="elem_GMN31"><path d="M638.66,658.7969 L638.66,729.3281 L772.4832,729.3281 L772.4832,668.7969 L762.4832,658.7969 L638.66,658.7969 " fill="#FEFFDD" style="stroke:#181818;stroke-width:0.5;"/><path d="M762.4832,658.7969 L762.4832,668.7969 L772.4832,668.7969 L762.4832,658.7969 " fill="#FEFFDD" style="stroke:#181818;stroke-width:1;"/><text fill="#000000" font-family="Microsoft YaHei" font-size="13" font-weight="bold" lengthAdjust="spacing" textLength="52" x="644.66" y="675.8638">&#36718;&#27425;&#35760;&#24518;</text><text fill="#000000" font-family="Microsoft YaHei" font-size="13" lengthAdjust="spacing" textLength="112.8232" x="644.66" y="690.9966">- &#27599;&#36718;&#23436;&#25972;&#36755;&#20837;&#36755;&#20986;</text><text fill="#000000" font-family="Microsoft YaHei" font-size="13" lengthAdjust="spacing" textLength="110.1001" x="644.66" y="706.1294">- Claude &#35843;&#29992;&#35760;&#24405;</text><text fill="#000000" font-family="Microsoft YaHei" font-size="13" lengthAdjust="spacing" textLength="60.8232" x="644.66" y="721.2622">- &#25191;&#34892;&#32467;&#26524;</text></g><g id="elem_GMN34"><path d="M807.66,651.2969 L807.66,736.9609 L889.4832,736.9609 L889.4832,661.2969 L879.4832,651.2969 L807.66,651.2969 " fill="#FEFFDD" style="stroke:#181818;stroke-width:0.5;"/><path d="M879.4832,651.2969 L879.4832,661.2969 L889.4832,661.2969 L879.4832,651.2969 " fill="#FEFFDD" style="stroke:#181818;stroke-width:1;"/><text fill="#000000" font-family="Microsoft YaHei" font-size="13" font-weight="bold" lengthAdjust="spacing" textLength="52" x="813.66" y="668.3638">&#30693;&#35782;&#27785;&#28096;</text><text fill="#000000" font-family="Microsoft YaHei" font-size="13" lengthAdjust="spacing" textLength="60.8232" x="813.66" y="683.4966">- &#21382;&#21490;&#21457;&#29616;</text><text fill="#000000" font-family="Microsoft YaHei" font-size="13" lengthAdjust="spacing" textLength="60.8232" x="813.66" y="698.6294">- &#26368;&#20339;&#23454;&#36341;</text><text fill="#000000" font-family="Microsoft YaHei" font-size="13" lengthAdjust="spacing" textLength="60.8232" x="813.66" y="713.7622">- &#36991;&#22353;&#25351;&#21335;</text><text fill="#000000" font-family="Microsoft YaHei" font-size="13" lengthAdjust="spacing" textLength="60.8232" x="813.66" y="728.895">- &#32463;&#39564;&#24635;&#32467;</text></g><!--link scheduler to index--><g id="link_scheduler_index"><path d="M180.81,112.8769 C200.96,130.7069 226.74,153.5069 249.66,173.7969 C265.48,187.7969 278.3301,199.1769 293.6501,212.7569 " fill="none" id="scheduler-to-index" style="stroke:#181818;stroke-width:1;"/><polygon fill="#181818" points="298.14,216.7369,294.0584,207.7736,294.3984,213.4202,288.7517,213.7602,298.14,216.7369" style="stroke:#181818;stroke-width:1;"/><text fill="#000000" font-family="Microsoft YaHei" font-size="13" lengthAdjust="spacing" textLength="68.5356" x="238.66" y="161.8638">1. &#35835;&#21462;&#32034;&#24341;</text></g><!--link index to session--><g id="link_index_session"><path d="M277.05,287.2569 C258.73,297.7369 239.7,310.7169 224.66,325.7969 C199.76,350.7669 182.5361,379.8672 169.0961,407.6072 " fill="none" id="index-to-session" style="stroke:#181818;stroke-width:1;"/><polygon fill="#181818" points="166.48,413.0069,174.0039,406.6515,168.6601,408.5072,166.8044,403.1634,166.48,413.0069" style="stroke:#181818;stroke-width:1;"/><text fill="#000000" font-family="Microsoft YaHei" font-size="13" lengthAdjust="spacing" textLength="94.5356" x="225.66" y="338.8638">2. &#21152;&#36733;&#20250;&#35805;&#35760;&#24518;</text></g><!--link index to project--><g id="link_index_project"><path d="M335.76,295.8669 C330.26,331.7769 323.0083,379.116 317.4983,415.096 " fill="none" id="index-to-project" style="stroke:#181818;stroke-width:1;"/><polygon fill="#181818" points="316.59,421.0269,321.9063,412.7361,317.3469,416.0845,313.9985,411.5251,316.59,421.0269" style="stroke:#181818;stroke-width:1;"/><text fill="#000000" font-family="Microsoft YaHei" font-size="13" lengthAdjust="spacing" textLength="94.5356" x="331.66" y="338.8638">3. &#21152;&#36733;&#39033;&#30446;&#35760;&#24518;</text></g><!--link index to global--><g id="link_index_global"><path d="M402.6,296.0169 C414.07,304.9469 425.36,315.0169 434.66,325.7969 C457.01,351.7169 472.515,380.3921 484.775,407.7321 " fill="none" id="index-to-global" style="stroke:#181818;stroke-width:1;"/><polygon fill="#181818" points="487.23,413.2069,487.1973,403.3581,485.1841,408.6446,479.8976,406.6314,487.23,413.2069" style="stroke:#181818;stroke-width:1;"/><text fill="#000000" font-family="Microsoft YaHei" font-size="13" lengthAdjust="spacing" textLength="94.5356" x="447.66" y="338.8638">4. &#21152;&#36733;&#20840;&#23616;&#35760;&#24518;</text></g><!--link scheduler to session--><g id="link_scheduler_session"><path d="M110.36,108.2769 C91.43,124.7669 69.93,147.7669 59.66,173.7969 C54.68,186.4069 52.39,284.3569 59.66,295.7969 C76.51,322.3069 104.62,300.8069 123.66,325.7969 C142.47,350.4869 147.8257,379.1704 148.7757,407.0604 " fill="none" id="scheduler-to-session" style="stroke:#181818;stroke-width:1;"/><polygon fill="#181818" points="148.98,413.0569,152.6713,403.9259,148.8098,408.0598,144.6759,404.1983,148.98,413.0569" style="stroke:#181818;stroke-width:1;"/><text fill="#000000" font-family="Microsoft YaHei" font-size="13" lengthAdjust="spacing" textLength="94.5356" x="60.66" y="260.8638">5. &#26356;&#26032;&#24403;&#21069;&#29366;&#24577;</text></g><!--link scheduler to rounds--><g id="link_scheduler_rounds"><path d="M110.36,100.4269 C91.58,112.0169 69.56,128.5669 55.66,148.7969 C6,221.0769 10.45,255.5869 19.66,342.7969 C29.49,435.8969 17.12,467.5569 63.66,548.7969 C86.66,588.9569 119.9244,620.5426 152.8944,646.1926 " fill="none" id="scheduler-to-rounds" style="stroke:#181818;stroke-width:1;"/><polygon fill="#181818" points="157.63,649.8769,152.9827,641.1934,153.6836,646.8067,148.0704,647.5076,157.63,649.8769" style="stroke:#181818;stroke-width:1;"/><text fill="#000000" font-family="Microsoft YaHei" font-size="13" lengthAdjust="spacing" textLength="94.5356" x="20.66" y="338.8638">6. &#20445;&#23384;&#36718;&#27425;&#35760;&#24405;</text></g><!--link session to knowledge--><g id="link_session_knowledge"><path d="M190.02,508.6569 C203.03,522.0269 217.59,536.3369 231.66,548.7969 C261.81,575.4869 272.09,578.7969 303.66,603.7969 C324.39,620.2169 342.4049,634.8847 361.6449,650.7847 " fill="none" id="session-to-knowledge" style="stroke:#181818;stroke-width:1;"/><polygon fill="#181818" points="366.27,654.6069,361.8805,645.7903,362.4158,651.4217,356.7843,651.957,366.27,654.6069" style="stroke:#181818;stroke-width:1;"/><text fill="#000000" font-family="Microsoft YaHei" font-size="13" lengthAdjust="spacing" textLength="94.5356" x="293.66" y="591.8638">7. &#25552;&#21462;&#23398;&#20064;&#24635;&#32467;</text></g><!--link store to index--><g id="link_store_index"><path d="M341.66,119.0169 C341.66,147.7969 341.66,181.5069 341.66,210.6369 " fill="none" id="store-to-index" style="stroke:#181818;stroke-width:1;"/><polygon fill="#181818" points="341.66,216.6369,345.66,207.6369,341.66,211.6369,337.66,207.6369,341.66,216.6369" style="stroke:#181818;stroke-width:1;"/><text fill="#000000" font-family="Microsoft YaHei" font-size="13" lengthAdjust="spacing" textLength="68.5356" x="342.66" y="161.8638">8. &#26356;&#26032;&#32034;&#24341;</text></g><!--link session to GMN22--><g id="link_session_GMN22"><path d="M170.51,413.2869 C187.94,384.2669 214.55,349.6469 249.16,333.0469 C315.68,301.1369 512.21,306.7969 581.16,333.0469 C604.38,341.8869 626.24,356.3969 645.57,372.5369 " fill="none" id="session-GMN22" style="stroke:#181818;stroke-width:1;stroke-dasharray:7.0,7.0;"/></g><!--link project to GMN25--><g id="link_project_GMN25"><path d="M334.72,421.0169 C355.65,390.5669 389.07,350.8769 430.16,333.0469 C507.83,299.3469 734.32,297.4969 811.16,333.0469 C848.66,350.3969 877.94,387.8069 896.58,417.6769 " fill="none" id="project-GMN25" style="stroke:#181818;stroke-width:1;stroke-dasharray:7.0,7.0;"/></g><!--link GMN28 to global--><g id="link_GMN28_global"><path d="M1100.53,425.1969 C1077.19,394.2369 1038.73,351.5369 993.16,333.0469 C920.26,303.4669 712.16,303.7469 639.16,333.0469 C598.82,349.2369 563.78,384.0769 539.74,413.2869 " fill="none" id="GMN28-global" style="stroke:#181818;stroke-width:1;stroke-dasharray:7.0,7.0;"/></g><!--link GMN31 to rounds--><g id="link_GMN31_rounds"><path d="M660.56,658.5469 C621.48,629.9869 562.08,592.2169 503.16,576.2969 C425.07,555.2069 394.51,542.1969 321.16,576.2969 C289.81,590.8669 264.79,620.7169 247.68,646.7469 " fill="none" id="GMN31-rounds" style="stroke:#181818;stroke-width:1;stroke-dasharray:7.0,7.0;"/></g><!--link GMN34 to knowledge--><g id="link_GMN34_knowledge"><path d="M833.57,651.2869 C821.67,624.4869 802.17,592.1769 773.16,576.2969 C720.92,547.7069 697.01,562.1369 639.16,576.2969 C577.36,591.4269 513.67,626.6769 469.63,654.7269 " fill="none" id="GMN34-knowledge" style="stroke:#181818;stroke-width:1;stroke-dasharray:7.0,7.0;"/></g><rect fill="none" height="111.7813" id="_legend" rx="7.5" ry="7.5" style="stroke:#000000;stroke-width:1;" width="185.1504" x="1016.7884" y="799.7969"/><text fill="#000000" font-family="Microsoft YaHei" font-size="14" font-weight="bold" lengthAdjust="spacing" textLength="28" x="1026.6624" y="819.792">&#39068;&#33394;</text><text fill="#000000" font-family="Microsoft YaHei" font-size="14" font-weight="bold" lengthAdjust="spacing" textLength="56" x="1064.4105" y="819.792">&#35760;&#24518;&#31867;&#22411;</text><text fill="#000000" font-family="Microsoft YaHei" font-size="14" font-weight="bold" lengthAdjust="spacing" textLength="42" x="1130.1585" y="819.792">&#20248;&#20808;&#32423;</text><rect fill="#ADD8E6" height="16.2969" style="stroke:none;stroke-width:1;" width="37.748" x="1021.7884" y="823.0938"/><text fill="#000000" font-family="Microsoft YaHei" font-size="14" lengthAdjust="spacing" textLength="4.4502" x="1021.7884" y="836.0889">&#160;</text><text fill="#000000" font-family="Microsoft YaHei" font-size="14" lengthAdjust="spacing" textLength="56" x="1063.9867" y="836.0889">&#20250;&#35805;&#35760;&#24518;</text><text fill="#000000" font-family="Microsoft YaHei" font-size="14" lengthAdjust="spacing" textLength="62.7539" x="1129.7347" y="836.0889">&#9733;&#9733;&#9733;&#9733;&#9733;</text><rect fill="#90EE90" height="16.2969" style="stroke:none;stroke-width:1;" width="37.748" x="1021.7884" y="839.3906"/><text fill="#000000" font-family="Microsoft YaHei" font-size="14" lengthAdjust="spacing" textLength="4.4502" x="1021.7884" y="852.3857">&#160;</text><text fill="#000000" font-family="Microsoft YaHei" font-size="14" lengthAdjust="spacing" textLength="56" x="1063.9867" y="852.3857">&#39033;&#30446;&#35760;&#24518;</text><text fill="#000000" font-family="Microsoft YaHei" font-size="14" lengthAdjust="spacing" textLength="62.7539" x="1129.7347" y="852.3857">&#9733;&#9733;&#9733;&#9733;&#9734;</text><rect fill="#FFFFE0" height="16.2969" style="stroke:none;stroke-width:1;" width="37.748" x="1021.7884" y="855.6875"/><text fill="#000000" font-family="Microsoft YaHei" font-size="14" lengthAdjust="spacing" textLength="4.4502" x="1021.7884" y="868.6826">&#160;</text><text fill="#000000" font-family="Microsoft YaHei" font-size="14" lengthAdjust="spacing" textLength="56" x="1063.9867" y="868.6826">&#20840;&#23616;&#35760;&#24518;</text><text fill="#000000" font-family="Microsoft YaHei" font-size="14" lengthAdjust="spacing" textLength="62.7539" x="1129.7347" y="868.6826">&#9733;&#9733;&#9733;&#9734;&#9734;</text><rect fill="#FFC0CB" height="16.2969" style="stroke:none;stroke-width:1;" width="37.748" x="1021.7884" y="871.9844"/><text fill="#000000" font-family="Microsoft YaHei" font-size="14" lengthAdjust="spacing" textLength="4.4502" x="1021.7884" y="884.9795">&#160;</text><text fill="#000000" font-family="Microsoft YaHei" font-size="14" lengthAdjust="spacing" textLength="56" x="1063.9867" y="884.9795">&#36718;&#27425;&#35760;&#24518;</text><text fill="#000000" font-family="Microsoft YaHei" font-size="14" lengthAdjust="spacing" textLength="62.7539" x="1129.7347" y="884.9795">&#9733;&#9733;&#9734;&#9734;&#9734;</text><rect fill="#E0FFFF" height="16.2969" style="stroke:none;stroke-width:1;" width="37.748" x="1021.7884" y="888.2813"/><text fill="#000000" font-family="Microsoft YaHei" font-size="14" lengthAdjust="spacing" textLength="4.4502" x="1021.7884" y="901.2764">&#160;</text><text fill="#000000" font-family="Microsoft YaHei" font-size="14" lengthAdjust="spacing" textLength="56" x="1063.9867" y="901.2764">&#30693;&#35782;&#27785;&#28096;</text><text fill="#000000" font-family="Microsoft YaHei" font-size="14" lengthAdjust="spacing" textLength="62.7539" x="1129.7347" y="901.2764">&#9733;&#9734;&#9734;&#9734;&#9734;</text><line style="stroke:#000000;stroke-width:1;" x1="1021.7884" x2="1196.9388" y1="806.7969" y2="806.7969"/><line style="stroke:#000000;stroke-width:1;" x1="1021.7884" x2="1196.9388" y1="823.0938" y2="823.0938"/><line style="stroke:#000000;stroke-width:1;" x1="1021.7884" x2="1196.9388" y1="839.3906" y2="839.3906"/><line style="stroke:#000000;stroke-width:1;" x1="1021.7884" x2="1196.9388" y1="855.6875" y2="855.6875"/><line style="stroke:#000000;stroke-width:1;" x1="1021.7884" x2="1196.9388" y1="871.9844" y2="871.9844"/><line style="stroke:#000000;stroke-width:1;" x1="1021.7884" x2="1196.9388" y1="888.2813" y2="888.2813"/><line style="stroke:#000000;stroke-width:1;" x1="1021.7884" x2="1196.9388" y1="904.5781" y2="904.5781"/><line style="stroke:#000000;stroke-width:1;" x1="1021.7884" x2="1021.7884" y1="806.7969" y2="904.5781"/><line style="stroke:#000000;stroke-width:1;" x1="1059.5365" x2="1059.5365" y1="806.7969" y2="904.5781"/><line style="stroke:#000000;stroke-width:1;" x1="1125.2845" x2="1125.2845" y1="806.7969" y2="904.5781"/><line style="stroke:#000000;stroke-width:1;" x1="1196.9388" x2="1196.9388" y1="806.7969" y2="904.5781"/><!--SRC=[TLRzJzj66FxTVyM9JHeWaQtxLiIGMjPjqaOt5MaI6XCooH5IZ8qI8reLfAIGPA50QFdAoaSJMWgYm-6hJKa8-L-Gx-py5plVdPrBI564RD_plE_ZvttVyqN7mkg47977mR0S60j5j4arsAifMWHCZOPrA4MzzI0SaISL_ITDrU_9un3qXGCHBQgDw610_WM69KaFwme4jd6CgabqyWJ_bpTBhytISxHv9KcV0MIyC2_IjSIYdJuLmWQqyGbDXQeE7ak0_DrfbD7T7ONHQ5XJUth0R-7Gg7v7cOIjWHCHxG4Cw2xmvmY4QcjaID66PSK53a15qQPQ8-brb23_2AjZhI5ZgZQbm608kl5w7ycgD2D94mGfXo1e4osnpifM-MKRULaQxQ- -kts_tn_mZGS7LGQppdVHvThVG8w2i1g43u7W0EDuSMjli-Pb5YN-iKhxZDp6JQIXEOt6DYzVs8Lj1XfKsszzONuuZ1Apo7e7pSN13TcyI05IS_XGfv5g-Gjhqx3sutWhpU9HFZSV26MW_9acpIXnOfRUjb8xAaTWS8Yd-dnG5PEYn04wYObScfJL4TGBsZhbKX9bJbkaPCKbgUZ5KAVlGLHJIHqg1YcKa8RXGBqRwY6yuWyDor58jLelz-n24f-cSJ56wHu6D3GBrphZp4P_O1G69nKO0LPvpYo_b-I0JaQmpNlUHclathdBVN1SYppg9zUG0Pmh9nuRFFmkRXqybJmQwEhguKtb1xTym2wKKMQTDPp4dZi8jnNyu4iVGFCvkr8HsqT0kaNtWwzS96kF6qXUAJ_usWMoad9WayQwWczy06-Uu_LZL5b1wKLh_ZsEnPlGl3n-yAqFcDLjT9IjLx2oHcBpQ0wsNWi_-8x4pYmJ1z3H6_CYXsDaCbSawc63Kz-x6hXJaghf44ISKGVQY2kMbBEpK_G9jDS7iAEpawnt0PpUj_CBE9UgxMRf0_6rm7Lo-Ner1d0Xuxm0JKb1PhcCvlFs_XpENJ9MugosQk3r56aLbsMd3j7y0IuIQ8w1YdjcPOltWFEWjlglNIYO7vRCge6FNl7GhwnS79LMI32SPyz4EvgYKxi42GI1TxR4T1jxgBhH-2PsjU9eWceGECur-yURYFftStFXnlN_-2kmYmLqDKS-85R5O2apJ-pOB5FE5jbxiY3f2-UBKytZU84BF2MZMTimYFVe-G9PnyOyUZrdBIURjIbmX4fZNKkLtTo1k39hgO1sPr4cMqjbGFkdZ_-yVN_etks-kpCTTDak7Z0zZ2gejy_Ve4oH2_o80DRQL82uAxdTHEr5nW9UExUlLb1Yp_cVAj75NaMU39BFyV6ijNh0Hw7UWhnm7qdhJGdDB6veF3FRKb7ccRN4MXHlnSpA6J9sxE8xLeHu5Mq_mmifjBZ1V2fdQeSBVCZgUHKOScveDz0TSVe7KDlT8cS4vuf_4a_AQEUfS-zzxi0q0tT_uXqAUgP1m_XDW-jiGlmrSUZvW9347Ui6ATb4OcS5mXAthqPMie7bd1i8NAoU04ysmxq31E68lhkSfCWXnZ7xfFy1]--></g></svg>