<svg xmlns="http://www.w3.org/2000/svg" xmlns:xlink="http://www.w3.org/1999/xlink" contentStyleType="text/css" height="1255px" preserveAspectRatio="none" style="width:1426px;height:1255px;background:#FFFFFF;" version="1.1" viewBox="0 0 1426 1255" width="1426px" zoomAndPan="magnify"><title>&#24555;&#36895;&#24320;&#22987;&#27969;&#31243;&#22270;</title><defs/><g><text fill="#000000" font-family="Microsoft YaHei" font-size="14" font-weight="bold" lengthAdjust="spacing" textLength="98" x="662.668" y="32.9951">&#24555;&#36895;&#24320;&#22987;&#27969;&#31243;&#22270;</text><ellipse cx="708.168" cy="57.2969" fill="#222222" rx="10" ry="10" style="stroke:#222222;stroke-width:1;"/><rect fill="#E0FFFF" height="216.7656" style="stroke:#000000;stroke-width:1.5;" width="451.5361" x="626.3809" y="77.2969"/><path d="M773.4688,77.2969 L773.4688,86.5938 L763.4688,96.5938 L626.3809,96.5938 " fill="none" style="stroke:#000000;stroke-width:1.5;"/><text fill="#000000" font-family="Microsoft YaHei" font-size="14" font-weight="bold" lengthAdjust="spacing" textLength="137.0879" x="629.3809" y="91.292">&#27493;&#39588; 1: &#21019;&#24314;&#20219;&#21153;&#37197;&#32622;</text><path d="M799.9551,118.0117 L799.9551,126.5781 L779.9551,130.5781 L799.9551,134.5781 L799.9551,143.1445 A0,0 0 0 0 799.9551,143.1445 L1067.917,143.1445 A0,0 0 0 0 1067.917,143.1445 L1067.917,128.0117 L1057.917,118.0117 L799.9551,118.0117 A0,0 0 0 0 799.9551,118.0117 " fill="#FEFFDD" style="stroke:#181818;stroke-width:0.5;"/><path d="M1057.917,118.0117 L1057.917,128.0117 L1067.917,128.0117 L1057.917,118.0117 " fill="#FEFFDD" style="stroke:#181818;stroke-width:0.5;"/><text fill="#000000" font-family="Microsoft YaHei" font-size="13" lengthAdjust="spacing" textLength="246.9619" x="805.9551" y="135.0786">python cli.py create-task -p "&#20219;&#21153;&#21517;&#31216;"</text><rect fill="#F1F1F1" height="33.9688" rx="12.5" ry="12.5" style="stroke:#181818;stroke-width:0.5;" width="143.5742" x="636.3809" y="113.5938"/><text fill="#000000" font-family="Microsoft YaHei" font-size="12" lengthAdjust="spacing" textLength="123.5742" x="646.3809" y="134.7324">&#36816;&#34892; create-task &#21629;&#20196;</text><path d="M792.168,157.5625 L792.168,188.8281 L772.168,192.8281 L792.168,196.8281 L792.168,228.0938 A0,0 0 0 0 792.168,228.0938 L873.9912,228.0938 A0,0 0 0 0 873.9912,228.0938 L873.9912,167.5625 L863.9912,157.5625 L792.168,157.5625 A0,0 0 0 0 792.168,157.5625 " fill="#FEFFDD" style="stroke:#181818;stroke-width:0.5;"/><path d="M863.9912,157.5625 L863.9912,167.5625 L873.9912,167.5625 L863.9912,157.5625 " fill="#FEFFDD" style="stroke:#181818;stroke-width:0.5;"/><text fill="#000000" font-family="Microsoft YaHei" font-size="13" lengthAdjust="spacing" textLength="60.8232" x="798.168" y="174.6294">- &#20195;&#30721;&#36335;&#24452;</text><text fill="#000000" font-family="Microsoft YaHei" font-size="13" lengthAdjust="spacing" textLength="60.8232" x="798.168" y="189.7622">- &#25991;&#26723;&#36335;&#24452;</text><text fill="#000000" font-family="Microsoft YaHei" font-size="13" lengthAdjust="spacing" textLength="60.8232" x="798.168" y="204.895">- &#39033;&#30446;&#25551;&#36848;</text><text fill="#000000" font-family="Microsoft YaHei" font-size="13" lengthAdjust="spacing" textLength="60.8232" x="798.168" y="220.0278">- &#26368;&#22823;&#36718;&#27425;</text><rect fill="#F1F1F1" height="33.9688" rx="12.5" ry="12.5" style="stroke:#181818;stroke-width:0.5;" width="128" x="644.168" y="175.8438"/><text fill="#000000" font-family="Microsoft YaHei" font-size="12" lengthAdjust="spacing" textLength="108" x="654.168" y="196.9824">&#20132;&#20114;&#24335;&#36755;&#20837;&#37197;&#32622;&#20449;&#24687;</text><path d="M774.168,252.5117 L774.168,261.0781 L754.168,265.0781 L774.168,269.0781 L774.168,277.6445 A0,0 0 0 0 774.168,277.6445 L950.9839,277.6445 A0,0 0 0 0 950.9839,277.6445 L950.9839,262.5117 L940.9839,252.5117 L774.168,252.5117 A0,0 0 0 0 774.168,252.5117 " fill="#FEFFDD" style="stroke:#181818;stroke-width:0.5;"/><path d="M940.9839,252.5117 L940.9839,262.5117 L950.9839,262.5117 L940.9839,252.5117 " fill="#FEFFDD" style="stroke:#181818;stroke-width:0.5;"/><text fill="#000000" font-family="Microsoft YaHei" font-size="13" lengthAdjust="spacing" textLength="155.8159" x="780.168" y="269.5786">examples/my-task.yaml</text><rect fill="#F1F1F1" height="33.9688" rx="12.5" ry="12.5" style="stroke:#181818;stroke-width:0.5;" width="92" x="662.168" y="248.0938"/><text fill="#000000" font-family="Microsoft YaHei" font-size="12" lengthAdjust="spacing" textLength="72" x="672.168" y="269.2324">&#29983;&#25104;&#37197;&#32622;&#25991;&#20214;</text><rect fill="#ADD8E6" height="216.7656" style="stroke:#000000;stroke-width:1.5;" width="506.3711" x="622.0918" y="304.0625"/><path d="M755.1797,304.0625 L755.1797,313.3594 L745.1797,323.3594 L622.0918,323.3594 " fill="none" style="stroke:#000000;stroke-width:1.5;"/><text fill="#000000" font-family="Microsoft YaHei" font-size="14" font-weight="bold" lengthAdjust="spacing" textLength="123.0879" x="625.0918" y="318.0576">&#27493;&#39588; 2: &#21021;&#22987;&#21270;&#39033;&#30446;</text><path d="M775.4717,344.7773 L775.4717,353.3438 L755.4717,357.3438 L775.4717,361.3438 L775.4717,369.9102 A0,0 0 0 0 775.4717,369.9102 L1118.4629,369.9102 A0,0 0 0 0 1118.4629,369.9102 L1118.4629,354.7773 L1108.4629,344.7773 L775.4717,344.7773 A0,0 0 0 0 775.4717,344.7773 " fill="#FEFFDD" style="stroke:#181818;stroke-width:0.5;"/><path d="M1108.4629,344.7773 L1108.4629,354.7773 L1118.4629,354.7773 L1108.4629,344.7773 " fill="#FEFFDD" style="stroke:#181818;stroke-width:0.5;"/><text fill="#000000" font-family="Microsoft YaHei" font-size="13" lengthAdjust="spacing" textLength="321.9912" x="781.4717" y="361.8442">python cli.py --config examples/my-task.yaml init</text><rect fill="#F1F1F1" height="33.9688" rx="12.5" ry="12.5" style="stroke:#181818;stroke-width:0.5;" width="94.6074" x="660.8643" y="340.3594"/><text fill="#000000" font-family="Microsoft YaHei" font-size="12" lengthAdjust="spacing" textLength="74.6074" x="670.8643" y="361.498">&#36816;&#34892; init &#21629;&#20196;</text><path d="M786.168,384.3281 L786.168,415.5938 L766.168,419.5938 L786.168,423.5938 L786.168,454.8594 A0,0 0 0 0 786.168,454.8594 L979.2656,454.8594 A0,0 0 0 0 979.2656,454.8594 L979.2656,394.3281 L969.2656,384.3281 L786.168,384.3281 A0,0 0 0 0 786.168,384.3281 " fill="#FEFFDD" style="stroke:#181818;stroke-width:0.5;"/><path d="M969.2656,384.3281 L969.2656,394.3281 L979.2656,394.3281 L969.2656,384.3281 " fill="#FEFFDD" style="stroke:#181818;stroke-width:0.5;"/><text fill="#000000" font-family="Microsoft YaHei" font-size="13" lengthAdjust="spacing" textLength="119.5962" x="792.168" y="401.395">- .kuxing/memory/</text><text fill="#000000" font-family="Microsoft YaHei" font-size="13" lengthAdjust="spacing" textLength="172.0977" x="792.168" y="416.5278">- .kuxing/memory/session/</text><text fill="#000000" font-family="Microsoft YaHei" font-size="13" lengthAdjust="spacing" textLength="169.3809" x="792.168" y="431.6606">- .kuxing/memory/project/</text><text fill="#000000" font-family="Microsoft YaHei" font-size="13" lengthAdjust="spacing" textLength="163.6235" x="792.168" y="446.7935">- .kuxing/memory/global/</text><rect fill="#F1F1F1" height="33.9688" rx="12.5" ry="12.5" style="stroke:#181818;stroke-width:0.5;" width="116" x="650.168" y="402.6094"/><text fill="#000000" font-family="Microsoft YaHei" font-size="12" lengthAdjust="spacing" textLength="96" x="660.168" y="423.748">&#21019;&#24314;&#35760;&#24518;&#30446;&#24405;&#32467;&#26500;</text><rect fill="#F1F1F1" height="33.9688" rx="12.5" ry="12.5" style="stroke:#181818;stroke-width:0.5;" width="152.1523" x="632.0918" y="474.8594"/><text fill="#000000" font-family="Microsoft YaHei" font-size="12" lengthAdjust="spacing" textLength="132.1523" x="642.0918" y="495.998">&#29983;&#25104; MEMORY.md &#32034;&#24341;</text><rect fill="#90EE90" height="267.0078" style="stroke:#000000;stroke-width:1.5;" width="1404.3359" x="11" y="530.8281"/><path d="M130.0879,530.8281 L130.0879,540.125 L120.0879,550.125 L11,550.125 " fill="none" style="stroke:#000000;stroke-width:1.5;"/><text fill="#000000" font-family="Microsoft YaHei" font-size="14" font-weight="bold" lengthAdjust="spacing" textLength="109.0879" x="14" y="544.8232">&#27493;&#39588; 3: &#36816;&#34892;&#20219;&#21153;</text><rect fill="#F1F1F1" height="33.9688" rx="12.5" ry="12.5" style="stroke:#181818;stroke-width:0.5;" width="92" x="662.168" y="567.125"/><text fill="#000000" font-family="Microsoft YaHei" font-size="12" lengthAdjust="spacing" textLength="72" x="672.168" y="588.2637">&#36873;&#25321;&#25191;&#34892;&#27169;&#24335;</text><polygon fill="#F1F1F1" points="135.3474,621.0938,185.1858,621.0938,197.1858,633.0938,185.1858,645.0938,135.3474,645.0938,123.3474,633.0938,135.3474,621.0938" style="stroke:#181818;stroke-width:0.5;"/><text fill="#000000" font-family="Microsoft YaHei" font-size="11" lengthAdjust="spacing" textLength="44" x="164.2666" y="655.3042">&#20018;&#34892;&#27169;&#24335;</text><text fill="#000000" font-family="Microsoft YaHei" font-size="11" lengthAdjust="spacing" textLength="49.8384" x="135.3474" y="636.9019">&#25191;&#34892;&#27169;&#24335;?</text><path d="M319.5332,682.3164 L319.5332,690.8828 L299.5332,694.8828 L319.5332,698.8828 L319.5332,707.4492 A0,0 0 0 0 319.5332,707.4492 L470.5332,707.4492 A0,0 0 0 0 470.5332,707.4492 L470.5332,692.3164 L460.5332,682.3164 L319.5332,682.3164 A0,0 0 0 0 319.5332,682.3164 " fill="#FEFFDD" style="stroke:#181818;stroke-width:0.5;"/><path d="M460.5332,682.3164 L460.5332,692.3164 L470.5332,692.3164 L460.5332,682.3164 " fill="#FEFFDD" style="stroke:#181818;stroke-width:0.5;"/><text fill="#000000" font-family="Microsoft YaHei" font-size="13" lengthAdjust="spacing" textLength="130" x="325.5332" y="699.3833">&#39034;&#24207;&#25191;&#34892;&#65292;&#23436;&#25104;&#21518;&#20572;&#27490;</text><rect fill="#F1F1F1" height="33.9688" rx="12.5" ry="12.5" style="stroke:#181818;stroke-width:0.5;" width="278.5332" x="21" y="677.8984"/><text fill="#000000" font-family="Microsoft YaHei" font-size="12" lengthAdjust="spacing" textLength="77.5898" x="31" y="699.0371">python cli.py</text><text fill="#000000" font-family="Microsoft YaHei" font-size="12" lengthAdjust="spacing" text-decoration="line-through" textLength="102.8789" x="112.4043" y="699.0371">config &lt;file&gt; run</text><text fill="#000000" font-family="Microsoft YaHei" font-size="12" lengthAdjust="spacing" textLength="70.4355" x="219.0977" y="699.0371">mode serial</text><polygon fill="#F1F1F1" points="594.3223,621.0938,638.3223,621.0938,650.3223,633.0938,638.3223,645.0938,594.3223,645.0938,582.3223,633.0938,594.3223,621.0938" style="stroke:#181818;stroke-width:0.5;"/><text fill="#000000" font-family="Microsoft YaHei" font-size="11" lengthAdjust="spacing" textLength="44" x="594.3223" y="636.9019">&#24490;&#29615;&#27169;&#24335;</text><text fill="#000000" font-family="Microsoft YaHei" font-size="11" lengthAdjust="spacing" textLength="55" x="650.3223" y="630.4995">&#24178;&#36816;&#34892;&#27169;&#24335;</text><path d="M772.1113,669.5117 L772.1113,678.0781 L752.1113,682.0781 L772.1113,686.0781 L772.1113,694.6445 A0,0 0 0 0 772.1113,694.6445 L962.1113,694.6445 A0,0 0 0 0 962.1113,694.6445 L962.1113,679.5117 L952.1113,669.5117 L772.1113,669.5117 A0,0 0 0 0 772.1113,669.5117 " fill="#FEFFDD" style="stroke:#181818;stroke-width:0.5;"/><path d="M952.1113,669.5117 L952.1113,679.5117 L962.1113,679.5117 L952.1113,669.5117 " fill="#FEFFDD" style="stroke:#181818;stroke-width:0.5;"/><text fill="#000000" font-family="Microsoft YaHei" font-size="13" lengthAdjust="spacing" textLength="169" x="778.1113" y="686.5786">&#24490;&#29615;&#25191;&#34892;&#65292;&#30452;&#21040;&#36798;&#21040;&#26368;&#22823;&#36718;&#27425;</text><rect fill="#F1F1F1" height="33.9688" rx="12.5" ry="12.5" style="stroke:#181818;stroke-width:0.5;" width="271.5781" x="480.5332" y="665.0938"/><text fill="#000000" font-family="Microsoft YaHei" font-size="12" lengthAdjust="spacing" textLength="77.5898" x="490.5332" y="686.2324">python cli.py</text><text fill="#000000" font-family="Microsoft YaHei" font-size="12" lengthAdjust="spacing" text-decoration="line-through" textLength="102.8789" x="571.9375" y="686.2324">config &lt;file&gt; run</text><text fill="#000000" font-family="Microsoft YaHei" font-size="12" lengthAdjust="spacing" textLength="63.4805" x="678.6309" y="686.2324">mode loop</text><path d="M1254.3359,678.9141 L1254.3359,687.4805 L1234.3359,691.4805 L1254.3359,695.4805 L1254.3359,704.0469 A0,0 0 0 0 1254.3359,704.0469 L1405.3359,704.0469 A0,0 0 0 0 1405.3359,704.0469 L1405.3359,688.9141 L1395.3359,678.9141 L1254.3359,678.9141 A0,0 0 0 0 1254.3359,678.9141 " fill="#FEFFDD" style="stroke:#181818;stroke-width:0.5;"/><path d="M1395.3359,678.9141 L1395.3359,688.9141 L1405.3359,688.9141 L1395.3359,678.9141 " fill="#FEFFDD" style="stroke:#181818;stroke-width:0.5;"/><text fill="#000000" font-family="Microsoft YaHei" font-size="13" lengthAdjust="spacing" textLength="130" x="1260.3359" y="695.981">&#27169;&#25311;&#25191;&#34892;&#65292;&#19981;&#23454;&#38469;&#36816;&#34892;</text><rect fill="#F1F1F1" height="33.9688" rx="12.5" ry="12.5" style="stroke:#181818;stroke-width:0.5;" width="252.2246" x="982.1113" y="674.4961"/><text fill="#000000" font-family="Microsoft YaHei" font-size="12" lengthAdjust="spacing" textLength="77.5898" x="992.1113" y="695.6348">python cli.py</text><text fill="#000000" font-family="Microsoft YaHei" font-size="12" lengthAdjust="spacing" text-decoration="line-through" textLength="102.8789" x="1073.5156" y="695.6348">config &lt;file&gt; run</text><text fill="#000000" font-family="Microsoft YaHei" font-size="12" lengthAdjust="spacing" textLength="44.127" x="1180.209" y="695.6348">dry-run</text><rect fill="#F1F1F1" height="33.9688" rx="12.5" ry="12.5" style="stroke:#181818;stroke-width:0.5;" width="91.4434" x="662.4463" y="751.8672"/><text fill="#000000" font-family="Microsoft YaHei" font-size="12" lengthAdjust="spacing" textLength="71.4434" x="672.4463" y="773.0059">&#20219;&#21153;&#25191;&#34892;&#20013;...</text><rect fill="#FFFFE0" height="136.2344" style="stroke:#000000;stroke-width:1.5;" width="384.9116" x="652.168" y="807.8359"/><path d="M771.2559,807.8359 L771.2559,817.1328 L761.2559,827.1328 L652.168,827.1328 " fill="none" style="stroke:#000000;stroke-width:1.5;"/><text fill="#000000" font-family="Microsoft YaHei" font-size="14" font-weight="bold" lengthAdjust="spacing" textLength="109.0879" x="655.168" y="821.8311">&#27493;&#39588; 4: &#26597;&#30475;&#29366;&#24577;</text><path d="M774.168,848.5508 L774.168,857.1172 L754.168,861.1172 L774.168,865.1172 L774.168,873.6836 A0,0 0 0 0 774.168,873.6836 L1022.3125,873.6836 A0,0 0 0 0 1022.3125,873.6836 L1022.3125,858.5508 L1012.3125,848.5508 L774.168,848.5508 A0,0 0 0 0 774.168,848.5508 " fill="#FEFFDD" style="stroke:#181818;stroke-width:0.5;"/><path d="M1012.3125,848.5508 L1012.3125,858.5508 L1022.3125,858.5508 L1012.3125,848.5508 " fill="#FEFFDD" style="stroke:#181818;stroke-width:0.5;"/><text fill="#000000" font-family="Microsoft YaHei" font-size="13" lengthAdjust="spacing" textLength="227.1445" x="780.168" y="865.6177">python cli.py --config &lt;file&gt; status</text><rect fill="#F1F1F1" height="33.9688" rx="12.5" ry="12.5" style="stroke:#181818;stroke-width:0.5;" width="92" x="662.168" y="844.1328"/><text fill="#000000" font-family="Microsoft YaHei" font-size="12" lengthAdjust="spacing" textLength="72" x="672.168" y="865.2715">&#26597;&#30475;&#24403;&#21069;&#29366;&#24577;</text><path d="M774.168,902.5195 L774.168,911.0859 L754.168,915.0859 L774.168,919.0859 L774.168,927.6523 A0,0 0 0 0 774.168,927.6523 L1027.0796,927.6523 A0,0 0 0 0 1027.0796,927.6523 L1027.0796,912.5195 L1017.0796,902.5195 L774.168,902.5195 A0,0 0 0 0 774.168,902.5195 " fill="#FEFFDD" style="stroke:#181818;stroke-width:0.5;"/><path d="M1017.0796,902.5195 L1017.0796,912.5195 L1027.0796,912.5195 L1017.0796,902.5195 " fill="#FEFFDD" style="stroke:#181818;stroke-width:0.5;"/><text fill="#000000" font-family="Microsoft YaHei" font-size="13" lengthAdjust="spacing" textLength="231.9116" x="780.168" y="919.5864">python cli.py --config &lt;file&gt; history</text><rect fill="#F1F1F1" height="33.9688" rx="12.5" ry="12.5" style="stroke:#181818;stroke-width:0.5;" width="92" x="662.168" y="898.1016"/><text fill="#000000" font-family="Microsoft YaHei" font-size="12" lengthAdjust="spacing" textLength="72" x="672.168" y="919.2402">&#26597;&#30475;&#25191;&#34892;&#21382;&#21490;</text><rect fill="#FFC0CB" height="111.8281" style="stroke:#000000;stroke-width:1.5;" width="378.2529" x="652.168" y="954.0703"/><path d="M757.2559,954.0703 L757.2559,963.3672 L747.2559,973.3672 L652.168,973.3672 " fill="none" style="stroke:#000000;stroke-width:1.5;"/><text fill="#000000" font-family="Microsoft YaHei" font-size="14" font-weight="bold" lengthAdjust="spacing" textLength="95.0879" x="655.168" y="968.0654">&#27493;&#39588; 5: &#19979;&#19968;&#27493;</text><path d="M774.168,983.3672 L774.168,1014.6328 L754.168,1018.6328 L774.168,1022.6328 L774.168,1053.8984 A0,0 0 0 0 774.168,1053.8984 L1020.4209,1053.8984 A0,0 0 0 0 1020.4209,1053.8984 L1020.4209,993.3672 L1010.4209,983.3672 L774.168,983.3672 A0,0 0 0 0 774.168,983.3672 " fill="#FEFFDD" style="stroke:#181818;stroke-width:0.5;"/><path d="M1010.4209,983.3672 L1010.4209,993.3672 L1020.4209,993.3672 L1010.4209,983.3672 " fill="#FEFFDD" style="stroke:#181818;stroke-width:0.5;"/><text fill="#000000" font-family="Microsoft YaHei" font-size="13" lengthAdjust="spacing" textLength="213.9287" x="780.168" y="1000.4341">- &#37197;&#32622;&#25351;&#21335;&#65288;05-config-guide.md&#65289;</text><text fill="#000000" font-family="Microsoft YaHei" font-size="13" lengthAdjust="spacing" textLength="204.7627" x="780.168" y="1015.5669">- &#21629;&#20196;&#21442;&#32771;&#65288;04-commands.md&#65289;</text><text fill="#000000" font-family="Microsoft YaHei" font-size="13" lengthAdjust="spacing" textLength="196.0601" x="780.168" y="1030.6997">- &#20351;&#29992;&#26696;&#20363;&#65288;09-examples.md&#65289;</text><text fill="#000000" font-family="Microsoft YaHei" font-size="13" lengthAdjust="spacing" textLength="225.2529" x="780.168" y="1045.8325">- &#26368;&#20339;&#23454;&#36341;&#65288;10-best-practices.md&#65289;</text><rect fill="#F1F1F1" height="33.9688" rx="12.5" ry="12.5" style="stroke:#181818;stroke-width:0.5;" width="92" x="662.168" y="1001.6484"/><text fill="#000000" font-family="Microsoft YaHei" font-size="12" lengthAdjust="spacing" textLength="72" x="672.168" y="1022.7871">&#23398;&#20064;&#26356;&#22810;&#21151;&#33021;</text><ellipse cx="708.168" cy="1096.8984" fill="none" rx="11" ry="11" style="stroke:#222222;stroke-width:1;"/><ellipse cx="708.168" cy="1096.8984" fill="#222222" rx="6" ry="6" style="stroke:#222222;stroke-width:1;"/><line style="stroke:#181818;stroke-width:1;" x1="708.168" x2="708.168" y1="147.5625" y2="175.8438"/><polygon fill="#181818" points="704.168,165.8438,708.168,175.8438,712.168,165.8438,708.168,169.8438" style="stroke:#181818;stroke-width:1;"/><line style="stroke:#181818;stroke-width:1;" x1="708.168" x2="708.168" y1="209.8125" y2="248.0938"/><polygon fill="#181818" points="704.168,238.0938,708.168,248.0938,712.168,238.0938,708.168,242.0938" style="stroke:#181818;stroke-width:1;"/><line style="stroke:#181818;stroke-width:1;" x1="708.168" x2="708.168" y1="67.2969" y2="113.5938"/><polygon fill="#181818" points="704.168,103.5938,708.168,113.5938,712.168,103.5938,708.168,107.5938" style="stroke:#181818;stroke-width:1;"/><line style="stroke:#181818;stroke-width:1;" x1="708.168" x2="708.168" y1="374.3281" y2="402.6094"/><polygon fill="#181818" points="704.168,392.6094,708.168,402.6094,712.168,392.6094,708.168,396.6094" style="stroke:#181818;stroke-width:1;"/><line style="stroke:#181818;stroke-width:1;" x1="708.168" x2="708.168" y1="436.5781" y2="474.8594"/><polygon fill="#181818" points="704.168,464.8594,708.168,474.8594,712.168,464.8594,708.168,468.8594" style="stroke:#181818;stroke-width:1;"/><line style="stroke:#181818;stroke-width:1;" x1="708.168" x2="708.168" y1="282.0625" y2="340.3594"/><polygon fill="#181818" points="704.168,330.3594,708.168,340.3594,712.168,330.3594,708.168,334.3594" style="stroke:#181818;stroke-width:1;"/><line style="stroke:#181818;stroke-width:1;" x1="160.2666" x2="160.2666" y1="645.0938" y2="677.8984"/><polygon fill="#181818" points="156.2666,667.8984,160.2666,677.8984,164.2666,667.8984,160.2666,671.8984" style="stroke:#181818;stroke-width:1;"/><line style="stroke:#181818;stroke-width:1;" x1="160.2666" x2="160.2666" y1="711.8672" y2="731.8672"/><polygon fill="#181818" points="156.2666,721.8672,160.2666,731.8672,164.2666,721.8672,160.2666,725.8672" style="stroke:#181818;stroke-width:1;"/><line style="stroke:#181818;stroke-width:1;" x1="616.3223" x2="616.3223" y1="645.0938" y2="665.0938"/><polygon fill="#181818" points="612.3223,655.0938,616.3223,665.0938,620.3223,655.0938,616.3223,659.0938" style="stroke:#181818;stroke-width:1;"/><line style="stroke:#181818;stroke-width:1;" x1="616.3223" x2="616.3223" y1="699.0625" y2="731.8672"/><polygon fill="#181818" points="612.3223,721.8672,616.3223,731.8672,620.3223,721.8672,616.3223,725.8672" style="stroke:#181818;stroke-width:1;"/><line style="stroke:#181818;stroke-width:1;" x1="197.1858" x2="582.3223" y1="633.0938" y2="633.0938"/><polygon fill="#181818" points="572.3223,629.0938,582.3223,633.0938,572.3223,637.0938,576.3223,633.0938" style="stroke:#181818;stroke-width:1;"/><line style="stroke:#181818;stroke-width:1;" x1="708.168" x2="708.168" y1="601.0938" y2="606.0938"/><line style="stroke:#181818;stroke-width:1;" x1="708.168" x2="160.2666" y1="606.0938" y2="606.0938"/><line style="stroke:#181818;stroke-width:1;" x1="160.2666" x2="160.2666" y1="606.0938" y2="621.0938"/><polygon fill="#181818" points="156.2666,611.0938,160.2666,621.0938,164.2666,611.0938,160.2666,615.0938" style="stroke:#181818;stroke-width:1;"/><line style="stroke:#181818;stroke-width:1;" x1="650.3223" x2="1108.2236" y1="633.0938" y2="633.0938"/><line style="stroke:#181818;stroke-width:1;" x1="1108.2236" x2="1108.2236" y1="633.0938" y2="674.4961"/><polygon fill="#181818" points="1104.2236,664.4961,1108.2236,674.4961,1112.2236,664.4961,1108.2236,668.4961" style="stroke:#181818;stroke-width:1;"/><line style="stroke:#181818;stroke-width:1;" x1="1108.2236" x2="1108.2236" y1="708.4648" y2="731.8672"/><polygon fill="#181818" points="1104.2236,721.8672,1108.2236,731.8672,1112.2236,721.8672,1108.2236,725.8672" style="stroke:#181818;stroke-width:1;"/><line style="stroke:#181818;stroke-width:1;" x1="160.2666" x2="1108.2236" y1="731.8672" y2="731.8672"/><line style="stroke:#181818;stroke-width:1;" x1="708.168" x2="708.168" y1="731.8672" y2="751.8672"/><polygon fill="#181818" points="704.168,741.8672,708.168,751.8672,712.168,741.8672,708.168,745.8672" style="stroke:#181818;stroke-width:1;"/><line style="stroke:#181818;stroke-width:1;" x1="708.168" x2="708.168" y1="508.8281" y2="567.125"/><polygon fill="#181818" points="704.168,557.125,708.168,567.125,712.168,557.125,708.168,561.125" style="stroke:#181818;stroke-width:1;"/><line style="stroke:#181818;stroke-width:1;" x1="708.168" x2="708.168" y1="878.1016" y2="898.1016"/><polygon fill="#181818" points="704.168,888.1016,708.168,898.1016,712.168,888.1016,708.168,892.1016" style="stroke:#181818;stroke-width:1;"/><line style="stroke:#181818;stroke-width:1;" x1="708.168" x2="708.168" y1="785.8359" y2="844.1328"/><polygon fill="#181818" points="704.168,834.1328,708.168,844.1328,712.168,834.1328,708.168,838.1328" style="stroke:#181818;stroke-width:1;"/><line style="stroke:#181818;stroke-width:1;" x1="708.168" x2="708.168" y1="932.0703" y2="1001.6484"/><polygon fill="#181818" points="704.168,991.6484,708.168,1001.6484,712.168,991.6484,708.168,995.6484" style="stroke:#181818;stroke-width:1;"/><line style="stroke:#181818;stroke-width:1;" x1="708.168" x2="708.168" y1="1035.6172" y2="1085.8984"/><polygon fill="#181818" points="704.168,1075.8984,708.168,1085.8984,712.168,1075.8984,708.168,1079.8984" style="stroke:#181818;stroke-width:1;"/><rect fill="none" height="111.7813" id="_legend" rx="7.5" ry="7.5" style="stroke:#000000;stroke-width:1;" width="126.6484" x="1274.6875" y="1118.8984"/><text fill="#000000" font-family="Microsoft YaHei" font-size="14" font-weight="bold" lengthAdjust="spacing" textLength="28" x="1284.5615" y="1138.8936">&#39068;&#33394;</text><text fill="#000000" font-family="Microsoft YaHei" font-size="14" font-weight="bold" lengthAdjust="spacing" textLength="28" x="1322.3096" y="1138.8936">&#38454;&#27573;</text><rect fill="#E0FFFF" height="16.2969" style="stroke:none;stroke-width:1;" width="37.748" x="1279.6875" y="1142.1953"/><text fill="#000000" font-family="Microsoft YaHei" font-size="14" lengthAdjust="spacing" textLength="4.4502" x="1279.6875" y="1155.1904">&#160;</text><text fill="#000000" font-family="Microsoft YaHei" font-size="14" lengthAdjust="spacing" textLength="56" x="1321.8857" y="1155.1904">&#21019;&#24314;&#37197;&#32622;</text><rect fill="#ADD8E6" height="16.2969" style="stroke:none;stroke-width:1;" width="37.748" x="1279.6875" y="1158.4922"/><text fill="#000000" font-family="Microsoft YaHei" font-size="14" lengthAdjust="spacing" textLength="4.4502" x="1279.6875" y="1171.4873">&#160;</text><text fill="#000000" font-family="Microsoft YaHei" font-size="14" lengthAdjust="spacing" textLength="70" x="1321.8857" y="1171.4873">&#21021;&#22987;&#21270;&#39033;&#30446;</text><rect fill="#90EE90" height="16.2969" style="stroke:none;stroke-width:1;" width="37.748" x="1279.6875" y="1174.7891"/><text fill="#000000" font-family="Microsoft YaHei" font-size="14" lengthAdjust="spacing" textLength="4.4502" x="1279.6875" y="1187.7842">&#160;</text><text fill="#000000" font-family="Microsoft YaHei" font-size="14" lengthAdjust="spacing" textLength="56" x="1321.8857" y="1187.7842">&#36816;&#34892;&#20219;&#21153;</text><rect fill="#FFFFE0" height="16.2969" style="stroke:none;stroke-width:1;" width="37.748" x="1279.6875" y="1191.0859"/><text fill="#000000" font-family="Microsoft YaHei" font-size="14" lengthAdjust="spacing" textLength="4.4502" x="1279.6875" y="1204.0811">&#160;</text><text fill="#000000" font-family="Microsoft YaHei" font-size="14" lengthAdjust="spacing" textLength="56" x="1321.8857" y="1204.0811">&#26597;&#30475;&#29366;&#24577;</text><rect fill="#FFC0CB" height="16.2969" style="stroke:none;stroke-width:1;" width="37.748" x="1279.6875" y="1207.3828"/><text fill="#000000" font-family="Microsoft YaHei" font-size="14" lengthAdjust="spacing" textLength="4.4502" x="1279.6875" y="1220.3779">&#160;</text><text fill="#000000" font-family="Microsoft YaHei" font-size="14" lengthAdjust="spacing" textLength="42" x="1321.8857" y="1220.3779">&#19979;&#19968;&#27493;</text><line style="stroke:#000000;stroke-width:1;" x1="1279.6875" x2="1396.3359" y1="1125.8984" y2="1125.8984"/><line style="stroke:#000000;stroke-width:1;" x1="1279.6875" x2="1396.3359" y1="1142.1953" y2="1142.1953"/><line style="stroke:#000000;stroke-width:1;" x1="1279.6875" x2="1396.3359" y1="1158.4922" y2="1158.4922"/><line style="stroke:#000000;stroke-width:1;" x1="1279.6875" x2="1396.3359" y1="1174.7891" y2="1174.7891"/><line style="stroke:#000000;stroke-width:1;" x1="1279.6875" x2="1396.3359" y1="1191.0859" y2="1191.0859"/><line style="stroke:#000000;stroke-width:1;" x1="1279.6875" x2="1396.3359" y1="1207.3828" y2="1207.3828"/><line style="stroke:#000000;stroke-width:1;" x1="1279.6875" x2="1396.3359" y1="1223.6797" y2="1223.6797"/><line style="stroke:#000000;stroke-width:1;" x1="1279.6875" x2="1279.6875" y1="1125.8984" y2="1223.6797"/><line style="stroke:#000000;stroke-width:1;" x1="1317.4355" x2="1317.4355" y1="1125.8984" y2="1223.6797"/><line style="stroke:#000000;stroke-width:1;" x1="1396.3359" x2="1396.3359" y1="1125.8984" y2="1223.6797"/><!--SRC=[dLPRKzj657xNhzYX3qsOaKdQvA66qfbaUdaeRQTlF0ffRM-jYqTQ5pmbCtOJ4XlRc9OaRGEDOs8AJOjXQ206t_wCLfAV-0jTQNslb4dHWySwvzjpldDT6N6a9WHTKC2I8CQZkfPKfRkQhEbWEOOmv8o1Ne8H8IdZppGLVoKe42mWKTSCBOB1el05H2F8cA1Aoph26AeW8iZ6g1KZ9aZQCbAZFGs74POX89s_kkaoQQR9VjuwpTW7URBTvhZt0QazCyzptRMYapiPCIE867sFS0hym07wt1ddFZSdwb30S7uUV8cYCNmt9QZ-EAGYt4VTaPFG7wKdrJxeSnt205jY38hnFcuHohAsx0zKuOhhz1kanhbx76TWGSSSHmEZkK2Q2gQcfwt3lUwhAhWP1YIxJHeNPgD1rYiq3NQhDZqz1TuRnDNBGDZfR3gL0c21yrWmue3yr38RrLbFhseO0jqzvBqcKZX6FOao2YLIOuVu19XYtiXcqTu_dlBmK9Ky4nnpPbvKpOkVIRFajBV8sXxZPNOgLkR8rnqFpCPB-qN6UND4sWzw8klf8wloSapKhPpRspMhL78wnttKJffKzvrMpVgxuaV5VbosifkC0RLeDivy6S0LGKd8q9XHKbwSePIWoEFsxldNu0Et1h_JlYI5fupVi01koqmKmEseTyyypukQ6a5HVtwUCR-WMLCujMFIUKW9aTOJkx5bFNyGaFnGFBb2Hsv6WOgcfsRyfGOq31fvW3QXQzz14GTeexAs9CWpmVK12vykVFtjOaYHWFrwbpIVp0Qb-yCmO9baJJZCjJTv_MHtqpah_wULswT0ww12Et6M-KCHS6rK_CbrW6Fqt3MpVZ8GNlUWdg60Sin5a0pd0HryAbCq2G83waYGPmSd9vBiFjtA1RaeCU-NpGAf5MZaP7E3P7Qimzq1R90WxuKkGPSpQR-oDuvwz3pAL-0eQrhYhGnxNleCxUtN97lijDlqzpzpvakL4Zq_OVMvKYebFSNJVsybIGrR-VA0f5alajhpxczhp6q0DrL2aVvoyXg7dJVhXw5GAB3PReM1LTwpT_Bs-fcLpWoRZQtlVhSn36bjaLoH8V_FQFSIGDSyJXf-8yBCCy9auo4fdLp1V0mPc8xYEwsqss5WrlDcFKtVlPZTgwWVB3dympn_OT7Mg3uZwsNdVYjWg_HsRk4HAVvosSpUkDrZn4UJI89qr2-RkHwKxKDI-j59ttUXjoXKKUXdWZ46CriT-_61LScQxRmB-uZlhyKn66rLi_KFRGhdpIc5tRp1Bq43ymdT_IeGny2ZcQ3vIN2S3AEkS1Z8wiUWkxj3Fo-yVx-UMRLJiCeqSyDhTdwrTnEpg2SGxZtW8SRkYGcGjy0eQdIzJK1Osr7CQ5SECMwPg79GEwgXiR28k7y1]--></g></svg>