<svg xmlns="http://www.w3.org/2000/svg" xmlns:xlink="http://www.w3.org/1999/xlink" contentStyleType="text/css" height="1231px" preserveAspectRatio="none" style="width:1888px;height:1231px;background:#FFFFFF;" version="1.1" viewBox="0 0 1888 1231" width="1888px" zoomAndPan="magnify"><title>&#31995;&#32479;&#19978;&#19979;&#25991;&#22270; (C4 &#39118;&#26684;)</title><defs/><g><text fill="#000000" font-family="Microsoft YaHei" font-size="14" font-weight="bold" lengthAdjust="spacing" textLength="154.5605" x="859.7197" y="22.9951">&#31995;&#32479;&#19978;&#19979;&#25991;&#22270; (C4 &#39118;&#26684;)</text><!--cluster ???--><g id="cluster_&#29992;&#25143;&#23618;"><path d="M317.5,43.2969 L360.5,43.2969 A3.75,3.75 0 0 1 363,45.7969 L370,65.5938 L639.5,65.5938 A2.5,2.5 0 0 1 642,68.0938 L642,162.7969 A2.5,2.5 0 0 1 639.5,165.2969 L317.5,165.2969 A2.5,2.5 0 0 1 315,162.7969 L315,45.7969 A2.5,2.5 0 0 1 317.5,43.2969 " fill="none" style="stroke:#000000;stroke-width:1.5;"/><line style="stroke:#000000;stroke-width:1.5;" x1="315" x2="370" y1="65.5938" y2="65.5938"/><text fill="#000000" font-family="Microsoft YaHei" font-size="14" font-weight="bold" lengthAdjust="spacing" textLength="42" x="319" y="58.292">&#29992;&#25143;&#23618;</text></g><!--cluster CLI ?--><g id="cluster_CLI &#23618;"><path d="M312.5,214.2969 L356.7783,214.2969 A3.75,3.75 0 0 1 359.2783,216.7969 L366.2783,236.5938 L597.5,236.5938 A2.5,2.5 0 0 1 600,239.0938 L600,333.7969 A2.5,2.5 0 0 1 597.5,336.2969 L312.5,336.2969 A2.5,2.5 0 0 1 310,333.7969 L310,216.7969 A2.5,2.5 0 0 1 312.5,214.2969 " fill="none" style="stroke:#000000;stroke-width:1.5;"/><line style="stroke:#000000;stroke-width:1.5;" x1="310" x2="366.2783" y1="236.5938" y2="236.5938"/><text fill="#000000" font-family="Microsoft YaHei" font-size="14" font-weight="bold" lengthAdjust="spacing" textLength="43.2783" x="314" y="229.292">CLI &#23618;</text></g><!--cluster ????--><g id="cluster_&#35843;&#24230;&#22120;&#23618;"><path d="M8.5,385.2969 L65.5,385.2969 A3.75,3.75 0 0 1 68,387.7969 L75,407.5938 L457.5,407.5938 A2.5,2.5 0 0 1 460,410.0938 L460,890.2969 A2.5,2.5 0 0 1 457.5,892.7969 L8.5,892.7969 A2.5,2.5 0 0 1 6,890.2969 L6,387.7969 A2.5,2.5 0 0 1 8.5,385.2969 " fill="none" style="stroke:#000000;stroke-width:1.5;"/><line style="stroke:#000000;stroke-width:1.5;" x1="6" x2="75" y1="407.5938" y2="407.5938"/><text fill="#000000" font-family="Microsoft YaHei" font-size="14" font-weight="bold" lengthAdjust="spacing" textLength="56" x="10" y="400.292">&#35843;&#24230;&#22120;&#23618;</text></g><!--cluster ?????--><g id="cluster_&#35760;&#24518;&#31995;&#32479;&#23618;"><path d="M861.5,546.2969 L932.5,546.2969 A3.75,3.75 0 0 1 935,548.7969 L942,568.5938 L1225.5,568.5938 A2.5,2.5 0 0 1 1228,571.0938 L1228,1043.7969 A2.5,2.5 0 0 1 1225.5,1046.2969 L861.5,1046.2969 A2.5,2.5 0 0 1 859,1043.7969 L859,548.7969 A2.5,2.5 0 0 1 861.5,546.2969 " fill="#FFFFE0" style="stroke:#000000;stroke-width:1.5;"/><line style="stroke:#000000;stroke-width:1.5;" x1="859" x2="942" y1="568.5938" y2="568.5938"/><text fill="#000000" font-family="Microsoft YaHei" font-size="14" font-weight="bold" lengthAdjust="spacing" textLength="70" x="863" y="561.292">&#35760;&#24518;&#31995;&#32479;&#23618;</text></g><!--cluster ????--><g id="cluster_&#25345;&#20037;&#21270;&#23618;"><path d="M1254.5,709.2969 L1311.5,709.2969 A3.75,3.75 0 0 1 1314,711.7969 L1321,731.5938 L1878.5,731.5938 A2.5,2.5 0 0 1 1881,734.0938 L1881,1079.2969 A2.5,2.5 0 0 1 1878.5,1081.7969 L1254.5,1081.7969 A2.5,2.5 0 0 1 1252,1079.2969 L1252,711.7969 A2.5,2.5 0 0 1 1254.5,709.2969 " fill="none" style="stroke:#000000;stroke-width:1.5;"/><line style="stroke:#000000;stroke-width:1.5;" x1="1252" x2="1321" y1="731.5938" y2="731.5938"/><text fill="#000000" font-family="Microsoft YaHei" font-size="14" font-weight="bold" lengthAdjust="spacing" textLength="56" x="1256" y="724.292">&#25345;&#20037;&#21270;&#23618;</text></g><!--cluster MemDir--><g id="cluster_MemDir"><path d="M1284,770.2969 C1284,760.2969 1458,760.2969 1458,760.2969 C1458,760.2969 1632,760.2969 1632,770.2969 L1632,1039.7969 C1632,1049.7969 1458,1049.7969 1458,1049.7969 C1458,1049.7969 1284,1049.7969 1284,1039.7969 L1284,770.2969 " fill="#D3D3D3" style="stroke:#181818;stroke-width:1;"/><path d="M1284,770.2969 C1284,780.2969 1458,780.2969 1458,780.2969 C1458,780.2969 1632,780.2969 1632,770.2969 " fill="none" style="stroke:#181818;stroke-width:1;"/><text fill="#000000" font-family="Microsoft YaHei" font-size="14" font-weight="bold" lengthAdjust="spacing" textLength="150.3086" x="1382.8457" y="795.292">memory/{project}/</text></g><!--cluster Shared--><g id="cluster_Shared"><path d="M1672,770.2969 C1672,760.2969 1760.5,760.2969 1760.5,760.2969 C1760.5,760.2969 1849,760.2969 1849,770.2969 L1849,886.2969 C1849,896.2969 1760.5,896.2969 1760.5,896.2969 C1760.5,896.2969 1672,896.2969 1672,886.2969 L1672,770.2969 " fill="#D3D3D3" style="stroke:#181818;stroke-width:1;"/><path d="M1672,770.2969 C1672,780.2969 1760.5,780.2969 1760.5,780.2969 C1760.5,780.2969 1849,780.2969 1849,770.2969 " fill="none" style="stroke:#181818;stroke-width:1;"/><text fill="#000000" font-family="Microsoft YaHei" font-size="14" font-weight="bold" lengthAdjust="spacing" textLength="126.0752" x="1697.4624" y="795.292">shared_context/</text></g><!--cluster ????--><g id="cluster_&#22806;&#37096;&#31995;&#32479;"><path d="M486.5,546.2969 L543.5,546.2969 A3.75,3.75 0 0 1 546,548.7969 L553,568.5938 L832.5,568.5938 A2.5,2.5 0 0 1 835,571.0938 L835,657.7969 A2.5,2.5 0 0 1 832.5,660.2969 L486.5,660.2969 A2.5,2.5 0 0 1 484,657.7969 L484,548.7969 A2.5,2.5 0 0 1 486.5,546.2969 " fill="none" style="stroke:#000000;stroke-width:1.5;"/><line style="stroke:#000000;stroke-width:1.5;" x1="484" x2="553" y1="568.5938" y2="568.5938"/><text fill="#000000" font-family="Microsoft YaHei" font-size="14" font-weight="bold" lengthAdjust="spacing" textLength="56" x="488" y="561.292">&#22806;&#37096;&#31995;&#32479;</text></g><!--entity User--><g id="elem_User"><rect fill="#E0FFFF" height="46.2969" rx="2.5" ry="2.5" style="stroke:#181818;stroke-width:0.5;" width="68" x="331" y="90.7969"/><rect fill="#E0FFFF" height="10" style="stroke:#181818;stroke-width:0.5;" width="15" x="379" y="95.7969"/><rect fill="#E0FFFF" height="2" style="stroke:#181818;stroke-width:0.5;" width="4" x="377" y="97.7969"/><rect fill="#E0FFFF" height="2" style="stroke:#181818;stroke-width:0.5;" width="4" x="377" y="101.7969"/><text fill="#000000" font-family="Microsoft YaHei" font-size="14" lengthAdjust="spacing" textLength="28" x="346" y="123.792">&#29992;&#25143;</text></g><g id="elem_GMN4"><path d="M434,78.2969 L434,109.7969 L399.16,113.7969 L434,117.7969 L434,148.8281 A0,0 0 0 0 434,148.8281 L625.6187,148.8281 A0,0 0 0 0 625.6187,148.8281 L625.6187,88.2969 L615.6187,78.2969 L434,78.2969 A0,0 0 0 0 434,78.2969 " fill="#FEFFDD" style="stroke:#181818;stroke-width:0.5;"/><path d="M615.6187,78.2969 L615.6187,88.2969 L625.6187,88.2969 L615.6187,78.2969 " fill="#FEFFDD" style="stroke:#181818;stroke-width:0.5;"/><text fill="#000000" font-family="Microsoft YaHei" font-size="13" lengthAdjust="spacing" textLength="119.4185" x="440" y="95.3638">&#36890;&#36807; CLI &#21629;&#20196;&#20132;&#20114;&#65306;</text><text fill="#000000" font-family="Microsoft YaHei" font-size="13" lengthAdjust="spacing" textLength="118.8345" x="440" y="110.4966">- python cli.py run</text><text fill="#000000" font-family="Microsoft YaHei" font-size="13" lengthAdjust="spacing" textLength="170.6187" x="440" y="125.6294">- python cli.py create-task</text><text fill="#000000" font-family="Microsoft YaHei" font-size="13" lengthAdjust="spacing" textLength="136.957" x="440" y="140.7622">- python cli.py status</text></g><!--entity CLI--><g id="elem_CLI"><rect fill="#ADD8E6" height="62.5938" rx="2.5" ry="2.5" style="stroke:#181818;stroke-width:0.5;" width="77.0986" x="326.5" y="253.2969"/><rect fill="#ADD8E6" height="10" style="stroke:#181818;stroke-width:0.5;" width="15" x="383.5986" y="258.2969"/><rect fill="#ADD8E6" height="2" style="stroke:#181818;stroke-width:0.5;" width="4" x="381.5986" y="260.2969"/><rect fill="#ADD8E6" height="2" style="stroke:#181818;stroke-width:0.5;" width="4" x="381.5986" y="264.2969"/><text fill="#000000" font-family="Microsoft YaHei" font-size="14" font-style="italic" lengthAdjust="spacing" textLength="32.7578" x="343.6704" y="286.292">&#171;cli&#187;</text><text fill="#000000" font-family="Microsoft YaHei" font-size="14" lengthAdjust="spacing" textLength="37.0986" x="341.5" y="302.5889">cli.py</text></g><g id="elem_GMN9"><path d="M438.5,249.2969 L438.5,280.7969 L403.78,284.7969 L438.5,288.7969 L438.5,319.8281 A0,0 0 0 0 438.5,319.8281 L583.7935,319.8281 A0,0 0 0 0 583.7935,319.8281 L583.7935,259.2969 L573.7935,249.2969 L438.5,249.2969 A0,0 0 0 0 438.5,249.2969 " fill="#FEFFDD" style="stroke:#181818;stroke-width:0.5;"/><path d="M573.7935,249.2969 L573.7935,259.2969 L583.7935,259.2969 L573.7935,249.2969 " fill="#FEFFDD" style="stroke:#181818;stroke-width:0.5;"/><text fill="#000000" font-family="Microsoft YaHei" font-size="13" lengthAdjust="spacing" textLength="65" x="444.5" y="266.3638">&#21629;&#20196;&#20837;&#21475;&#65306;</text><text fill="#000000" font-family="Microsoft YaHei" font-size="13" lengthAdjust="spacing" textLength="107.6816" x="444.5" y="281.4966">- init, run, status</text><text fill="#000000" font-family="Microsoft YaHei" font-size="13" lengthAdjust="spacing" textLength="99.3154" x="444.5" y="296.6294">- resume, reset</text><text fill="#000000" font-family="Microsoft YaHei" font-size="13" lengthAdjust="spacing" textLength="124.2935" x="444.5" y="311.7622">- show, create-task</text></g><!--entity Sched--><g id="elem_Sched"><rect fill="#90EE90" height="62.5938" rx="2.5" ry="2.5" style="stroke:#181818;stroke-width:0.5;" width="125.7773" x="302" y="420.2969"/><rect fill="#90EE90" height="10" style="stroke:#181818;stroke-width:0.5;" width="15" x="407.7773" y="425.2969"/><rect fill="#90EE90" height="2" style="stroke:#181818;stroke-width:0.5;" width="4" x="405.7773" y="427.2969"/><rect fill="#90EE90" height="2" style="stroke:#181818;stroke-width:0.5;" width="4" x="405.7773" y="431.2969"/><text fill="#000000" font-family="Microsoft YaHei" font-size="14" font-style="italic" lengthAdjust="spacing" textLength="85.7773" x="317" y="453.292">&#171;scheduler&#187;</text><text fill="#000000" font-family="Microsoft YaHei" font-size="14" lengthAdjust="spacing" textLength="70.0889" x="324.8442" y="469.5889">Scheduler</text></g><!--entity TQ--><g id="elem_TQ"><rect fill="#90EE90" height="62.5938" rx="2.5" ry="2.5" style="stroke:#181818;stroke-width:0.5;" width="125.7773" x="22" y="581.2969"/><rect fill="#90EE90" height="10" style="stroke:#181818;stroke-width:0.5;" width="15" x="127.7773" y="586.2969"/><rect fill="#90EE90" height="2" style="stroke:#181818;stroke-width:0.5;" width="4" x="125.7773" y="588.2969"/><rect fill="#90EE90" height="2" style="stroke:#181818;stroke-width:0.5;" width="4" x="125.7773" y="592.2969"/><text fill="#000000" font-family="Microsoft YaHei" font-size="14" font-style="italic" lengthAdjust="spacing" textLength="85.7773" x="37" y="614.292">&#171;scheduler&#187;</text><text fill="#000000" font-family="Microsoft YaHei" font-size="14" lengthAdjust="spacing" textLength="78.5244" x="40.6265" y="630.5889">TaskQueue</text></g><!--entity CI--><g id="elem_CI"><rect fill="#90EE90" height="62.5938" rx="2.5" ry="2.5" style="stroke:#181818;stroke-width:0.5;" width="140.9463" x="294.5" y="813.7969"/><rect fill="#90EE90" height="10" style="stroke:#181818;stroke-width:0.5;" width="15" x="415.4463" y="818.7969"/><rect fill="#90EE90" height="2" style="stroke:#181818;stroke-width:0.5;" width="4" x="413.4463" y="820.7969"/><rect fill="#90EE90" height="2" style="stroke:#181818;stroke-width:0.5;" width="4" x="413.4463" y="824.7969"/><text fill="#000000" font-family="Microsoft YaHei" font-size="14" font-style="italic" lengthAdjust="spacing" textLength="85.7773" x="317.0845" y="846.792">&#171;scheduler&#187;</text><text fill="#000000" font-family="Microsoft YaHei" font-size="14" lengthAdjust="spacing" textLength="100.9463" x="309.5" y="863.0889">ClaudeInvoker</text></g><!--entity MS--><g id="elem_MS"><rect fill="#FFFFE0" height="62.5938" rx="2.5" ry="2.5" style="stroke:#181818;stroke-width:0.5;" width="134.2471" x="1069" y="581.2969"/><rect fill="#FFFFE0" height="10" style="stroke:#181818;stroke-width:0.5;" width="15" x="1183.2471" y="586.2969"/><rect fill="#FFFFE0" height="2" style="stroke:#181818;stroke-width:0.5;" width="4" x="1181.2471" y="588.2969"/><rect fill="#FFFFE0" height="2" style="stroke:#181818;stroke-width:0.5;" width="4" x="1181.2471" y="592.2969"/><text fill="#000000" font-family="Microsoft YaHei" font-size="14" font-style="italic" lengthAdjust="spacing" textLength="75.7764" x="1093.2354" y="614.292">&#171;memory&#187;</text><text fill="#000000" font-family="Microsoft YaHei" font-size="14" lengthAdjust="spacing" textLength="94.2471" x="1084" y="630.5889">MemoryStore</text></g><!--entity SM--><g id="elem_SM"><rect fill="#FFFFE0" height="62.5938" rx="2.5" ry="2.5" style="stroke:#181818;stroke-width:0.5;" width="150.3525" x="875" y="813.7969"/><rect fill="#FFFFE0" height="10" style="stroke:#181818;stroke-width:0.5;" width="15" x="1005.3525" y="818.7969"/><rect fill="#FFFFE0" height="2" style="stroke:#181818;stroke-width:0.5;" width="4" x="1003.3525" y="820.7969"/><rect fill="#FFFFE0" height="2" style="stroke:#181818;stroke-width:0.5;" width="4" x="1003.3525" y="824.7969"/><text fill="#000000" font-family="Microsoft YaHei" font-size="14" font-style="italic" lengthAdjust="spacing" textLength="75.7764" x="907.2881" y="846.792">&#171;memory&#187;</text><text fill="#000000" font-family="Microsoft YaHei" font-size="14" lengthAdjust="spacing" textLength="110.3525" x="890" y="863.0889">SessionMemory</text></g><!--entity LLM--><g id="elem_LLM"><rect fill="#FFFFE0" height="62.5938" rx="2.5" ry="2.5" style="stroke:#181818;stroke-width:0.5;" width="151.8223" x="1060" y="813.7969"/><rect fill="#FFFFE0" height="10" style="stroke:#181818;stroke-width:0.5;" width="15" x="1191.8223" y="818.7969"/><rect fill="#FFFFE0" height="2" style="stroke:#181818;stroke-width:0.5;" width="4" x="1189.8223" y="820.7969"/><rect fill="#FFFFE0" height="2" style="stroke:#181818;stroke-width:0.5;" width="4" x="1189.8223" y="824.7969"/><text fill="#000000" font-family="Microsoft YaHei" font-size="14" font-style="italic" lengthAdjust="spacing" textLength="75.7764" x="1093.0229" y="846.792">&#171;memory&#187;</text><text fill="#000000" font-family="Microsoft YaHei" font-size="14" lengthAdjust="spacing" textLength="111.8223" x="1075" y="863.0889">LLMCompressor</text></g><!--entity MU--><g id="elem_MU"><rect fill="#FFFFE0" height="62.5938" rx="2.5" ry="2.5" style="stroke:#181818;stroke-width:0.5;" width="153.3945" x="875.5" y="967.2969"/><rect fill="#FFFFE0" height="10" style="stroke:#181818;stroke-width:0.5;" width="15" x="1008.8945" y="972.2969"/><rect fill="#FFFFE0" height="2" style="stroke:#181818;stroke-width:0.5;" width="4" x="1006.8945" y="974.2969"/><rect fill="#FFFFE0" height="2" style="stroke:#181818;stroke-width:0.5;" width="4" x="1006.8945" y="978.2969"/><text fill="#000000" font-family="Microsoft YaHei" font-size="14" font-style="italic" lengthAdjust="spacing" textLength="75.7764" x="909.3091" y="1000.292">&#171;memory&#187;</text><text fill="#000000" font-family="Microsoft YaHei" font-size="14" lengthAdjust="spacing" textLength="113.3945" x="890.5" y="1016.5889">MemoryUpdater</text></g><!--entity ctx--><g id="elem_ctx"><path d="M1350.5,818.2969 L1391.5,818.2969 A3.75,3.75 0 0 1 1394,820.7969 L1401,839.2969 L1455.4873,839.2969 A2.5,2.5 0 0 1 1457.9873,841.7969 L1457.9873,870.0938 A2.5,2.5 0 0 1 1455.4873,872.5938 L1350.5,872.5938 A2.5,2.5 0 0 1 1348,870.0938 L1348,820.7969 A2.5,2.5 0 0 1 1350.5,818.2969 " fill="#F1F1F1" style="stroke:#181818;stroke-width:0.5;"/><line style="stroke:#181818;stroke-width:0.5;" x1="1348" x2="1401" y1="839.2969" y2="839.2969"/><text fill="#000000" font-family="Microsoft YaHei" font-size="14" lengthAdjust="spacing" textLength="79.9873" x="1358" y="859.292">context.md</text></g><!--entity sess--><g id="elem_sess"><path d="M1496,818.2969 L1537,818.2969 A3.75,3.75 0 0 1 1539.5,820.7969 L1546.5,839.2969 L1599.7979,839.2969 A2.5,2.5 0 0 1 1602.2979,841.7969 L1602.2979,870.0938 A2.5,2.5 0 0 1 1599.7979,872.5938 L1496,872.5938 A2.5,2.5 0 0 1 1493.5,870.0938 L1493.5,820.7969 A2.5,2.5 0 0 1 1496,818.2969 " fill="#F1F1F1" style="stroke:#181818;stroke-width:0.5;"/><line style="stroke:#181818;stroke-width:0.5;" x1="1493.5" x2="1546.5" y1="839.2969" y2="839.2969"/><text fill="#000000" font-family="Microsoft YaHei" font-size="14" lengthAdjust="spacing" textLength="78.7979" x="1503.5" y="859.292">session.md</text></g><!--entity kb--><g id="elem_kb"><path d="M1319,971.7969 L1360,971.7969 A3.75,3.75 0 0 1 1362.5,974.2969 L1369.5,992.7969 L1487.2334,992.7969 A2.5,2.5 0 0 1 1489.7334,995.2969 L1489.7334,1023.5938 A2.5,2.5 0 0 1 1487.2334,1026.0938 L1319,1026.0938 A2.5,2.5 0 0 1 1316.5,1023.5938 L1316.5,974.2969 A2.5,2.5 0 0 1 1319,971.7969 " fill="#F1F1F1" style="stroke:#181818;stroke-width:0.5;"/><line style="stroke:#181818;stroke-width:0.5;" x1="1316.5" x2="1369.5" y1="992.7969" y2="992.7969"/><text fill="#000000" font-family="Microsoft YaHei" font-size="14" lengthAdjust="spacing" textLength="143.2334" x="1326.5" y="1012.792">knowledge_base.md</text></g><!--entity rounds--><g id="elem_rounds"><path d="M1527,971.7969 L1568,971.7969 A3.75,3.75 0 0 1 1570.5,974.2969 L1577.5,992.7969 L1604.9648,992.7969 A2.5,2.5 0 0 1 1607.4648,995.2969 L1607.4648,1023.5938 A2.5,2.5 0 0 1 1604.9648,1026.0938 L1527,1026.0938 A2.5,2.5 0 0 1 1524.5,1023.5938 L1524.5,974.2969 A2.5,2.5 0 0 1 1527,971.7969 " fill="#F1F1F1" style="stroke:#181818;stroke-width:0.5;"/><line style="stroke:#181818;stroke-width:0.5;" x1="1524.5" x2="1577.5" y1="992.7969" y2="992.7969"/><text fill="#000000" font-family="Microsoft YaHei" font-size="14" lengthAdjust="spacing" textLength="52.9648" x="1534.5" y="1012.792">rounds/</text></g><!--entity shared_ctx--><g id="elem_shared_ctx"><path d="M1717.5,818.2969 L1758.5,818.2969 A3.75,3.75 0 0 1 1761,820.7969 L1768,839.2969 L1822.4873,839.2969 A2.5,2.5 0 0 1 1824.9873,841.7969 L1824.9873,870.0938 A2.5,2.5 0 0 1 1822.4873,872.5938 L1717.5,872.5938 A2.5,2.5 0 0 1 1715,870.0938 L1715,820.7969 A2.5,2.5 0 0 1 1717.5,818.2969 " fill="#F1F1F1" style="stroke:#181818;stroke-width:0.5;"/><line style="stroke:#181818;stroke-width:0.5;" x1="1715" x2="1768" y1="839.2969" y2="839.2969"/><text fill="#000000" font-family="Microsoft YaHei" font-size="14" lengthAdjust="spacing" textLength="79.9873" x="1725" y="859.292">context.md</text></g><!--entity Claude--><g id="elem_Claude"><rect fill="#D3D3D3" height="62.5938" rx="2.5" ry="2.5" style="stroke:#181818;stroke-width:0.5;" width="167.9414" x="651" y="581.2969"/><rect fill="#D3D3D3" height="10" style="stroke:#181818;stroke-width:0.5;" width="15" x="798.9414" y="586.2969"/><rect fill="#D3D3D3" height="2" style="stroke:#181818;stroke-width:0.5;" width="4" x="796.9414" y="588.2969"/><rect fill="#D3D3D3" height="2" style="stroke:#181818;stroke-width:0.5;" width="4" x="796.9414" y="592.2969"/><text fill="#000000" font-family="Microsoft YaHei" font-size="14" font-style="italic" lengthAdjust="spacing" textLength="75.3799" x="692.2808" y="614.292">&#171;external&#187;</text><text fill="#000000" font-family="Microsoft YaHei" font-size="14" lengthAdjust="spacing" textLength="127.9414" x="666" y="630.5889">"Claude Code CLI"</text></g><!--entity FS--><g id="elem_FS"><rect fill="#D3D3D3" height="62.5938" rx="2.5" ry="2.5" style="stroke:#181818;stroke-width:0.5;" width="115.3799" x="500.5" y="581.2969"/><rect fill="#D3D3D3" height="10" style="stroke:#181818;stroke-width:0.5;" width="15" x="595.8799" y="586.2969"/><rect fill="#D3D3D3" height="2" style="stroke:#181818;stroke-width:0.5;" width="4" x="593.8799" y="588.2969"/><rect fill="#D3D3D3" height="2" style="stroke:#181818;stroke-width:0.5;" width="4" x="593.8799" y="592.2969"/><text fill="#000000" font-family="Microsoft YaHei" font-size="14" font-style="italic" lengthAdjust="spacing" textLength="75.3799" x="515.5" y="614.292">&#171;external&#187;</text><text fill="#000000" font-family="Microsoft YaHei" font-size="14" lengthAdjust="spacing" textLength="68.8789" x="518.7505" y="630.5889">"&#25991;&#20214;&#31995;&#32479;"</text></g><!--link Sched to TQ--><g id="link_Sched_TQ"><path d="M301.89,459.8069 C257.49,467.2569 198.49,482.4669 155,513.2969 C130.7,530.5269 114.7032,553.685 102.7032,575.585 " fill="none" id="Sched-to-TQ" style="stroke:#181818;stroke-width:1;"/><polygon fill="#181818" points="99.82,580.8469,107.6527,574.8762,102.2227,576.462,100.6369,571.032,99.82,580.8469" style="stroke:#181818;stroke-width:1;"/><text fill="#000000" font-family="Microsoft YaHei" font-size="13" lengthAdjust="spacing" textLength="52" x="156" y="526.3638">&#33719;&#21462;&#20219;&#21153;</text></g><!--link Sched to CI--><g id="link_Sched_CI"><path d="M301.85,482.0269 C279.7,495.7469 257.3,514.4169 245,538.2969 C218.53,589.6569 227.97,613.0869 245,668.2969 C262.66,725.5469 302.0147,776.3495 331.4847,809.2195 " fill="none" id="Sched-to-CI" style="stroke:#181818;stroke-width:1;"/><polygon fill="#181818" points="335.49,813.6869,332.4603,804.3156,332.1523,809.964,326.5038,809.656,335.49,813.6869" style="stroke:#181818;stroke-width:1;"/><text fill="#000000" font-family="Microsoft YaHei" font-size="13" lengthAdjust="spacing" textLength="75.2769" x="246" y="617.3638">&#35843;&#29992; Claude</text></g><!--link Sched to CI--><g id="link_Sched_CI"><path d="M365,483.5169 C365,556.7069 365,734.6769 365,807.7169 " fill="none" id="Sched-to-CI-1" style="stroke:#181818;stroke-width:1;"/><polygon fill="#181818" points="365,813.7169,369,804.7169,365,808.7169,361,804.7169,365,813.7169" style="stroke:#181818;stroke-width:1;"/><text fill="#000000" font-family="Microsoft YaHei" font-size="13" lengthAdjust="spacing" textLength="77.2827" x="366" y="617.3638">&#26500;&#24314; Prompt</text></g><!--link TQ to CI--><g id="link_TQ_CI"><path d="M109.11,644.3369 C121.97,659.7769 138.51,678.3569 155,693.2969 C206.25,739.7269 266.7981,781.6689 310.9281,810.3289 " fill="none" id="TQ-to-CI" style="stroke:#181818;stroke-width:1;"/><polygon fill="#181818" points="315.96,813.5969,310.5907,805.3403,311.7667,810.8736,306.2334,812.0496,315.96,813.5969" style="stroke:#181818;stroke-width:1;"/><text fill="#000000" font-family="Microsoft YaHei" font-size="13" lengthAdjust="spacing" textLength="52" x="156" y="689.3638">&#20219;&#21153;&#23450;&#20041;</text></g><!--link MS to SM--><g id="link_MS_SM"><path d="M1098.67,644.6669 C1080.53,660.6069 1059.02,680.9469 1042,701.2969 C1011.89,737.3069 986.6511,778.5285 969.6111,808.5585 " fill="none" id="MS-to-SM" style="stroke:#181818;stroke-width:1;"/><polygon fill="#181818" points="966.65,813.7769,974.5706,807.9233,969.1176,809.4282,967.6127,803.9752,966.65,813.7769" style="stroke:#181818;stroke-width:1;"/><text fill="#000000" font-family="Microsoft YaHei" font-size="13" lengthAdjust="spacing" textLength="52" x="1065" y="689.3638">&#35835;&#20889;&#20250;&#35805;</text></g><!--link MS to LLM--><g id="link_MS_LLM"><path d="M1136,644.4069 C1136,688.4869 1136,763.4069 1136,807.5569 " fill="none" id="MS-to-LLM" style="stroke:#181818;stroke-width:1;"/><polygon fill="#181818" points="1136,813.5569,1140,804.5569,1136,808.5569,1132,804.5569,1136,813.5569" style="stroke:#181818;stroke-width:1;"/><text fill="#000000" font-family="Microsoft YaHei" font-size="13" lengthAdjust="spacing" textLength="52" x="1137" y="689.3638">&#21387;&#32553;&#26816;&#26597;</text></g><!--link SM to MU--><g id="link_SM_MU"><path d="M950.4,876.9569 C950.75,903.2369 951.1701,934.9174 951.5201,961.1874 " fill="none" id="SM-to-MU" style="stroke:#181818;stroke-width:1;"/><polygon fill="#181818" points="951.6,967.1869,955.4797,958.1344,951.5334,962.1873,947.4805,958.241,951.6,967.1869" style="stroke:#181818;stroke-width:1;"/><text fill="#000000" font-family="Microsoft YaHei" font-size="13" lengthAdjust="spacing" textLength="52" x="953" y="933.3638">&#25552;&#21462;&#32467;&#26524;</text></g><!--link User to CLI--><g id="link_User_CLI"><path d="M365,136.8869 C365,166.5969 365,213.5469 365,247.1069 " fill="none" id="User-to-CLI" style="stroke:#181818;stroke-width:1;"/><polygon fill="#181818" points="365,253.1069,369,244.1069,365,248.1069,361,244.1069,365,253.1069" style="stroke:#181818;stroke-width:1;"/><text fill="#000000" font-family="Microsoft YaHei" font-size="13" lengthAdjust="spacing" textLength="50.2861" x="366" y="194.3638">CLI &#21629;&#20196;</text></g><!--link CLI to Sched--><g id="link_CLI_Sched"><path d="M365,316.4469 C365,345.9869 365,384.4469 365,414.0369 " fill="none" id="CLI-to-Sched" style="stroke:#181818;stroke-width:1;"/><polygon fill="#181818" points="365,420.0369,369,411.0369,365,415.0369,361,411.0369,365,420.0369" style="stroke:#181818;stroke-width:1;"/><text fill="#000000" font-family="Microsoft YaHei" font-size="13" lengthAdjust="spacing" textLength="65" x="366" y="365.3638">&#21021;&#22987;&#21270;&#35843;&#24230;</text></g><!--link CI to Claude--><g id="link_CI_Claude"><path d="M386.48,813.6269 C416.13,774.0669 473.64,706.7369 541,676.2969 C578.4,659.3969 593.66,679.9869 633,668.2969 C651.67,662.7469 665.588,656.5061 682.198,647.2561 " fill="none" id="CI-to-Claude" style="stroke:#181818;stroke-width:1;"/><polygon fill="#181818" points="687.44,644.3369,677.6309,645.2211,683.0717,646.7696,681.5232,652.2103,687.44,644.3369" style="stroke:#181818;stroke-width:1;"/><text fill="#000000" font-family="Microsoft YaHei" font-size="13" lengthAdjust="spacing" textLength="103.4795" x="542" y="689.3638">&#35843;&#29992; claude &#21629;&#20196;</text></g><!--link Claude to CI--><g id="link_Claude_CI"><path d="M706.01,644.5769 C690.31,660.2569 670.07,678.9869 650,693.2969 C581.17,742.3969 499.8247,783.5859 440.2147,811.1859 " fill="none" id="Claude-to-CI" style="stroke:#181818;stroke-width:1;"/><polygon fill="#181818" points="434.77,813.7069,444.6177,813.5553,439.3073,811.6061,441.2564,806.2956,434.77,813.7069" style="stroke:#181818;stroke-width:1;"/><text fill="#000000" font-family="Microsoft YaHei" font-size="13" lengthAdjust="spacing" textLength="52" x="672" y="689.3638">&#36820;&#22238;&#32467;&#26524;</text></g><!--link Sched to MS--><g id="link_Sched_MS"><path d="M428.33,463.0869 C518.83,478.0669 690.2,507.4769 835,538.2969 C915.76,555.4869 1002.0795,576.991 1062.9095,592.651 " fill="none" id="Sched-to-MS" style="stroke:#181818;stroke-width:1;"/><polygon fill="#181818" points="1068.72,594.1469,1061.0014,588.0294,1063.8779,592.9003,1059.0069,595.7768,1068.72,594.1469" style="stroke:#181818;stroke-width:1;"/><text fill="#000000" font-family="Microsoft YaHei" font-size="13" lengthAdjust="spacing" textLength="82.3799" x="786" y="526.3638">&#20445;&#23384;/&#35835;&#21462;&#35760;&#24518;</text></g><!--link MS to MemDir--><g id="link_MS_MemDir"><path d="M1174.74,644.5469 C1192.61,660.1569 1213.11,680.2469 1228,701.2969 C1247.79,729.2769 1263.6025,764.3544 1274.5588,792.7656 C1277.2978,799.8684 1279.7334,806.5546 1281.8517,812.6091 C1282.3812,814.1227 1282.891,815.5968 1283.3807,817.0281 C1283.5031,817.386 1283.6243,817.7411 1283.7442,818.0935 C1283.8042,818.2697 1281.9357,812.7635 1281.995,812.9383 " fill="none" id="MS-to-MemDir" style="stroke:#181818;stroke-width:1;"/><polygon fill="#181818" points="1283.9231,818.6201,1284.8188,808.812,1282.3164,813.8853,1277.2432,811.3828,1283.9231,818.6201" style="stroke:#181818;stroke-width:1;"/><text fill="#000000" font-family="Microsoft YaHei" font-size="13" lengthAdjust="spacing" textLength="78" x="1222" y="689.3638">&#25345;&#20037;&#21270;&#21040;&#30913;&#30424;</text></g><!--link MS to Shared--><g id="link_MS_Shared"><path d="M1203.05,617.8369 C1321.35,626.2169 1560.64,649.2669 1624,701.2969 C1649.965,722.6169 1663.9375,757.5919 1671.4325,787.6156 C1671.5496,788.0847 1671.6651,788.5527 1671.7791,789.0193 C1671.8361,789.2526 1670.4838,783.6534 1670.54,783.886 " fill="none" id="MS-to-Shared" style="stroke:#181818;stroke-width:1;"/><polygon fill="#181818" points="1671.9489,789.7183,1673.7237,780.0306,1670.7748,784.8581,1665.9474,781.9092,1671.9489,789.7183" style="stroke:#181818;stroke-width:1;"/><text fill="#000000" font-family="Microsoft YaHei" font-size="13" lengthAdjust="spacing" textLength="78" x="1613" y="689.3638">&#35835;&#20889;&#20849;&#20139;&#35760;&#24518;</text></g><!--link Sched to FS--><g id="link_Sched_FS"><path d="M402.21,483.4569 C436.39,511.6069 482.1294,549.2914 516.2694,577.4214 " fill="none" id="Sched-to-FS" style="stroke:#181818;stroke-width:1;"/><polygon fill="#181818" points="520.9,581.2369,516.4977,572.4267,517.0412,578.0573,511.4105,578.6008,520.9,581.2369" style="stroke:#181818;stroke-width:1;"/><text fill="#000000" font-family="Microsoft YaHei" font-size="13" lengthAdjust="spacing" textLength="52" x="457" y="526.3638">&#25991;&#20214;&#25805;&#20316;</text></g><rect fill="none" height="111.7813" id="_legend" rx="7.5" ry="7.5" style="stroke:#000000;stroke-width:1;" width="131.3652" x="1730.6348" y="1099.7969"/><text fill="#000000" font-family="Microsoft YaHei" font-size="14" font-weight="bold" lengthAdjust="spacing" textLength="28" x="1740.5088" y="1119.792">&#39068;&#33394;</text><text fill="#000000" font-family="Microsoft YaHei" font-size="14" font-weight="bold" lengthAdjust="spacing" textLength="28" x="1778.2568" y="1119.792">&#23618;&#32423;</text><rect fill="#E0FFFF" height="16.2969" style="stroke:none;stroke-width:1;" width="37.748" x="1735.6348" y="1123.0938"/><text fill="#000000" font-family="Microsoft YaHei" font-size="14" lengthAdjust="spacing" textLength="4.4502" x="1735.6348" y="1136.0889">&#160;</text><text fill="#000000" font-family="Microsoft YaHei" font-size="14" lengthAdjust="spacing" textLength="42" x="1777.833" y="1136.0889">&#29992;&#25143;&#23618;</text><rect fill="#ADD8E6" height="16.2969" style="stroke:none;stroke-width:1;" width="37.748" x="1735.6348" y="1139.3906"/><text fill="#000000" font-family="Microsoft YaHei" font-size="14" lengthAdjust="spacing" textLength="4.4502" x="1735.6348" y="1152.3857">&#160;</text><text fill="#000000" font-family="Microsoft YaHei" font-size="14" lengthAdjust="spacing" textLength="40.1543" x="1777.833" y="1152.3857">CLI &#23618;</text><rect fill="#90EE90" height="16.2969" style="stroke:none;stroke-width:1;" width="37.748" x="1735.6348" y="1155.6875"/><text fill="#000000" font-family="Microsoft YaHei" font-size="14" lengthAdjust="spacing" textLength="4.4502" x="1735.6348" y="1168.6826">&#160;</text><text fill="#000000" font-family="Microsoft YaHei" font-size="14" lengthAdjust="spacing" textLength="56" x="1777.833" y="1168.6826">&#35843;&#24230;&#22120;&#23618;</text><rect fill="#FFFFE0" height="16.2969" style="stroke:none;stroke-width:1;" width="37.748" x="1735.6348" y="1171.9844"/><text fill="#000000" font-family="Microsoft YaHei" font-size="14" lengthAdjust="spacing" textLength="4.4502" x="1735.6348" y="1184.9795">&#160;</text><text fill="#000000" font-family="Microsoft YaHei" font-size="14" lengthAdjust="spacing" textLength="70" x="1777.833" y="1184.9795">&#35760;&#24518;&#31995;&#32479;&#23618;</text><rect fill="#D3D3D3" height="16.2969" style="stroke:none;stroke-width:1;" width="37.748" x="1735.6348" y="1188.2813"/><text fill="#000000" font-family="Microsoft YaHei" font-size="14" lengthAdjust="spacing" textLength="4.4502" x="1735.6348" y="1201.2764">&#160;</text><text fill="#000000" font-family="Microsoft YaHei" font-size="14" lengthAdjust="spacing" textLength="74.7168" x="1777.833" y="1201.2764">&#25345;&#20037;&#21270;/&#22806;&#37096;</text><line style="stroke:#000000;stroke-width:1;" x1="1735.6348" x2="1857" y1="1106.7969" y2="1106.7969"/><line style="stroke:#000000;stroke-width:1;" x1="1735.6348" x2="1857" y1="1123.0938" y2="1123.0938"/><line style="stroke:#000000;stroke-width:1;" x1="1735.6348" x2="1857" y1="1139.3906" y2="1139.3906"/><line style="stroke:#000000;stroke-width:1;" x1="1735.6348" x2="1857" y1="1155.6875" y2="1155.6875"/><line style="stroke:#000000;stroke-width:1;" x1="1735.6348" x2="1857" y1="1171.9844" y2="1171.9844"/><line style="stroke:#000000;stroke-width:1;" x1="1735.6348" x2="1857" y1="1188.2813" y2="1188.2813"/><line style="stroke:#000000;stroke-width:1;" x1="1735.6348" x2="1857" y1="1204.5781" y2="1204.5781"/><line style="stroke:#000000;stroke-width:1;" x1="1735.6348" x2="1735.6348" y1="1106.7969" y2="1204.5781"/><line style="stroke:#000000;stroke-width:1;" x1="1773.3828" x2="1773.3828" y1="1106.7969" y2="1204.5781"/><line style="stroke:#000000;stroke-width:1;" x1="1857" x2="1857" y1="1106.7969" y2="1204.5781"/><!--SRC=[bLLBRzj64BxpLooKImjOyIKdm_KXBDmQa8e6YWz1K0HhSYsnehW2Trb7Y0qaTPquSMgtJI0aVkNXf75HD75Qe4b4f_upN4e-zIzqTfSKzI0CL10aSkQRcMzcPsPPtV6QsCSDj82jUjMdWMURrAK-Mgevd1YihxV98WvSFaiz_XLk45HsB9yokiZH5VmbSGpkS9UWxbzXDtmIlRyNlT-8stV4pZ_e4_C2EZtOZ9yUVseC-BDeeqazud5qmq3mkJWSVthQSfsP6LHogZL-qGr8FeXPDM87Bl5Jw1S-8Lu-ja4Qr6-bm2l4TUbIFf9SvyJti9ivnIrZnJ2Q0CHLWWhTXuVn-Zlnzlj2mlwgbdo3C4FpZFZed38qMrYJyIWdo9SYH1SLGebFRsxtJkuWipI7nCyVe_15r87lB_yURojr4JLRl4Oz1BKutsmXF_1ovPPFC2T5ZbazLyyuvW5JAkBPYinGEYf-bansD5Ur0vMM12MdafCIQ9LKfo7MNegjWomDntFuXAG_CSYbY7p2WWQPaF-49p9MeqiJOodbykuThOhEh-BnOJxvIjeSYhzwGqCjCsfm6Q9T2aX0bC7bIsUZJHS7DfdplgFr98GvDsAXJ7JWOd56Ufn2lSrtOgiTXQ6uzsn43_QWFrg5PaBQkmA0ML-hxSJhxUZ3tU5Ql3uI9xVr_Abod1jey_7QbDKmL3ZrTRBb2iecPAoGX367Ujf65xDy1hnKAflm1eVAg2uCICx0Qx_pJHjENEFByuDmXGU2iWWG64hq9XIt7qV7sxqtUuDA6MOAYSsDxl5lyS7D-CbBNU2oqeBJAHHl_GJLxuOFultTeVh5zsz57zR4_VP0Bm4Xl80PQ3MNoHjDdtvBBBuoML0qIUDp9vrrkIGIE_bPfAuDUw1WmSA4VNA-OIiJYryVWp1TtXGYNySmTOykkSIkackIK0gjBum1rHvZcfz-Lf0LOoGZLiC-iQybz3I-ecJ_Av_KJPBMob1DnOlswUgXxicS-Ipe7aScbJ-bkO8U8YqStC9ZXd2rHE7VYMDbDLiPjW0QQW-hmId9oScMh24VLJEfoOEEMTyJhpRWxFL2CKOcCjx_GOGTzBKF3BXXQjk4PdzUBVsUHj1lsL2VF1Gx-qdRPUwXRs6aJ_R47uycPLDljVKO6qb39mq65FhTkNxKFRZLtNcKGf8pIuT2hBsDEhydNh90ipAGhbhyuCVeuwvXkAGgbwhQuAh0ov-Xq-UxlRj_oYUOWcxd5LhMckdiEfjPHltRRqGjhsbG9xV9Y59TpA0TtDaZ4Bsh96PuburvmYq0zKiogTiCK92Fpihu3m00]--></g></svg>