<svg xmlns="http://www.w3.org/2000/svg" xmlns:xlink="http://www.w3.org/1999/xlink" contentStyleType="text/css" height="1194px" preserveAspectRatio="none" style="width:594px;height:1194px;background:#FFFFFF;" version="1.1" viewBox="0 0 594 1194" width="594px" zoomAndPan="magnify"><title>&#20219;&#21153;&#25191;&#34892;&#27969;&#31243;&#19982;&#29366;&#24577;</title><defs/><g><text fill="#000000" font-family="Microsoft YaHei" font-size="14" font-weight="bold" lengthAdjust="spacing" textLength="126" x="227.3708" y="22.9951">&#20219;&#21153;&#25191;&#34892;&#27969;&#31243;&#19982;&#29366;&#24577;</text><!--entity TQ--><g id="elem_TQ"><rect fill="#ADD8E6" height="62.5938" rx="2.5" ry="2.5" style="stroke:#181818;stroke-width:0.5;" width="96" x="194.5" y="44.2969"/><rect fill="#ADD8E6" height="10" style="stroke:#181818;stroke-width:0.5;" width="15" x="270.5" y="49.2969"/><rect fill="#ADD8E6" height="2" style="stroke:#181818;stroke-width:0.5;" width="4" x="268.5" y="51.2969"/><rect fill="#ADD8E6" height="2" style="stroke:#181818;stroke-width:0.5;" width="4" x="268.5" y="55.2969"/><text fill="#000000" font-family="Microsoft YaHei" font-size="14" font-style="italic" lengthAdjust="spacing" textLength="46.751" x="214.1245" y="77.292">&#171;task&#187;</text><text fill="#000000" font-family="Microsoft YaHei" font-size="14" lengthAdjust="spacing" textLength="56" x="209.5" y="93.5889">&#20219;&#21153;&#38431;&#21015;</text></g><!--entity Running--><g id="elem_Running"><rect fill="#ADD8E6" height="62.5938" rx="2.5" ry="2.5" style="stroke:#181818;stroke-width:0.5;" width="86.751" x="137" y="184.2969"/><rect fill="#ADD8E6" height="10" style="stroke:#181818;stroke-width:0.5;" width="15" x="203.751" y="189.2969"/><rect fill="#ADD8E6" height="2" style="stroke:#181818;stroke-width:0.5;" width="4" x="201.751" y="191.2969"/><rect fill="#ADD8E6" height="2" style="stroke:#181818;stroke-width:0.5;" width="4" x="201.751" y="195.2969"/><text fill="#000000" font-family="Microsoft YaHei" font-size="14" font-style="italic" lengthAdjust="spacing" textLength="46.751" x="152" y="217.292">&#171;task&#187;</text><text fill="#000000" font-family="Microsoft YaHei" font-size="14" lengthAdjust="spacing" textLength="42" x="154.3755" y="233.5889">&#25191;&#34892;&#20013;</text></g><!--entity Waiting--><g id="elem_Waiting"><rect fill="#ADD8E6" height="62.5938" rx="2.5" ry="2.5" style="stroke:#181818;stroke-width:0.5;" width="121.0674" x="7" y="324.2969"/><rect fill="#ADD8E6" height="10" style="stroke:#181818;stroke-width:0.5;" width="15" x="108.0674" y="329.2969"/><rect fill="#ADD8E6" height="2" style="stroke:#181818;stroke-width:0.5;" width="4" x="106.0674" y="331.2969"/><rect fill="#ADD8E6" height="2" style="stroke:#181818;stroke-width:0.5;" width="4" x="106.0674" y="335.2969"/><text fill="#000000" font-family="Microsoft YaHei" font-size="14" font-style="italic" lengthAdjust="spacing" textLength="46.751" x="39.1582" y="357.292">&#171;task&#187;</text><text fill="#000000" font-family="Microsoft YaHei" font-size="14" lengthAdjust="spacing" textLength="81.0674" x="22" y="373.5889">&#31561;&#24453; Claude</text></g><!--entity Processing--><g id="elem_Processing"><rect fill="#ADD8E6" height="62.5938" rx="2.5" ry="2.5" style="stroke:#181818;stroke-width:0.5;" width="96" x="150.5" y="464.2969"/><rect fill="#ADD8E6" height="10" style="stroke:#181818;stroke-width:0.5;" width="15" x="226.5" y="469.2969"/><rect fill="#ADD8E6" height="2" style="stroke:#181818;stroke-width:0.5;" width="4" x="224.5" y="471.2969"/><rect fill="#ADD8E6" height="2" style="stroke:#181818;stroke-width:0.5;" width="4" x="224.5" y="475.2969"/><text fill="#000000" font-family="Microsoft YaHei" font-size="14" font-style="italic" lengthAdjust="spacing" textLength="46.751" x="170.1245" y="497.292">&#171;task&#187;</text><text fill="#000000" font-family="Microsoft YaHei" font-size="14" lengthAdjust="spacing" textLength="56" x="165.5" y="513.5889">&#22788;&#29702;&#32467;&#26524;</text></g><!--entity Done--><g id="elem_Done"><rect fill="#ADD8E6" height="62.5938" rx="2.5" ry="2.5" style="stroke:#181818;stroke-width:0.5;" width="96" x="49.5" y="604.2969"/><rect fill="#ADD8E6" height="10" style="stroke:#181818;stroke-width:0.5;" width="15" x="125.5" y="609.2969"/><rect fill="#ADD8E6" height="2" style="stroke:#181818;stroke-width:0.5;" width="4" x="123.5" y="611.2969"/><rect fill="#ADD8E6" height="2" style="stroke:#181818;stroke-width:0.5;" width="4" x="123.5" y="615.2969"/><text fill="#000000" font-family="Microsoft YaHei" font-size="14" font-style="italic" lengthAdjust="spacing" textLength="46.751" x="69.1245" y="637.292">&#171;task&#187;</text><text fill="#000000" font-family="Microsoft YaHei" font-size="14" lengthAdjust="spacing" textLength="56" x="64.5" y="653.5889">&#20219;&#21153;&#23436;&#25104;</text></g><!--entity Memory--><g id="elem_Memory"><rect fill="#90EE90" height="62.5938" rx="2.5" ry="2.5" style="stroke:#181818;stroke-width:0.5;" width="115.7764" x="241.5" y="1032.2969"/><rect fill="#90EE90" height="10" style="stroke:#181818;stroke-width:0.5;" width="15" x="337.2764" y="1037.2969"/><rect fill="#90EE90" height="2" style="stroke:#181818;stroke-width:0.5;" width="4" x="335.2764" y="1039.2969"/><rect fill="#90EE90" height="2" style="stroke:#181818;stroke-width:0.5;" width="4" x="335.2764" y="1043.2969"/><text fill="#000000" font-family="Microsoft YaHei" font-size="14" font-style="italic" lengthAdjust="spacing" textLength="75.7764" x="256.5" y="1065.292">&#171;memory&#187;</text><text fill="#000000" font-family="Microsoft YaHei" font-size="14" lengthAdjust="spacing" textLength="56" x="266.3882" y="1081.5889">&#35760;&#24518;&#31995;&#32479;</text></g><!--entity Load--><g id="elem_Load"><rect fill="#90EE90" height="62.5938" rx="2.5" ry="2.5" style="stroke:#181818;stroke-width:0.5;" width="115.7764" x="333.5" y="892.2969"/><rect fill="#90EE90" height="10" style="stroke:#181818;stroke-width:0.5;" width="15" x="429.2764" y="897.2969"/><rect fill="#90EE90" height="2" style="stroke:#181818;stroke-width:0.5;" width="4" x="427.2764" y="899.2969"/><rect fill="#90EE90" height="2" style="stroke:#181818;stroke-width:0.5;" width="4" x="427.2764" y="903.2969"/><text fill="#000000" font-family="Microsoft YaHei" font-size="14" font-style="italic" lengthAdjust="spacing" textLength="75.7764" x="348.5" y="925.292">&#171;memory&#187;</text><text fill="#000000" font-family="Microsoft YaHei" font-size="14" lengthAdjust="spacing" textLength="70" x="351.3882" y="941.5889">&#21152;&#36733;&#19978;&#19979;&#25991;</text></g><!--entity Save--><g id="elem_Save"><rect fill="#90EE90" height="62.5938" rx="2.5" ry="2.5" style="stroke:#181818;stroke-width:0.5;" width="115.7764" x="241.5" y="604.2969"/><rect fill="#90EE90" height="10" style="stroke:#181818;stroke-width:0.5;" width="15" x="337.2764" y="609.2969"/><rect fill="#90EE90" height="2" style="stroke:#181818;stroke-width:0.5;" width="4" x="335.2764" y="611.2969"/><rect fill="#90EE90" height="2" style="stroke:#181818;stroke-width:0.5;" width="4" x="335.2764" y="615.2969"/><text fill="#000000" font-family="Microsoft YaHei" font-size="14" font-style="italic" lengthAdjust="spacing" textLength="75.7764" x="256.5" y="637.292">&#171;memory&#187;</text><text fill="#000000" font-family="Microsoft YaHei" font-size="14" lengthAdjust="spacing" textLength="56" x="266.3882" y="653.5889">&#20445;&#23384;&#35760;&#24518;</text></g><!--entity Compress--><g id="elem_Compress"><rect fill="#90EE90" height="62.5938" rx="2.5" ry="2.5" style="stroke:#181818;stroke-width:0.5;" width="115.7764" x="241.5" y="748.2969"/><rect fill="#90EE90" height="10" style="stroke:#181818;stroke-width:0.5;" width="15" x="337.2764" y="753.2969"/><rect fill="#90EE90" height="2" style="stroke:#181818;stroke-width:0.5;" width="4" x="335.2764" y="755.2969"/><rect fill="#90EE90" height="2" style="stroke:#181818;stroke-width:0.5;" width="4" x="335.2764" y="759.2969"/><text fill="#000000" font-family="Microsoft YaHei" font-size="14" font-style="italic" lengthAdjust="spacing" textLength="75.7764" x="256.5" y="781.292">&#171;memory&#187;</text><text fill="#000000" font-family="Microsoft YaHei" font-size="14" lengthAdjust="spacing" textLength="56" x="266.3882" y="797.5889">&#21387;&#32553;&#26816;&#26597;</text></g><g id="elem_GMN22"><path d="M326,48.2969 L326,71.7969 L290.7,75.7969 L326,79.7969 L326,103.6953 A0,0 0 0 0 326,103.6953 L556.9233,103.6953 A0,0 0 0 0 556.9233,103.6953 L556.9233,58.2969 L546.9233,48.2969 L326,48.2969 A0,0 0 0 0 326,48.2969 " fill="#FEFFDD" style="stroke:#181818;stroke-width:0.5;"/><path d="M546.9233,48.2969 L546.9233,58.2969 L556.9233,58.2969 L546.9233,48.2969 " fill="#FEFFDD" style="stroke:#181818;stroke-width:0.5;"/><text fill="#000000" font-family="Microsoft YaHei" font-size="13" lengthAdjust="spacing" textLength="65" x="332" y="65.3638">&#25191;&#34892;&#27169;&#24335;&#65306;</text><text fill="#000000" font-family="Microsoft YaHei" font-size="13" lengthAdjust="spacing" textLength="201.5762" x="332" y="80.4966">- &#20018;&#34892;&#65306;Task1 &#8594; Task2 &#8594; Task3</text><text fill="#000000" font-family="Microsoft YaHei" font-size="13" lengthAdjust="spacing" textLength="209.9233" x="332" y="95.6294">- &#24182;&#34892;&#65306;Task1, Task2, Task3 &#21516;&#26102;</text></g><g id="elem_GMN25"><path d="M393,744.2969 L393,775.7969 L357.7,779.7969 L393,783.7969 L393,814.8281 A0,0 0 0 0 393,814.8281 L587.7417,814.8281 A0,0 0 0 0 587.7417,814.8281 L587.7417,754.2969 L577.7417,744.2969 L393,744.2969 A0,0 0 0 0 393,744.2969 " fill="#FEFFDD" style="stroke:#181818;stroke-width:0.5;"/><path d="M577.7417,744.2969 L577.7417,754.2969 L587.7417,754.2969 L577.7417,744.2969 " fill="#FEFFDD" style="stroke:#181818;stroke-width:0.5;"/><text fill="#000000" font-family="Microsoft YaHei" font-size="13" lengthAdjust="spacing" textLength="65" x="399" y="761.3638">&#21387;&#32553;&#26465;&#20214;&#65306;</text><text fill="#000000" font-family="Microsoft YaHei" font-size="13" lengthAdjust="spacing" textLength="172.6372" x="399" y="776.4966">- session.md &gt; 20000 &#23383;&#31526;</text><text fill="#000000" font-family="Microsoft YaHei" font-size="13" lengthAdjust="spacing" textLength="173.7417" x="399" y="791.6294">- context.md &gt; 30000 &#23383;&#31526;</text><text fill="#000000" font-family="Microsoft YaHei" font-size="13" lengthAdjust="spacing" textLength="169.9331" x="399" y="806.7622">- knowledge &gt; 25000 &#23383;&#31526;</text></g><!--link TQ to Running--><g id="link_TQ_Running"><path d="M199.22,107.5569 C190.41,116.0969 182.36,126.1269 177.5,137.2969 C171.16,151.8669 170.4938,163.5213 172.4938,178.2713 " fill="none" id="TQ-to-Running" style="stroke:#181818;stroke-width:1;"/><polygon fill="#181818" points="173.3,184.2169,176.0545,174.761,172.6282,179.2622,168.127,175.8359,173.3,184.2169" style="stroke:#181818;stroke-width:1;"/><text fill="#000000" font-family="Microsoft YaHei" font-size="13" lengthAdjust="spacing" textLength="100.8833" x="178.5" y="150.3638">get_next_task()</text></g><!--link Running to Waiting--><g id="link_Running_Waiting"><path d="M145.68,247.4569 C136.08,256.6369 125.99,266.9969 117.5,277.2969 C105.48,291.8769 97.0391,304.3613 88.0691,319.1013 " fill="none" id="Running-to-Waiting" style="stroke:#181818;stroke-width:1;"/><polygon fill="#181818" points="84.95,324.2269,93.0457,318.618,87.5493,319.9556,86.2117,314.4592,84.95,324.2269" style="stroke:#181818;stroke-width:1;"/><text fill="#000000" font-family="Microsoft YaHei" font-size="13" lengthAdjust="spacing" textLength="53.168" x="118.5" y="290.3638">invoke()</text></g><!--link Waiting to Processing--><g id="link_Waiting_Processing"><path d="M73.42,387.6169 C77.58,402.9369 84.44,420.9769 95.5,434.2969 C110.08,451.8469 125.7952,462.7605 145.0852,472.6005 " fill="none" id="Waiting-to-Processing" style="stroke:#181818;stroke-width:1;"/><polygon fill="#181818" points="150.43,475.3269,144.2304,467.6741,145.976,473.0549,140.5952,474.8004,150.43,475.3269" style="stroke:#181818;stroke-width:1;"/><text fill="#000000" font-family="Microsoft YaHei" font-size="13" lengthAdjust="spacing" textLength="75.2769" x="96.5" y="430.3638">Claude &#36820;&#22238;</text></g><!--link Processing to Running--><g id="link_Processing_Running"><path d="M196.52,464.1969 C193.06,410.7069 186.3276,306.7843 182.8676,253.3343 " fill="none" id="Processing-to-Running" style="stroke:#181818;stroke-width:1;"/><polygon fill="#181818" points="182.48,247.3469,179.0697,256.5865,182.803,252.3364,187.053,256.0697,182.48,247.3469" style="stroke:#181818;stroke-width:1;"/><text fill="#000000" font-family="Microsoft YaHei" font-size="13" lengthAdjust="spacing" textLength="52" x="192.5" y="360.3638">&#25552;&#21462;&#32467;&#26524;</text></g><!--link Processing to Done--><g id="link_Processing_Done"><path d="M150.32,512.3169 C129.26,521.7769 106.63,536.2069 94.5,557.2969 C86.44,571.3069 85.641,583.284 88.081,598.354 " fill="none" id="Processing-to-Done" style="stroke:#181818;stroke-width:1;"/><polygon fill="#181818" points="89.04,604.2769,91.5501,594.7533,88.2409,599.3412,83.653,596.0319,89.04,604.2769" style="stroke:#181818;stroke-width:1;"/><text fill="#000000" font-family="Microsoft YaHei" font-size="13" lengthAdjust="spacing" textLength="160.9575" x="95.5" y="570.3638">should_continue()=False</text></g><!--link Processing to TQ--><g id="link_Processing_TQ"><path d="M217.86,464.0269 C230.07,443.1669 245.06,414.5269 253.5,387.2969 C354.07,62.7369 292.26,165.8369 283.5,137.2969 C280.3,126.8669 277.9925,121.5794 271.8625,112.5594 " fill="none" id="Processing-to-TQ" style="stroke:#181818;stroke-width:1;"/><polygon fill="#181818" points="268.49,107.5969,270.2404,117.2889,271.3004,111.7323,276.8571,112.7923,268.49,107.5969" style="stroke:#181818;stroke-width:1;"/><text fill="#000000" font-family="Microsoft YaHei" font-size="13" lengthAdjust="spacing" textLength="156.6538" x="285.5" y="290.3638">should_continue()=True</text></g><!--link Processing to Save--><g id="link_Processing_Save"><path d="M234.1,527.5969 C243.36,536.6069 252.86,546.8569 260.5,557.2969 C271,571.6369 277.6158,583.7699 284.3758,598.5599 " fill="none" id="Processing-to-Save" style="stroke:#181818;stroke-width:1;"/><polygon fill="#181818" points="286.87,604.0169,286.7667,594.1686,284.7915,599.4694,279.4907,597.4942,286.87,604.0169" style="stroke:#181818;stroke-width:1;"/><text fill="#000000" font-family="Microsoft YaHei" font-size="13" lengthAdjust="spacing" textLength="52" x="271.5" y="570.3638">&#26356;&#26032;&#35760;&#24518;</text></g><!--link Save to Compress--><g id="link_Save_Compress"><path d="M299.5,667.6069 C299.5,691.4269 299.5,718.2469 299.5,742.0469 " fill="none" id="Save-to-Compress" style="stroke:#181818;stroke-width:1;"/><polygon fill="#181818" points="299.5,748.0469,303.5,739.0469,299.5,743.0469,295.5,739.0469,299.5,748.0469" style="stroke:#181818;stroke-width:1;"/><text fill="#000000" font-family="Microsoft YaHei" font-size="13" lengthAdjust="spacing" textLength="52" x="300.5" y="710.3638">&#26816;&#26597;&#22823;&#23567;</text></g><!--link Compress to Load--><g id="link_Compress_Load"><path d="M319.46,811.6069 C334.89,835.4269 352.886,863.2124 368.316,887.0124 " fill="none" id="Compress-to-Load" style="stroke:#181818;stroke-width:1;"/><polygon fill="#181818" points="371.58,892.0469,370.0404,882.3191,368.86,887.8514,363.3277,886.6711,371.58,892.0469" style="stroke:#181818;stroke-width:1;"/><text fill="#000000" font-family="Microsoft YaHei" font-size="13" lengthAdjust="spacing" textLength="52" x="351.5" y="858.3638">&#22823;&#23567;&#27491;&#24120;</text></g><!--link Compress to Memory--><g id="link_Compress_Memory"><path d="M295.65,811.4969 C293.05,833.8569 289.85,864.9069 288.5,892.2969 C287.12,920.2669 287.07,927.3369 288.5,955.2969 C289.83,981.3369 292.2445,1004.8397 294.8245,1026.3197 " fill="none" id="Compress-to-Memory" style="stroke:#181818;stroke-width:1;"/><polygon fill="#181818" points="295.54,1032.2769,298.4382,1022.8641,294.9437,1027.3126,290.4953,1023.8181,295.54,1032.2769" style="stroke:#181818;stroke-width:1;"/><text fill="#000000" font-family="Microsoft YaHei" font-size="13" lengthAdjust="spacing" textLength="26" x="289.5" y="928.3638">&#21387;&#32553;</text></g><!--link Load to Memory--><g id="link_Load_Memory"><path d="M371.08,955.4269 C355.84,978.2969 338.4177,1004.4142 323.1877,1027.2642 " fill="none" id="Load-to-Memory" style="stroke:#181818;stroke-width:1;"/><polygon fill="#181818" points="319.86,1032.2569,328.18,1026.9864,322.6331,1028.0963,321.5231,1022.5495,319.86,1032.2569" style="stroke:#181818;stroke-width:1;"/><text fill="#000000" font-family="Microsoft YaHei" font-size="13" lengthAdjust="spacing" textLength="65" x="351.5" y="998.3638">&#19978;&#19979;&#25991;&#23601;&#32490;</text></g><rect fill="none" height="62.8906" id="_legend" rx="7.5" ry="7.5" style="stroke:#000000;stroke-width:1;" width="112.6484" x="456.0933" y="1111.8906"/><text fill="#000000" font-family="Microsoft YaHei" font-size="14" font-weight="bold" lengthAdjust="spacing" textLength="28" x="465.9673" y="1131.8857">&#39068;&#33394;</text><text fill="#000000" font-family="Microsoft YaHei" font-size="14" font-weight="bold" lengthAdjust="spacing" textLength="28" x="503.7153" y="1131.8857">&#31867;&#22411;</text><rect fill="#ADD8E6" height="16.2969" style="stroke:none;stroke-width:1;" width="37.748" x="461.0933" y="1135.1875"/><text fill="#000000" font-family="Microsoft YaHei" font-size="14" lengthAdjust="spacing" textLength="4.4502" x="461.0933" y="1148.1826">&#160;</text><text fill="#000000" font-family="Microsoft YaHei" font-size="14" lengthAdjust="spacing" textLength="56" x="503.2915" y="1148.1826">&#20219;&#21153;&#25191;&#34892;</text><rect fill="#90EE90" height="16.2969" style="stroke:none;stroke-width:1;" width="37.748" x="461.0933" y="1151.4844"/><text fill="#000000" font-family="Microsoft YaHei" font-size="14" lengthAdjust="spacing" textLength="4.4502" x="461.0933" y="1164.4795">&#160;</text><text fill="#000000" font-family="Microsoft YaHei" font-size="14" lengthAdjust="spacing" textLength="56" x="503.2915" y="1164.4795">&#35760;&#24518;&#31649;&#29702;</text><line style="stroke:#000000;stroke-width:1;" x1="461.0933" x2="563.7417" y1="1118.8906" y2="1118.8906"/><line style="stroke:#000000;stroke-width:1;" x1="461.0933" x2="563.7417" y1="1135.1875" y2="1135.1875"/><line style="stroke:#000000;stroke-width:1;" x1="461.0933" x2="563.7417" y1="1151.4844" y2="1151.4844"/><line style="stroke:#000000;stroke-width:1;" x1="461.0933" x2="563.7417" y1="1167.7813" y2="1167.7813"/><line style="stroke:#000000;stroke-width:1;" x1="461.0933" x2="461.0933" y1="1118.8906" y2="1167.7813"/><line style="stroke:#000000;stroke-width:1;" x1="498.8413" x2="498.8413" y1="1118.8906" y2="1167.7813"/><line style="stroke:#000000;stroke-width:1;" x1="563.7417" x2="563.7417" y1="1118.8906" y2="1167.7813"/><!--SRC=[TPHTJnD158RlvrUSu8qcOXJYJGEz08DUWF63n715rkvGDjtEaFq0ZPX0eWXjGnirXSYN5HGqbXJKfcP1_elPsIrN_WLdPxlRtQRTcvsTzvazvxndPlICGkOaJSh2KocLIMlK9F8eLQa62xEAWP4UwZAUaKpL6AF4k2zbCKmeAOtgTCQ0AUaULf2X62e6sx9OhkAi7JOh1UVNidkKjnlhRgxkB2sZoCzID3j72IO6l430dv5uyA4XGz8poIICA-bPOqGrSNSgYxDKUnvmTpMCINTGnYb5LoW9q2cigdG1lKIedKcVd_lbvXvRtUW3IOV9Xn1a4kNywkn6LK2FJ48KakvAkjKrzkSrZAgIAMD1Fv4KenVD3bwvfHNNUkViRWluWKPJMDTxyNw-xBZWh9O4VuSBRJAADezhx6B5_M6vrfv09uHpqBOmbaZkO_Fyt6xax4RUARyH2yQf9FV0xOiTLjtqGmZsiJIFU_rwFU-UVNNsbvozpu8TvPh6YupoY1lVtvyChKr06XlJ13ypfhtQhbv3WU9HWQK9KCWypM0k1rEU734nqUe4D2_UiwrTX29QF9vJBB5YsMz59oLSJe0-IqrLdaxnyw0GaqST7fDK7NVIl9HkxAJ6ztGdAtpZmRT-EkMQxoSISvuO6iK1OHyxE6Ir8WhdFKXqAG6-v5JtMQCH1rfzvuXe149YHKm9-yvg9wxr3I523GoQTso0pl22KEju7rNOMV7VsGVKpzUSyXa-dkJzkGL_Lzw2Dne8HuCSOh_h4UYwJ_YlGM2bWhDHHvZ8uCNhZ1eKWLeRQATYMtK_jkuvICcDh0n96BZ97s3L3VVx5wvvZlDjusk3SIr3w8AAvJJsbjsEIEqSL9psFaGMuc9P78RBJzlDjLDlv9vOR3SFYxuoT2Myh9ABiNkmWn3N54TQP_AumWyzHtWWFnpw3m00]--></g></svg>